<svg width="283" height="153" viewBox="0 0 283 153" fill="none" xmlns="http://www.w3.org/2000/svg">
<path d="M254.179 103.655H185.989C184.769 103.655 183.777 102.663 183.777 101.445V2.20948C183.777 0.991097 184.769 0 185.989 0H254.179C255.398 0 256.39 0.991097 256.39 2.20948V101.445C256.39 102.663 255.398 103.655 254.179 103.655ZM185.989 0.0942324C184.821 0.0942324 183.871 1.04319 183.871 2.20948V101.445C183.871 102.612 184.821 103.56 185.989 103.56H254.179C255.346 103.56 256.296 102.612 256.296 101.445V2.20948C256.296 1.04319 255.346 0.0942324 254.179 0.0942324H185.989Z" fill="#E0E0E0"/>
<path d="M175.545 103.655H107.355C106.136 103.655 105.144 102.663 105.144 101.445V2.20948C105.144 0.991097 106.136 0 107.355 0H175.545C176.765 0 177.757 0.991097 177.757 2.20948V101.445C177.757 102.663 176.765 103.655 175.545 103.655ZM107.355 0.0942324C106.188 0.0942324 105.238 1.04319 105.238 2.20948V101.445C105.238 102.612 106.188 103.56 107.355 103.56H175.545C176.713 103.56 177.663 102.612 177.663 101.445V2.20948C177.663 1.04319 176.713 0.0942324 175.545 0.0942324H107.355Z" fill="#E0E0E0"/>
<path d="M96.9627 103.655H28.7727C27.5532 103.655 26.5612 102.663 26.5612 101.445V2.20948C26.5612 0.991097 27.5532 0 28.7727 0H96.9627C98.1822 0 99.1743 0.991097 99.1743 2.20948V101.445C99.1743 102.663 98.1822 103.655 96.9627 103.655ZM28.7727 0.0942324C27.6053 0.0942324 26.6555 1.04319 26.6555 2.20948V101.445C26.6555 102.612 27.6053 103.56 28.7727 103.56H96.9627C98.1302 103.56 99.08 102.612 99.08 101.445V2.20948C99.08 1.04319 98.1302 0.0942324 96.9627 0.0942324H28.7727Z" fill="#E0E0E0"/>
<path d="M282.952 126.673H0V126.719H282.952V126.673Z" fill="#E0E0E0"/>
<path d="M267.618 137.746H246.593V137.905H267.618V137.746Z" fill="#EBEBEB"/>
<path d="M192.283 139.467H186.764V139.625H192.283V139.467Z" fill="#EBEBEB"/>
<path d="M42.7517 132.922H15.3339V133.081H42.7517V132.922Z" fill="#EBEBEB"/>
<path d="M52.4232 132.922H48.4032V133.081H52.4232V132.922Z" fill="#EBEBEB"/>
<path d="M124.951 135.6H65.4884V135.759H124.951V135.6Z" fill="#EBEBEB"/>
<path d="M125.371 12.3913C124.563 11.782 123.386 11.713 122.513 12.2239C121.354 9.88441 118.125 8.85196 115.822 10.0846C115.221 7.56365 112.735 5.62601 110.142 5.65711C107.548 5.68828 105.109 7.68514 104.57 10.2198C104.484 10.6226 104.427 11.0639 104.139 11.3582C103.67 11.8361 102.888 11.6758 102.22 11.6237C100.12 11.46 98.0066 12.9333 97.4354 14.9593L126.36 14.8541C126.614 13.8756 126.178 13.0006 125.371 12.3913Z" fill="#E6E6E6"/>
<path d="M155.188 25.3997C154.677 25.0134 153.93 24.9696 153.376 25.2935C152.642 23.8101 150.594 23.1554 149.134 23.937C148.753 22.3386 147.177 21.1099 145.532 21.1296C143.887 21.1494 142.341 22.4156 141.999 24.0228C141.944 24.2782 141.908 24.558 141.726 24.7446C141.429 25.0477 140.933 24.946 140.509 24.913C139.177 24.8092 137.837 25.7434 137.475 27.028L155.816 26.9613C155.977 26.3409 155.7 25.7861 155.188 25.3997Z" fill="#E6E6E6"/>
<path d="M208.868 8.6795C208.356 8.29311 207.609 8.24934 207.056 8.57328C206.321 7.08987 204.274 6.43522 202.813 7.21678C202.432 5.61834 200.856 4.3897 199.212 4.40941C197.567 4.42916 196.021 5.69535 195.678 7.30257C195.624 7.55794 195.588 7.83778 195.405 8.02436C195.108 8.32744 194.612 8.22575 194.189 8.19273C192.857 8.08896 191.517 9.02314 191.155 10.3078L209.496 10.2411C209.656 9.62065 209.38 9.06585 208.868 8.6795Z" fill="#F5F5F5"/>
<path d="M44.9607 18.945C44.1534 18.3357 42.9758 18.2667 42.1027 18.7776C40.9441 16.4381 37.715 15.4057 35.4121 16.6383C34.8113 14.1174 32.3253 12.1797 29.7318 12.2108C27.1382 12.242 24.6996 14.2389 24.1597 16.7735C24.0739 17.1763 24.0171 17.6176 23.7287 17.9119C23.2603 18.3899 22.4782 18.2295 21.8106 18.1774C19.7102 18.0138 17.5968 19.487 17.0255 21.5131L45.9505 21.4079C46.2039 20.4294 45.7678 19.5543 44.9607 18.945Z" fill="#E6E6E6"/>
<path d="M81.2068 33.9465C80.659 33.533 79.8598 33.4862 79.2674 33.8329C78.4811 32.2453 76.2899 31.5447 74.7271 32.3811C74.3194 30.6705 72.6324 29.3556 70.8725 29.3767C69.1126 29.3979 67.4577 30.7529 67.0913 32.4729C67.0331 32.7462 66.9946 33.0457 66.7989 33.2454C66.481 33.5698 65.9503 33.4609 65.4973 33.4256C64.0719 33.3145 62.6378 34.3143 62.2501 35.6892L81.8785 35.6178C82.0504 34.9538 81.7545 34.36 81.2068 33.9465Z" fill="#F5F5F5"/>
<path d="M61.5413 67.0837C60.9935 66.6702 60.1943 66.6234 59.6019 66.9701C58.8156 65.3825 56.6244 64.6819 55.0616 65.5183C54.654 63.8077 52.9669 62.4928 51.207 62.5139C49.447 62.535 47.7922 63.8901 47.4258 65.6101C47.3676 65.8834 47.3291 66.1829 47.1334 66.3826C46.8155 66.707 46.2847 66.5981 45.8318 66.5628C44.4064 66.4517 42.9723 67.4515 42.5846 68.8263L62.213 68.755C62.3849 68.0909 62.089 67.4972 61.5413 67.0837Z" fill="#F5F5F5"/>
<path d="M264.126 24.6023C263.579 24.1888 262.779 24.1419 262.187 24.4886C261.401 22.9011 259.209 22.2005 257.647 23.0369C257.239 21.3262 255.552 20.0113 253.792 20.0325C252.032 20.0536 250.377 21.4087 250.011 23.1287C249.953 23.402 249.914 23.7015 249.718 23.9012C249.401 24.2256 248.87 24.1167 248.417 24.0813C246.991 23.9703 245.557 24.9701 245.17 26.3449L264.798 26.2735C264.97 25.6095 264.674 25.0157 264.126 24.6023Z" fill="#F5F5F5"/>
<path d="M251.672 67.3172L251.354 50.6505H241.587V54.4513H234.397V12.8179H220.571V29.2045H216.423V21.0217H205.635V60.9282H190.423V46.8288H180.885V16.2592H169.114V36.6389H158.05V80.5427H149.478V59.1636H140.627V45.4071H131.225V34.8451L120.734 40.1387V68.396H109.67V62.5673H94.8915V103.523L266.914 103.603V67.3172H251.672Z" fill="#EBEBEB"/>
<path d="M141.348 103.545V42.6099H129.594V103.603C133.314 103.515 141.348 103.545 141.348 103.545Z" fill="#E6E6E6"/>
<path d="M130.643 103.603V70.0894H106.453V103.528L130.643 103.603Z" fill="#FAFAFA"/>
<path d="M160.035 103.553V54.355H146.331V103.547L160.035 103.553Z" fill="#E0E0E0"/>
<path d="M149.033 56.2827H147.372V59.5609H149.033V56.2827Z" fill="#FAFAFA"/>
<path d="M152.355 56.2827H150.694V59.5609H152.355V56.2827Z" fill="#FAFAFA"/>
<path d="M155.677 56.2827H154.016V59.5609H155.677V56.2827Z" fill="#FAFAFA"/>
<path d="M158.999 56.2827H157.338V59.5609H158.999V56.2827Z" fill="#FAFAFA"/>
<path d="M149.033 61.7812H147.372V65.0594H149.033V61.7812Z" fill="#FAFAFA"/>
<path d="M152.355 61.7812H150.694V65.0594H152.355V61.7812Z" fill="#FAFAFA"/>
<path d="M155.677 61.7812H154.016V65.0594H155.677V61.7812Z" fill="#FAFAFA"/>
<path d="M158.999 61.7812H157.338V65.0594H158.999V61.7812Z" fill="#FAFAFA"/>
<path d="M149.033 67.2754H147.372V70.5535H149.033V67.2754Z" fill="#FAFAFA"/>
<path d="M152.355 67.2754H150.694V70.5535H152.355V67.2754Z" fill="#FAFAFA"/>
<path d="M155.677 67.2754H154.016V70.5535H155.677V67.2754Z" fill="#FAFAFA"/>
<path d="M158.999 67.2754H157.338V70.5535H158.999V67.2754Z" fill="#FAFAFA"/>
<path d="M149.033 72.77H147.372V76.0482H149.033V72.77Z" fill="#FAFAFA"/>
<path d="M152.355 72.77H150.694V76.0482H152.355V72.77Z" fill="#FAFAFA"/>
<path d="M155.677 72.77H154.016V76.0482H155.677V72.77Z" fill="#FAFAFA"/>
<path d="M158.999 72.77H157.338V76.0482H158.999V72.77Z" fill="#FAFAFA"/>
<path d="M149.033 78.2637H147.372V81.5418H149.033V78.2637Z" fill="#FAFAFA"/>
<path d="M152.355 78.2637H150.694V81.5418H152.355V78.2637Z" fill="#FAFAFA"/>
<path d="M155.677 78.2637H154.016V81.5418H155.677V78.2637Z" fill="#FAFAFA"/>
<path d="M158.999 78.2637H157.338V81.5418H158.999V78.2637Z" fill="#FAFAFA"/>
<path d="M149.033 83.7583H147.372V87.0364H149.033V83.7583Z" fill="#FAFAFA"/>
<path d="M152.355 83.7583H150.694V87.0364H152.355V83.7583Z" fill="#FAFAFA"/>
<path d="M155.677 83.7583H154.016V87.0364H155.677V83.7583Z" fill="#FAFAFA"/>
<path d="M158.999 83.7583H157.338V87.0364H158.999V83.7583Z" fill="#FAFAFA"/>
<path d="M149.033 89.2524H147.372V92.5306H149.033V89.2524Z" fill="#FAFAFA"/>
<path d="M152.355 89.2524H150.694V92.5306H152.355V89.2524Z" fill="#FAFAFA"/>
<path d="M155.677 89.2524H154.016V92.5306H155.677V89.2524Z" fill="#FAFAFA"/>
<path d="M158.999 89.2524H157.338V92.5306H158.999V89.2524Z" fill="#FAFAFA"/>
<path d="M149.033 94.751H147.372V98.0292H149.033V94.751Z" fill="#FAFAFA"/>
<path d="M152.355 94.751H150.694V98.0292H152.355V94.751Z" fill="#FAFAFA"/>
<path d="M155.677 94.751H154.016V98.0292H155.677V94.751Z" fill="#FAFAFA"/>
<path d="M158.999 94.751H157.338V98.0292H158.999V94.751Z" fill="#FAFAFA"/>
<path d="M207.654 103.575V47.3472H179.242V103.594C179.242 103.594 207.437 103.603 207.654 103.575Z" fill="#F5F5F5"/>
<path d="M184.819 49.5884H181.375V53.3641H184.819V49.5884Z" fill="#E6E6E6"/>
<path d="M191.713 49.5884H188.268V53.3641H191.713V49.5884Z" fill="#E6E6E6"/>
<path d="M198.602 49.5884H195.157V53.3641H198.602V49.5884Z" fill="#E6E6E6"/>
<path d="M205.495 49.5884H202.05V53.3641H205.495V49.5884Z" fill="#E6E6E6"/>
<path d="M184.819 55.9229H181.375V59.6986H184.819V55.9229Z" fill="#E6E6E6"/>
<path d="M191.713 55.9229H188.268V59.6986H191.713V55.9229Z" fill="#E6E6E6"/>
<path d="M198.602 55.9229H195.157V59.6986H198.602V55.9229Z" fill="#E6E6E6"/>
<path d="M205.495 55.9229H202.05V59.6986H205.495V55.9229Z" fill="#E6E6E6"/>
<path d="M184.819 62.2539H181.375V66.0297H184.819V62.2539Z" fill="#E6E6E6"/>
<path d="M191.713 62.2539H188.268V66.0297H191.713V62.2539Z" fill="#E6E6E6"/>
<path d="M198.602 62.2539H195.157V66.0297H198.602V62.2539Z" fill="#E6E6E6"/>
<path d="M205.495 62.2539H202.05V66.0297H205.495V62.2539Z" fill="#E6E6E6"/>
<path d="M184.819 68.584H181.375V72.3598H184.819V68.584Z" fill="#E6E6E6"/>
<path d="M191.713 68.584H188.268V72.3598H191.713V68.584Z" fill="#E6E6E6"/>
<path d="M198.602 68.584H195.157V72.3598H198.602V68.584Z" fill="#E6E6E6"/>
<path d="M205.495 68.584H202.05V72.3598H205.495V68.584Z" fill="#E6E6E6"/>
<path d="M184.819 74.9189H181.375V78.6946H184.819V74.9189Z" fill="#E6E6E6"/>
<path d="M191.713 74.9189H188.268V78.6946H191.713V74.9189Z" fill="#E6E6E6"/>
<path d="M198.602 74.9189H195.157V78.6946H198.602V74.9189Z" fill="#E6E6E6"/>
<path d="M205.495 74.9189H202.05V78.6946H205.495V74.9189Z" fill="#E6E6E6"/>
<path d="M184.819 81.249H181.375V85.0247H184.819V81.249Z" fill="#E6E6E6"/>
<path d="M191.713 81.249H188.268V85.0247H191.713V81.249Z" fill="#E6E6E6"/>
<path d="M198.602 81.249H195.157V85.0247H198.602V81.249Z" fill="#E6E6E6"/>
<path d="M205.495 81.249H202.05V85.0247H205.495V81.249Z" fill="#E6E6E6"/>
<path d="M184.819 87.584H181.375V91.3597H184.819V87.584Z" fill="#E6E6E6"/>
<path d="M191.713 87.584H188.268V91.3597H191.713V87.584Z" fill="#E6E6E6"/>
<path d="M198.602 87.584H195.157V91.3597H198.602V87.584Z" fill="#E6E6E6"/>
<path d="M205.495 87.584H202.05V91.3597H205.495V87.584Z" fill="#E6E6E6"/>
<path d="M184.819 93.9146H181.375V97.6903H184.819V93.9146Z" fill="#E6E6E6"/>
<path d="M191.713 93.9146H188.268V97.6903H191.713V93.9146Z" fill="#E6E6E6"/>
<path d="M198.602 93.9146H195.157V97.6903H198.602V93.9146Z" fill="#E6E6E6"/>
<path d="M205.495 93.9146H202.05V97.6903H205.495V93.9146Z" fill="#E6E6E6"/>
<path d="M134.935 46.7515H131.761V50.2308H134.935V46.7515Z" fill="#FAFAFA"/>
<path d="M134.935 52.585H131.761V56.0643H134.935V52.585Z" fill="#FAFAFA"/>
<path d="M134.935 58.4224H131.761V61.9017H134.935V58.4224Z" fill="#FAFAFA"/>
<path d="M134.935 64.2563H131.761V67.7357H134.935V64.2563Z" fill="#FAFAFA"/>
<path d="M134.935 70.0898H131.761V73.5692H134.935V70.0898Z" fill="#FAFAFA"/>
<path d="M134.935 75.9272H131.761V79.4066H134.935V75.9272Z" fill="#FAFAFA"/>
<path d="M134.935 81.7607H131.761V85.2401H134.935V81.7607Z" fill="#FAFAFA"/>
<path d="M134.935 87.5981H131.761V91.0775H134.935V87.5981Z" fill="#FAFAFA"/>
<path d="M139.181 46.7515H136.007V50.2308H139.181V46.7515Z" fill="#FAFAFA"/>
<path d="M139.181 52.585H136.007V56.0643H139.181V52.585Z" fill="#FAFAFA"/>
<path d="M139.181 58.4224H136.007V61.9017H139.181V58.4224Z" fill="#FAFAFA"/>
<path d="M139.181 64.2563H136.007V67.7357H139.181V64.2563Z" fill="#FAFAFA"/>
<path d="M139.181 70.0898H136.007V73.5692H139.181V70.0898Z" fill="#FAFAFA"/>
<path d="M139.181 75.9272H136.007V79.4066H139.181V75.9272Z" fill="#FAFAFA"/>
<path d="M139.181 81.7607H136.007V85.2401H139.181V81.7607Z" fill="#FAFAFA"/>
<path d="M139.181 87.5981H136.007V91.0775H139.181V87.5981Z" fill="#FAFAFA"/>
<path d="M175.251 20.3032H171.806V24.079H175.251V20.3032Z" fill="#FAFAFA"/>
<path d="M175.251 26.6333H171.806V30.409H175.251V26.6333Z" fill="#FAFAFA"/>
<path d="M175.251 32.5327H171.806V36.3085H175.251V32.5327Z" fill="#FAFAFA"/>
<path d="M175.251 38.8633H171.806V42.639H175.251V38.8633Z" fill="#FAFAFA"/>
<path d="M175.251 45.1938H171.806V48.9696H175.251V45.1938Z" fill="#FAFAFA"/>
<path d="M175.251 51.5283H171.806V55.3041H175.251V51.5283Z" fill="#FAFAFA"/>
<path d="M175.251 57.8594H171.806V61.6351H175.251V57.8594Z" fill="#FAFAFA"/>
<path d="M175.251 64.1938H171.806V67.9695H175.251V64.1938Z" fill="#FAFAFA"/>
<path d="M226.992 14.8125H223.548V18.5882H226.992V14.8125Z" fill="#FAFAFA"/>
<path d="M226.992 21.1431H223.548V24.9188H226.992V21.1431Z" fill="#FAFAFA"/>
<path d="M226.992 27.4775H223.548V31.2533H226.992V27.4775Z" fill="#FAFAFA"/>
<path d="M226.992 33.8081H223.548V37.5839H226.992V33.8081Z" fill="#FAFAFA"/>
<path d="M226.992 40.1431H223.548V43.9188H226.992V40.1431Z" fill="#FAFAFA"/>
<path d="M226.992 46.4731H223.548V50.2488H226.992V46.4731Z" fill="#FAFAFA"/>
<path d="M226.992 52.8081H223.548V56.5838H226.992V52.8081Z" fill="#FAFAFA"/>
<path d="M226.992 59.1387H223.548V62.9143H226.992V59.1387Z" fill="#FAFAFA"/>
<path d="M251.672 43.9019H230.926V103.603H251.672V43.9019Z" fill="#E6E6E6"/>
<path d="M240.075 46.8452H233.995V50.6209H240.075V46.8452Z" fill="#FAFAFA"/>
<path d="M240.075 53.1802H233.995V56.9559H240.075V53.1802Z" fill="#FAFAFA"/>
<path d="M240.075 59.5107H233.995V63.2864H240.075V59.5107Z" fill="#FAFAFA"/>
<path d="M240.075 65.8452H233.995V69.621H240.075V65.8452Z" fill="#FAFAFA"/>
<path d="M240.075 72.1758H233.995V75.9515H240.075V72.1758Z" fill="#FAFAFA"/>
<path d="M240.075 78.5063H233.995V82.2821H240.075V78.5063Z" fill="#FAFAFA"/>
<path d="M240.075 84.8408H233.995V88.6166H240.075V84.8408Z" fill="#FAFAFA"/>
<path d="M240.075 91.1719H233.995V94.9476H240.075V91.1719Z" fill="#FAFAFA"/>
<path d="M248.21 46.8452H242.13V50.6209H248.21V46.8452Z" fill="#FAFAFA"/>
<path d="M248.21 53.1802H242.13V56.9559H248.21V53.1802Z" fill="#FAFAFA"/>
<path d="M248.21 59.5107H242.13V63.2864H248.21V59.5107Z" fill="#FAFAFA"/>
<path d="M248.21 65.8452H242.13V69.621H248.21V65.8452Z" fill="#FAFAFA"/>
<path d="M248.21 72.1758H242.13V75.9515H248.21V72.1758Z" fill="#FAFAFA"/>
<path d="M248.21 78.5063H242.13V82.2821H248.21V78.5063Z" fill="#FAFAFA"/>
<path d="M248.21 84.8408H242.13V88.6166H248.21V84.8408Z" fill="#FAFAFA"/>
<path d="M248.21 91.1719H242.13V94.9476H248.21V91.1719Z" fill="#FAFAFA"/>
<path d="M219.614 103.581V62.2539H210.565V103.577L219.614 103.581Z" fill="#E0E0E0"/>
<path d="M212.349 63.9263H211.252V66.7403H212.349V63.9263Z" fill="#FAFAFA"/>
<path d="M214.543 63.9263H213.446V66.7403H214.543V63.9263Z" fill="#FAFAFA"/>
<path d="M216.733 63.9263H215.636V66.7403H216.733V63.9263Z" fill="#FAFAFA"/>
<path d="M218.927 63.9263H217.83V66.7403H218.927V63.9263Z" fill="#FAFAFA"/>
<path d="M212.349 68.647H211.252V71.461H212.349V68.647Z" fill="#FAFAFA"/>
<path d="M214.543 68.647H213.446V71.461H214.543V68.647Z" fill="#FAFAFA"/>
<path d="M216.733 68.647H215.636V71.461H216.733V68.647Z" fill="#FAFAFA"/>
<path d="M218.927 68.647H217.83V71.461H218.927V68.647Z" fill="#FAFAFA"/>
<path d="M212.349 73.3677H211.252V76.1817H212.349V73.3677Z" fill="#FAFAFA"/>
<path d="M214.543 73.3677H213.446V76.1817H214.543V73.3677Z" fill="#FAFAFA"/>
<path d="M216.733 73.3677H215.636V76.1817H216.733V73.3677Z" fill="#FAFAFA"/>
<path d="M218.927 73.3677H217.83V76.1817H218.927V73.3677Z" fill="#FAFAFA"/>
<path d="M212.349 78.0884H211.252V80.9024H212.349V78.0884Z" fill="#FAFAFA"/>
<path d="M214.543 78.0884H213.446V80.9024H214.543V78.0884Z" fill="#FAFAFA"/>
<path d="M216.733 78.0884H215.636V80.9024H216.733V78.0884Z" fill="#FAFAFA"/>
<path d="M218.927 78.0884H217.83V80.9024H218.927V78.0884Z" fill="#FAFAFA"/>
<path d="M212.349 82.813H211.252V85.627H212.349V82.813Z" fill="#FAFAFA"/>
<path d="M214.543 82.813H213.446V85.627H214.543V82.813Z" fill="#FAFAFA"/>
<path d="M216.733 82.813H215.636V85.627H216.733V82.813Z" fill="#FAFAFA"/>
<path d="M218.927 82.813H217.83V85.627H218.927V82.813Z" fill="#FAFAFA"/>
<path d="M212.349 87.5337H211.252V90.3477H212.349V87.5337Z" fill="#FAFAFA"/>
<path d="M214.543 87.5337H213.446V90.3477H214.543V87.5337Z" fill="#FAFAFA"/>
<path d="M216.733 87.5337H215.636V90.3477H216.733V87.5337Z" fill="#FAFAFA"/>
<path d="M218.927 87.5337H217.83V90.3477H218.927V87.5337Z" fill="#FAFAFA"/>
<path d="M212.349 92.2549H211.252V95.0689H212.349V92.2549Z" fill="#FAFAFA"/>
<path d="M214.543 92.2549H213.446V95.0689H214.543V92.2549Z" fill="#FAFAFA"/>
<path d="M216.733 92.2549H215.636V95.0689H216.733V92.2549Z" fill="#FAFAFA"/>
<path d="M218.927 92.2549H217.83V95.0689H218.927V92.2549Z" fill="#FAFAFA"/>
<path d="M212.349 96.9751H211.252V99.7892H212.349V96.9751Z" fill="#FAFAFA"/>
<path d="M214.543 96.9751H213.446V99.7892H214.543V96.9751Z" fill="#FAFAFA"/>
<path d="M216.733 96.9751H215.636V99.7892H216.733V96.9751Z" fill="#FAFAFA"/>
<path d="M218.927 96.9751H217.83V99.7892H218.927V96.9751Z" fill="#FAFAFA"/>
<path d="M111.218 71.4902H108.285V73.8527H111.218V71.4902Z" fill="#E6E6E6"/>
<path d="M117.084 71.4902H114.151V73.8527H117.084V71.4902Z" fill="#E6E6E6"/>
<path d="M122.946 71.4902H120.013V73.8527H122.946V71.4902Z" fill="#E6E6E6"/>
<path d="M128.812 71.4902H125.879V73.8527H128.812V71.4902Z" fill="#E6E6E6"/>
<path d="M111.218 75.4502H108.285V77.8126H111.218V75.4502Z" fill="#E6E6E6"/>
<path d="M117.084 75.4502H114.151V77.8126H117.084V75.4502Z" fill="#E6E6E6"/>
<path d="M122.946 75.4502H120.013V77.8126H122.946V75.4502Z" fill="#E6E6E6"/>
<path d="M128.812 75.4502H125.879V77.8126H128.812V75.4502Z" fill="#E6E6E6"/>
<path d="M111.218 79.4097H108.285V81.7721H111.218V79.4097Z" fill="#E6E6E6"/>
<path d="M117.084 79.4097H114.151V81.7721H117.084V79.4097Z" fill="#E6E6E6"/>
<path d="M122.946 79.4097H120.013V81.7721H122.946V79.4097Z" fill="#E6E6E6"/>
<path d="M128.812 79.4097H125.879V81.7721H128.812V79.4097Z" fill="#E6E6E6"/>
<path d="M111.218 83.3691H108.285V85.7316H111.218V83.3691Z" fill="#E6E6E6"/>
<path d="M117.084 83.3691H114.151V85.7316H117.084V83.3691Z" fill="#E6E6E6"/>
<path d="M122.946 83.3691H120.013V85.7316H122.946V83.3691Z" fill="#E6E6E6"/>
<path d="M128.812 83.3691H125.879V85.7316H128.812V83.3691Z" fill="#E6E6E6"/>
<path d="M111.218 87.3247H108.285V89.6872H111.218V87.3247Z" fill="#E6E6E6"/>
<path d="M117.084 87.3247H114.151V89.6872H117.084V87.3247Z" fill="#E6E6E6"/>
<path d="M122.946 87.3247H120.013V89.6872H122.946V87.3247Z" fill="#E6E6E6"/>
<path d="M128.812 87.3247H125.879V89.6872H128.812V87.3247Z" fill="#E6E6E6"/>
<path d="M111.218 91.2847H108.285V93.6471H111.218V91.2847Z" fill="#E6E6E6"/>
<path d="M117.084 91.2847H114.151V93.6471H117.084V91.2847Z" fill="#E6E6E6"/>
<path d="M122.946 91.2847H120.013V93.6471H122.946V91.2847Z" fill="#E6E6E6"/>
<path d="M128.812 91.2847H125.879V93.6471H128.812V91.2847Z" fill="#E6E6E6"/>
<path d="M111.218 95.2441H108.285V97.6066H111.218V95.2441Z" fill="#E6E6E6"/>
<path d="M117.084 95.2441H114.151V97.6066H117.084V95.2441Z" fill="#E6E6E6"/>
<path d="M122.946 95.2441H120.013V97.6066H122.946V95.2441Z" fill="#E6E6E6"/>
<path d="M128.812 95.2441H125.879V97.6066H128.812V95.2441Z" fill="#E6E6E6"/>
<path d="M97.6679 103.564V28.4277H118.596V103.555L97.6679 103.564Z" fill="#E0E0E0"/>
<path d="M117.007 31.3716H114.471V36.3781H117.007V31.3716Z" fill="#FAFAFA"/>
<path d="M111.934 31.3716H109.397V36.3781H111.934V31.3716Z" fill="#FAFAFA"/>
<path d="M106.86 31.3716H104.324V36.3781H106.86V31.3716Z" fill="#FAFAFA"/>
<path d="M101.787 31.3716H99.25V36.3781H101.787V31.3716Z" fill="#FAFAFA"/>
<path d="M117.007 39.769H114.471V44.7755H117.007V39.769Z" fill="#FAFAFA"/>
<path d="M111.934 39.769H109.397V44.7755H111.934V39.769Z" fill="#FAFAFA"/>
<path d="M106.86 39.769H104.324V44.7755H106.86V39.769Z" fill="#FAFAFA"/>
<path d="M101.787 39.769H99.25V44.7755H101.787V39.769Z" fill="#FAFAFA"/>
<path d="M117.007 48.1597H114.471V53.1661H117.007V48.1597Z" fill="#FAFAFA"/>
<path d="M111.934 48.1597H109.397V53.1661H111.934V48.1597Z" fill="#FAFAFA"/>
<path d="M106.86 48.1597H104.324V53.1661H106.86V48.1597Z" fill="#FAFAFA"/>
<path d="M101.787 48.1597H99.25V53.1661H101.787V48.1597Z" fill="#FAFAFA"/>
<path d="M117.007 56.5508H114.471V61.5573H117.007V56.5508Z" fill="#FAFAFA"/>
<path d="M111.934 56.5508H109.397V61.5573H111.934V56.5508Z" fill="#FAFAFA"/>
<path d="M106.86 56.5508H104.324V61.5573H106.86V56.5508Z" fill="#FAFAFA"/>
<path d="M101.787 56.5508H99.25V61.5573H101.787V56.5508Z" fill="#FAFAFA"/>
<path d="M117.007 64.9419H114.471V69.9483H117.007V64.9419Z" fill="#FAFAFA"/>
<path d="M111.934 64.9419H109.397V69.9483H111.934V64.9419Z" fill="#FAFAFA"/>
<path d="M106.86 64.9419H104.324V69.9483H106.86V64.9419Z" fill="#FAFAFA"/>
<path d="M101.787 64.9419H99.25V69.9483H101.787V64.9419Z" fill="#FAFAFA"/>
<path d="M117.007 73.333H114.471V78.3394H117.007V73.333Z" fill="#FAFAFA"/>
<path d="M111.934 73.333H109.397V78.3394H111.934V73.333Z" fill="#FAFAFA"/>
<path d="M106.86 73.333H104.324V78.3394H106.86V73.333Z" fill="#FAFAFA"/>
<path d="M101.787 73.333H99.25V78.3394H101.787V73.333Z" fill="#FAFAFA"/>
<path d="M117.007 81.7236H114.471V86.7301H117.007V81.7236Z" fill="#FAFAFA"/>
<path d="M111.934 81.7236H109.397V86.7301H111.934V81.7236Z" fill="#FAFAFA"/>
<path d="M106.86 81.7236H104.324V86.7301H106.86V81.7236Z" fill="#FAFAFA"/>
<path d="M101.787 81.7236H99.25V86.7301H101.787V81.7236Z" fill="#FAFAFA"/>
<path d="M117.007 90.1211H114.471V95.1276H117.007V90.1211Z" fill="#FAFAFA"/>
<path d="M111.934 90.1211H109.397V95.1276H111.934V90.1211Z" fill="#FAFAFA"/>
<path d="M106.86 90.1211H104.324V95.1276H106.86V90.1211Z" fill="#FAFAFA"/>
<path d="M101.787 90.1211H99.25V95.1276H101.787V90.1211Z" fill="#FAFAFA"/>
<path d="M68.0403 103.576V47.3477H96.4528V103.595C96.4528 103.595 68.258 103.603 68.0403 103.576Z" fill="#F5F5F5"/>
<path d="M94.3198 49.5889H90.8753V53.3646H94.3198V49.5889Z" fill="#E6E6E6"/>
<path d="M87.4264 49.5889H83.9819V53.3646H87.4264V49.5889Z" fill="#E6E6E6"/>
<path d="M80.5374 49.5889H77.093V53.3646H80.5374V49.5889Z" fill="#E6E6E6"/>
<path d="M73.6442 49.5889H70.1997V53.3646H73.6442V49.5889Z" fill="#E6E6E6"/>
<path d="M94.3198 55.9233H90.8753V59.6991H94.3198V55.9233Z" fill="#E6E6E6"/>
<path d="M87.4264 55.9233H83.9819V59.6991H87.4264V55.9233Z" fill="#E6E6E6"/>
<path d="M80.5374 55.9233H77.093V59.6991H80.5374V55.9233Z" fill="#E6E6E6"/>
<path d="M73.6442 55.9233H70.1997V59.6991H73.6442V55.9233Z" fill="#E6E6E6"/>
<path d="M94.3198 62.2539H90.8753V66.0297H94.3198V62.2539Z" fill="#E6E6E6"/>
<path d="M87.4264 62.2539H83.9819V66.0297H87.4264V62.2539Z" fill="#E6E6E6"/>
<path d="M80.5374 62.2539H77.093V66.0297H80.5374V62.2539Z" fill="#E6E6E6"/>
<path d="M73.6442 62.2539H70.1997V66.0297H73.6442V62.2539Z" fill="#E6E6E6"/>
<path d="M94.3198 68.5845H90.8753V72.3602H94.3198V68.5845Z" fill="#E6E6E6"/>
<path d="M87.4264 68.5845H83.9819V72.3602H87.4264V68.5845Z" fill="#E6E6E6"/>
<path d="M80.5374 68.5845H77.093V72.3602H80.5374V68.5845Z" fill="#E6E6E6"/>
<path d="M73.6442 68.5845H70.1997V72.3602H73.6442V68.5845Z" fill="#E6E6E6"/>
<path d="M94.3198 74.9189H90.8753V78.6946H94.3198V74.9189Z" fill="#E6E6E6"/>
<path d="M87.4264 74.9189H83.9819V78.6946H87.4264V74.9189Z" fill="#E6E6E6"/>
<path d="M80.5374 74.9189H77.093V78.6946H80.5374V74.9189Z" fill="#E6E6E6"/>
<path d="M73.6442 74.9189H70.1997V78.6946H73.6442V74.9189Z" fill="#E6E6E6"/>
<path d="M94.3198 81.2495H90.8753V85.0252H94.3198V81.2495Z" fill="#E6E6E6"/>
<path d="M87.4264 81.2495H83.9819V85.0252H87.4264V81.2495Z" fill="#E6E6E6"/>
<path d="M80.5374 81.2495H77.093V85.0252H80.5374V81.2495Z" fill="#E6E6E6"/>
<path d="M73.6442 81.2495H70.1997V85.0252H73.6442V81.2495Z" fill="#E6E6E6"/>
<path d="M94.3198 87.5845H90.8753V91.3602H94.3198V87.5845Z" fill="#E6E6E6"/>
<path d="M87.4264 87.5845H83.9819V91.3602H87.4264V87.5845Z" fill="#E6E6E6"/>
<path d="M80.5374 87.5845H77.093V91.3602H80.5374V87.5845Z" fill="#E6E6E6"/>
<path d="M73.6442 87.5845H70.1997V91.3602H73.6442V87.5845Z" fill="#E6E6E6"/>
<path d="M94.3198 93.915H90.8753V97.6908H94.3198V93.915Z" fill="#E6E6E6"/>
<path d="M87.4264 93.915H83.9819V97.6908H87.4264V93.915Z" fill="#E6E6E6"/>
<path d="M80.5374 93.915H77.093V97.6908H80.5374V93.915Z" fill="#E6E6E6"/>
<path d="M73.6442 93.915H70.1997V97.6908H73.6442V93.915Z" fill="#E6E6E6"/>
<path d="M44.7683 43.9019H24.0228V103.603H44.7683V43.9019Z" fill="#E6E6E6"/>
<path d="M41.6998 46.8457H35.6195V50.6214H41.6998V46.8457Z" fill="#FAFAFA"/>
<path d="M41.6998 53.1802H35.6195V56.9559H41.6998V53.1802Z" fill="#FAFAFA"/>
<path d="M41.6998 59.5107H35.6195V63.2864H41.6998V59.5107Z" fill="#FAFAFA"/>
<path d="M41.6998 65.8457H35.6195V69.6214H41.6998V65.8457Z" fill="#FAFAFA"/>
<path d="M41.6998 72.1763H35.6195V75.952H41.6998V72.1763Z" fill="#FAFAFA"/>
<path d="M41.6998 78.5063H35.6195V82.2821H41.6998V78.5063Z" fill="#FAFAFA"/>
<path d="M41.6998 84.8413H35.6195V88.6171H41.6998V84.8413Z" fill="#FAFAFA"/>
<path d="M41.6998 91.1719H35.6195V94.9476H41.6998V91.1719Z" fill="#FAFAFA"/>
<path d="M33.565 46.8457H27.4847V50.6214H33.565V46.8457Z" fill="#FAFAFA"/>
<path d="M33.565 53.1802H27.4847V56.9559H33.565V53.1802Z" fill="#FAFAFA"/>
<path d="M33.565 59.5107H27.4847V63.2864H33.565V59.5107Z" fill="#FAFAFA"/>
<path d="M33.565 65.8457H27.4847V69.6214H33.565V65.8457Z" fill="#FAFAFA"/>
<path d="M33.565 72.1763H27.4847V75.952H33.565V72.1763Z" fill="#FAFAFA"/>
<path d="M33.565 78.5063H27.4847V82.2821H33.565V78.5063Z" fill="#FAFAFA"/>
<path d="M33.565 84.8413H27.4847V88.6171H33.565V84.8413Z" fill="#FAFAFA"/>
<path d="M33.565 91.1719H27.4847V94.9476H33.565V91.1719Z" fill="#FAFAFA"/>
<path d="M47.6177 102.762V38.9829H61.5817V102.756L47.6177 102.762Z" fill="#E0E0E0"/>
<path d="M60.5225 41.564H58.8293V45.9068H60.5225V41.564Z" fill="#FAFAFA"/>
<path d="M57.1362 41.564H55.443V45.9068H57.1362V41.564Z" fill="#FAFAFA"/>
<path d="M53.7564 41.564H52.0632V45.9068H53.7564V41.564Z" fill="#FAFAFA"/>
<path d="M50.37 41.564H48.6768V45.9068H50.37V41.564Z" fill="#FAFAFA"/>
<path d="M60.5225 48.8496H58.8293V53.1924H60.5225V48.8496Z" fill="#FAFAFA"/>
<path d="M57.1362 48.8496H55.443V53.1924H57.1362V48.8496Z" fill="#FAFAFA"/>
<path d="M53.7564 48.8496H52.0632V53.1924H53.7564V48.8496Z" fill="#FAFAFA"/>
<path d="M50.37 48.8496H48.6768V53.1924H50.37V48.8496Z" fill="#FAFAFA"/>
<path d="M60.5225 56.1348H58.8293V60.4776H60.5225V56.1348Z" fill="#FAFAFA"/>
<path d="M57.1362 56.1348H55.443V60.4776H57.1362V56.1348Z" fill="#FAFAFA"/>
<path d="M53.7564 56.1348H52.0632V60.4776H53.7564V56.1348Z" fill="#FAFAFA"/>
<path d="M50.37 56.1348H48.6768V60.4776H50.37V56.1348Z" fill="#FAFAFA"/>
<path d="M60.5225 63.4199H58.8293V67.7627H60.5225V63.4199Z" fill="#FAFAFA"/>
<path d="M57.1362 63.4199H55.443V67.7627H57.1362V63.4199Z" fill="#FAFAFA"/>
<path d="M53.7564 63.4199H52.0632V67.7627H53.7564V63.4199Z" fill="#FAFAFA"/>
<path d="M50.37 63.4199H48.6768V67.7627H50.37V63.4199Z" fill="#FAFAFA"/>
<path d="M60.5225 70.7119H58.8293V75.0547H60.5225V70.7119Z" fill="#FAFAFA"/>
<path d="M57.1362 70.7119H55.443V75.0547H57.1362V70.7119Z" fill="#FAFAFA"/>
<path d="M53.7564 70.7119H52.0632V75.0547H53.7564V70.7119Z" fill="#FAFAFA"/>
<path d="M50.37 70.7119H48.6768V75.0547H50.37V70.7119Z" fill="#FAFAFA"/>
<path d="M60.5225 77.9976H58.8293V82.3403H60.5225V77.9976Z" fill="#FAFAFA"/>
<path d="M57.1362 77.9976H55.443V82.3403H57.1362V77.9976Z" fill="#FAFAFA"/>
<path d="M53.7564 77.9976H52.0632V82.3403H53.7564V77.9976Z" fill="#FAFAFA"/>
<path d="M50.37 77.9976H48.6768V82.3403H50.37V77.9976Z" fill="#FAFAFA"/>
<path d="M60.5225 85.2827H58.8293V89.6255H60.5225V85.2827Z" fill="#FAFAFA"/>
<path d="M57.1362 85.2827H55.443V89.6255H57.1362V85.2827Z" fill="#FAFAFA"/>
<path d="M53.7564 85.2827H52.0632V89.6255H53.7564V85.2827Z" fill="#FAFAFA"/>
<path d="M50.37 85.2827H48.6768V89.6255H50.37V85.2827Z" fill="#FAFAFA"/>
<path d="M60.5225 92.5679H58.8293V96.9107H60.5225V92.5679Z" fill="#FAFAFA"/>
<path d="M57.1362 92.5679H55.443V96.9107H57.1362V92.5679Z" fill="#FAFAFA"/>
<path d="M53.7564 92.5679H52.0632V96.9107H53.7564V92.5679Z" fill="#FAFAFA"/>
<path d="M50.37 92.5679H48.6768V96.9107H50.37V92.5679Z" fill="#FAFAFA"/>
<path d="M265.488 150.688C265.488 151.965 209.703 153 140.888 153C72.0736 153 16.2883 151.965 16.2883 150.688C16.2883 149.412 72.0736 148.377 140.888 148.377C209.703 148.377 265.488 149.412 265.488 150.688Z" fill="#F5F5F5"/>
<path d="M143.522 141.429H173.576V117.533H143.522V141.429Z" fill="#023448"/>
<path opacity="0.5" d="M143.522 141.429H173.576V117.533H143.522V141.429Z" fill="black"/>
<path d="M161.528 150.688C166.271 150.688 170.117 144.677 170.117 137.262C170.117 129.847 166.271 123.836 161.528 123.836C156.784 123.836 152.939 129.847 152.939 137.262C152.939 144.677 156.784 150.688 161.528 150.688Z" fill="#263238"/>
<path d="M160.382 137.262C160.382 141.897 159.243 148.275 161.528 150.688H168.971C173.714 150.688 177.56 144.677 177.56 137.262C177.56 129.848 173.714 123.837 168.971 123.837C166.93 123.837 161.769 123.593 161.528 123.837C159.317 126.069 160.382 133.037 160.382 137.262Z" fill="#263238"/>
<path opacity="0.3" d="M160.93 143.697C163.349 143.697 165.31 140.632 165.31 136.851C165.31 133.07 163.349 130.005 160.93 130.005C158.512 130.005 156.551 133.07 156.551 136.851C156.551 140.632 158.512 143.697 160.93 143.697Z" fill="white"/>
<path d="M44.8643 141.429H74.9178V117.533H44.8643V141.429Z" fill="#023448"/>
<path opacity="0.5" d="M44.8643 141.429H74.9178V117.533H44.8643V141.429Z" fill="black"/>
<path d="M62.8697 150.688C67.6132 150.688 71.4586 144.677 71.4586 137.262C71.4586 129.847 67.6132 123.836 62.8697 123.836C58.1262 123.836 54.2808 129.847 54.2808 137.262C54.2808 144.677 58.1262 150.688 62.8697 150.688Z" fill="#263238"/>
<path d="M61.7239 137.262C61.7239 141.897 60.585 148.275 62.8697 150.688H70.3128C75.0563 150.688 78.9017 144.677 78.9017 137.262C78.9017 129.848 75.0563 123.837 70.3128 123.837C68.2725 123.837 63.1107 123.593 62.8697 123.837C60.6595 126.069 61.7239 133.037 61.7239 137.262Z" fill="#263238"/>
<path opacity="0.3" d="M62.2724 143.697C64.6911 143.697 66.6519 140.632 66.6519 136.851C66.6519 133.07 64.6911 130.005 62.2724 130.005C59.8536 130.005 57.8929 133.07 57.8929 136.851C57.8929 140.632 59.8536 143.697 62.2724 143.697Z" fill="white"/>
<path d="M102.154 150.688C106.897 150.688 110.743 144.677 110.743 137.262C110.743 129.847 106.897 123.836 102.154 123.836C97.4101 123.836 93.5648 129.847 93.5648 137.262C93.5648 144.677 97.4101 150.688 102.154 150.688Z" fill="#263238"/>
<path d="M101.008 137.262C101.008 141.897 99.869 148.275 102.154 150.688H109.597C114.34 150.688 118.186 144.677 118.186 137.262C118.186 129.848 114.34 123.837 109.597 123.837C107.556 123.837 102.395 123.593 102.154 123.837C99.9435 126.069 101.008 133.037 101.008 137.262Z" fill="#263238"/>
<path opacity="0.3" d="M101.556 143.697C103.975 143.697 105.936 140.632 105.936 136.851C105.936 133.07 103.975 130.005 101.556 130.005C99.1376 130.005 97.1768 133.07 97.1768 136.851C97.1768 140.632 99.1376 143.697 101.556 143.697Z" fill="white"/>
<path opacity="0.3" d="M109.597 123.837C107.556 123.837 102.395 123.593 102.154 123.837C97.4101 123.837 93.5648 129.848 93.5648 137.262C93.5648 144.677 97.4101 150.688 102.154 150.688H109.597C114.34 150.688 118.186 144.677 118.186 137.262C118.186 129.848 114.34 123.837 109.597 123.837Z" fill="black"/>
<path d="M214.283 150.688C219.027 150.688 222.872 144.677 222.872 137.262C222.872 129.847 219.027 123.836 214.283 123.836C209.54 123.836 205.695 129.847 205.695 137.262C205.695 144.677 209.54 150.688 214.283 150.688Z" fill="#263238"/>
<path d="M213.138 137.262C213.138 141.897 211.999 148.275 214.283 150.688H221.727C226.47 150.688 230.316 144.677 230.316 137.262C230.316 129.848 226.47 123.837 221.727 123.837C219.686 123.837 214.524 123.593 214.283 123.837C212.073 126.069 213.138 133.037 213.138 137.262Z" fill="#263238"/>
<path opacity="0.3" d="M213.686 143.697C216.105 143.697 218.066 140.632 218.066 136.851C218.066 133.07 216.105 130.005 213.686 130.005C211.267 130.005 209.307 133.07 209.307 136.851C209.307 140.632 211.267 143.697 213.686 143.697Z" fill="white"/>
<path opacity="0.3" d="M221.787 123.837C219.747 123.837 214.585 123.593 214.344 123.837C209.601 123.837 205.755 129.848 205.755 137.262C205.755 144.677 209.601 150.688 214.344 150.688H221.787C226.531 150.688 230.376 144.677 230.376 137.262C230.376 129.848 226.531 123.837 221.787 123.837Z" fill="black"/>
<path d="M24.2851 64.0181L255.906 64.2173C260.113 64.2209 262.834 64.708 263.663 68.8477C266.509 83.0624 273.564 116.584 271.561 130.659L271 133.4C270.568 137.952 266.759 141.429 262.202 141.429H170.872C171.421 139.608 171.728 137.597 171.728 135.482C171.728 127.29 167.161 120.648 161.528 120.648C155.894 120.648 151.327 127.29 151.327 135.482C151.327 137.597 151.634 139.608 152.183 141.429H71.1619C71.7107 139.608 72.0173 137.597 72.0173 135.482C72.0173 127.29 67.4506 120.648 61.8172 120.648C56.1838 120.648 51.6171 127.29 51.6171 135.482C51.6171 137.597 51.9237 139.608 52.4725 141.429H24.2775C19.3961 141.429 15.439 137.458 15.439 132.559V69.2871C15.439 64.3854 19.4007 64.0139 24.2851 64.0181Z" fill="#023448"/>
<path opacity="0.5" d="M15.439 125.276H19.7042V136.744H16.4829C16.4829 136.744 15.439 135.011 15.439 132.873V125.276Z" fill="white"/>
<path d="M221.32 64.1873L216.974 57.6472C216.55 57.0088 215.834 56.625 215.067 56.625H77.4113C76.4985 56.625 75.6605 57.1295 75.2341 57.9358L72.0173 64.0179L221.32 64.1873Z" fill="#023448"/>
<path d="M139.43 134.523H142.709C143.344 134.523 143.859 134.009 143.859 133.375V133.375C143.859 132.74 143.344 132.226 142.709 132.226H139.43C138.795 132.226 138.28 132.74 138.28 133.375V133.375C138.28 134.009 138.795 134.523 139.43 134.523Z" fill="white"/>
<path d="M81.3914 134.504H84.6707C85.3057 134.504 85.8205 133.989 85.8205 133.355C85.8205 132.72 85.3057 132.206 84.6707 132.206H81.3914C80.7564 132.206 80.2416 132.72 80.2416 133.355C80.2416 133.989 80.7564 134.504 81.3914 134.504Z" fill="white"/>
<path d="M25.141 134.523H28.4202C29.0552 134.523 29.57 134.009 29.57 133.375V133.375C29.57 132.74 29.0552 132.226 28.4202 132.226H25.141C24.506 132.226 23.9912 132.74 23.9912 133.375V133.375C23.9912 134.009 24.506 134.523 25.141 134.523Z" fill="white"/>
<path d="M151.367 136.555H71.4585V136.932H151.367V136.555Z" fill="#263238"/>
<path d="M51.8776 136.555H16.483V136.932H51.8776V136.555Z" fill="#263238"/>
<path d="M45.6956 113.104H45.3183V136.852H45.6956V113.104Z" fill="#263238"/>
<path d="M22.4488 102.489H22.0715V136.743H22.4488V102.489Z" fill="#263238"/>
<path d="M76.6324 113.676H76.2551V136.393H76.6324V113.676Z" fill="#263238"/>
<path d="M146.942 114.159H146.565V136.743H146.942V114.159Z" fill="#263238"/>
<path opacity="0.2" d="M78.9017 130.006H144.383V116.449L78.9017 116.449V130.006Z" fill="black"/>
<path opacity="0.3" d="M176.095 56.625H215.136C215.903 56.625 216.644 57.15 217.068 57.7884L221.32 64.1873L171.537 64.0258L176.095 56.625Z" fill="white"/>
<path d="M175.516 136.852H198.616V67.7363H175.516V136.852Z" fill="#263238"/>
<path opacity="0.3" d="M176.957 124.054H197.152V72.5711H176.957V124.054Z" fill="white"/>
<path opacity="0.3" d="M176.957 74.2773L197.152 83.2777V98.3128C196.682 98.7827 176.957 88.2316 176.957 88.2316V74.2773Z" fill="white"/>
<path opacity="0.3" d="M176.957 91.6089L197.154 101.299L197.164 104.751L176.969 94.6702L176.957 91.6089Z" fill="white"/>
<path d="M190.306 134.504H193.586C194.221 134.504 194.736 133.989 194.736 133.355C194.736 132.72 194.221 132.206 193.586 132.206H190.306C189.671 132.206 189.157 132.72 189.157 133.355C189.157 133.989 189.671 134.504 190.306 134.504Z" fill="white"/>
<path d="M186.195 124.625H187.729V72.0008H186.195V124.625Z" fill="#263238"/>
<path opacity="0.2" d="M176.095 56.6252L171.537 64.026H72.0173L75.1379 58.0449C75.5932 57.1722 76.496 56.6246 77.4809 56.6235" fill="black"/>
<path opacity="0.2" d="M221.32 64.1875L72.0887 64.1709L72.8995 62.5605H220.23L221.32 64.1875Z" fill="black"/>
<path d="M166.935 58.981L165.117 61.8018L165.275 61.9037L167.094 59.083L166.935 58.981Z" fill="#263238"/>
<path d="M165.561 58.9814L163.742 61.8022L163.901 61.9042L165.719 59.0833L165.561 58.9814Z" fill="#263238"/>
<path d="M164.187 58.9814L162.368 61.8022L162.526 61.9042L164.345 59.0833L164.187 58.9814Z" fill="#263238"/>
<path d="M162.813 58.9814L160.994 61.8022L161.152 61.9042L162.971 59.0833L162.813 58.9814Z" fill="#263238"/>
<path d="M161.438 58.9814L159.62 61.8022L159.778 61.9042L161.597 59.0833L161.438 58.9814Z" fill="#263238"/>
<path d="M132.822 58.9439L131.006 61.7666L131.165 61.8686L132.981 59.0458L132.822 58.9439Z" fill="#263238"/>
<path d="M131.448 58.9439L129.632 61.7666L129.791 61.8686L131.606 59.0458L131.448 58.9439Z" fill="#263238"/>
<path d="M130.073 58.9439L128.258 61.7666L128.416 61.8686L130.232 59.0458L130.073 58.9439Z" fill="#263238"/>
<path d="M128.699 58.9439L126.883 61.7666L127.042 61.8686L128.858 59.0458L128.699 58.9439Z" fill="#263238"/>
<path d="M127.325 58.9439L125.509 61.7666L125.668 61.8686L127.484 59.0458L127.325 58.9439Z" fill="#263238"/>
<path d="M98.71 58.9796L96.8942 61.8022L97.053 61.9042L98.8687 59.0816L98.71 58.9796Z" fill="#263238"/>
<path d="M97.3357 58.9795L95.5199 61.8022L95.6787 61.9042L97.4945 59.0815L97.3357 58.9795Z" fill="#263238"/>
<path d="M95.9614 58.9795L94.1457 61.8022L94.3045 61.9042L96.1202 59.0815L95.9614 58.9795Z" fill="#263238"/>
<path d="M94.5873 58.9795L92.7715 61.8022L92.9303 61.9042L94.746 59.0815L94.5873 58.9795Z" fill="#263238"/>
<path d="M93.213 58.9795L91.3972 61.8022L91.556 61.9042L93.3718 59.0815L93.213 58.9795Z" fill="#263238"/>
<path d="M171.607 113.951H45.4748L37.3924 102.723L18.2496 102.427V67.7358H171.607V113.951Z" fill="#263238"/>
<path opacity="0.3" d="M148.009 108.627H169.089V72.0596H148.009V108.627Z" fill="white"/>
<path opacity="0.3" d="M148.042 73.0117L169.056 82.0121V97.0471C168.566 97.517 148.042 86.966 148.042 86.966V73.0117Z" fill="white"/>
<path opacity="0.3" d="M148.036 90.3433L169.052 100.034L169.062 103.486L148.048 93.4045L148.036 90.3433Z" fill="white"/>
<path opacity="0.3" d="M47.7682 108.568H74.9178V72.0005H40.9624L40.7451 99.5242L47.7682 108.568Z" fill="white"/>
<path opacity="0.3" d="M79.7484 108.568L143.676 108.568V72.0005H79.7484V108.568Z" fill="white"/>
<path opacity="0.3" d="M20.5176 98.2832H36.382V72.0006H20.5176L20.5176 98.2832Z" fill="white"/>
<path opacity="0.3" d="M143.676 89.1921L101.418 72.0005H79.7484V78.9015L143.676 104.751V89.1921Z" fill="white"/>
<path opacity="0.3" d="M74.9178 93.7815L40.8926 80.8506L40.937 75.2202L74.9178 88.2314V92.3534" fill="white"/>
<path opacity="0.3" d="M40.937 83.1211L74.9178 96.1324V98.2833L40.8925 85.1421L40.937 83.1211Z" fill="white"/>
<path d="M19.4611 78.7378L169.873 78.7378V77.337L19.4611 77.337V78.7378Z" fill="#263238"/>
<path opacity="0.3" d="M263.663 68.8477C266.509 83.0624 273.564 116.584 271.561 130.659L271 133.4C270.568 137.952 266.759 141.429 262.202 141.429H204.401L200.348 64.1709L255.906 64.2173C260.113 64.2209 262.834 64.7079 263.663 68.8477Z" fill="white"/>
<path opacity="0.4" d="M269.992 124.73C269.992 124.73 269.217 129.85 265.344 130.386C261.472 130.921 251.581 130.505 251.581 130.505L252.326 128.603C253.173 126.44 255.243 125 257.568 124.958L269.992 124.73Z" fill="white"/>
<path opacity="0.4" d="M212.317 124.73C212.317 124.73 213.092 129.85 216.964 130.386C220.837 130.921 230.727 130.505 230.727 130.505L229.891 128.37C229.099 126.348 227.165 125.002 224.991 124.962L212.317 124.73Z" fill="white"/>
<path d="M233.757 141.429H250.766V136.481H233.757V141.429Z" fill="#263238"/>
<path d="M263.509 138.536C263.509 139.269 263.952 139.863 264.499 139.863C265.045 139.863 265.488 139.269 265.488 138.536C265.488 137.803 265.045 137.208 264.499 137.208C263.952 137.208 263.509 137.803 263.509 138.536Z" fill="white"/>
<path d="M260.556 138.536C260.556 139.025 260.851 139.421 261.216 139.421C261.58 139.421 261.875 139.025 261.875 138.536C261.875 138.047 261.58 137.651 261.216 137.651C260.851 137.651 260.556 138.047 260.556 138.536Z" fill="white"/>
<path d="M254.799 141.429H254.422C254.422 138.358 256.922 135.86 259.995 135.86H270.327V136.237H259.995C257.13 136.237 254.799 138.566 254.799 141.429Z" fill="#263238"/>
<path d="M218.017 138.536C218.017 139.269 217.574 139.863 217.028 139.863C216.481 139.863 216.038 139.269 216.038 138.536C216.038 137.803 216.481 137.208 217.028 137.208C217.574 137.208 218.017 137.803 218.017 138.536Z" fill="white"/>
<path d="M220.311 139.421C220.675 139.421 220.971 139.025 220.971 138.536C220.971 138.047 220.675 137.651 220.311 137.651C219.946 137.651 219.651 138.047 219.651 138.536C219.651 139.025 219.946 139.421 220.311 139.421Z" fill="white"/>
<path d="M227.104 141.429H226.727C226.727 138.566 224.396 136.237 221.531 136.237H204.095V135.86H221.531C224.604 135.86 227.104 138.358 227.104 141.429Z" fill="#263238"/>
<path opacity="0.4" d="M262.185 127.67C262.185 129.026 263.285 130.125 264.643 130.125C266 130.125 267.101 129.026 267.101 127.67C267.101 126.313 266 125.214 264.643 125.214C263.285 125.214 262.185 126.313 262.185 127.67Z" fill="white"/>
<path opacity="0.4" d="M216.6 127.67C216.6 129.026 217.7 130.125 219.058 130.125C220.415 130.125 221.515 129.026 221.515 127.67C221.515 126.313 220.415 125.214 219.058 125.214C217.7 125.214 216.6 126.313 216.6 127.67Z" fill="white"/>
<path d="M260.899 67.7354L268.493 112.682C268.872 114.925 267.141 116.97 264.864 116.97H215.882C212.995 116.97 210.556 114.831 210.182 111.971L204.401 67.7354H260.899Z" fill="#263238"/>
<path opacity="0.3" d="M267.101 108.567L261.477 75.0674H205.958L210.643 108.734L267.101 108.567Z" fill="white"/>
<path opacity="0.3" d="M225.884 75.0674L264.125 90.8433L265.896 101.395L205.958 75.0674H225.884Z" fill="white"/>
<path opacity="0.3" d="M206.505 78.9946L266.626 105.279L267.101 108.567L207.009 82.6174L206.505 78.9946Z" fill="white"/>
<path opacity="0.5" d="M206.451 73.8145H261.076L260.05 69.1738H205.958L206.451 73.8145Z" fill="black"/>
<path d="M225.174 72.4209H252.603V70.9596H225.174V72.4209Z" fill="white"/>
<path d="M221.856 73.1587H223.725V70.2222H221.856V73.1587Z" fill="white"/>
<path d="M219.662 73.1587H221.453V70.2222H219.662V73.1587Z" fill="white"/>
<path d="M253.638 121.69C233.497 121.69 203.804 121.684 203.356 121.684V121.307C204.031 121.307 270.88 121.32 271.84 121.307L271.845 121.684C271.523 121.688 263.793 121.69 253.638 121.69Z" fill="#263238"/>
<path d="M272.688 93.4465C274.626 93.4465 276.197 91.8767 276.197 89.9403V77.5995C276.197 75.6631 274.626 74.0933 272.688 74.0933C270.75 74.0933 269.178 75.6631 269.178 77.5995V89.9403C269.178 91.8767 270.75 93.4465 272.688 93.4465Z" fill="#023448"/>
<path d="M273.526 75.2884C273.526 75.2884 272.614 71.9878 270.279 71.6464C267.944 71.3049 263.786 71.6464 263.786 71.6464V73.3915C263.786 73.3915 268.57 73.2018 269.368 73.3915C270.165 73.5812 271.076 76.0281 271.076 76.0281L273.526 75.2884Z" fill="#023448"/>
<g opacity="0.3">
<path d="M272.688 93.4465C274.626 93.4465 276.197 91.8767 276.197 89.9403V77.5995C276.197 75.6631 274.626 74.0933 272.688 74.0933C270.75 74.0933 269.178 75.6631 269.178 77.5995V89.9403C269.178 91.8767 270.75 93.4465 272.688 93.4465Z" fill="white"/>
<path d="M273.526 75.2884C273.526 75.2884 272.614 71.9878 270.279 71.6464C267.944 71.3049 263.786 71.6464 263.786 71.6464V73.3915C263.786 73.3915 268.57 73.2018 269.368 73.3915C270.165 73.5812 271.076 76.0281 271.076 76.0281L273.526 75.2884Z" fill="white"/>
</g>
<path d="M213.303 94.5208C215.241 94.5208 216.812 92.951 216.812 91.0145V78.6738C216.812 76.7373 215.241 75.1675 213.303 75.1675C211.365 75.1675 209.794 76.7373 209.794 78.6738V91.0145C209.794 92.951 211.365 94.5208 213.303 94.5208Z" fill="#023448"/>
<path d="M214.141 76.3626C214.141 76.3626 213.229 73.0621 210.894 72.7206C208.559 72.3792 204.401 72.7206 204.401 72.7206V74.4657C204.401 74.4657 209.185 74.276 209.983 74.4657C210.78 74.6554 211.692 77.1024 211.692 77.1024L214.141 76.3626Z" fill="#023448"/>
<g opacity="0.3">
<path d="M213.303 94.5208C215.241 94.5208 216.812 92.951 216.812 91.0145V78.6738C216.812 76.7373 215.241 75.1675 213.303 75.1675C211.365 75.1675 209.794 76.7373 209.794 78.6738V91.0145C209.794 92.951 211.365 94.5208 213.303 94.5208Z" fill="white"/>
<path d="M214.141 76.3626C214.141 76.3626 213.229 73.0621 210.894 72.7206C208.559 72.3792 204.401 72.7206 204.401 72.7206V74.4657C204.401 74.4657 209.185 74.276 209.983 74.4657C210.78 74.6554 211.692 77.1024 211.692 77.1024L214.141 76.3626Z" fill="white"/>
</g>
</svg>
