<svg width="283" height="166" viewBox="0 0 283 166" fill="none" xmlns="http://www.w3.org/2000/svg">
<path d="M254.179 112.153H185.989C184.77 112.153 183.777 111.081 183.777 109.762V2.39064C183.777 1.07236 184.77 0 185.989 0H254.179C255.398 0 256.39 1.07236 256.39 2.39064V109.762C256.39 111.081 255.398 112.153 254.179 112.153ZM185.989 0.101958C184.821 0.101958 183.872 1.12872 183.872 2.39064V109.762C183.872 111.024 184.821 112.051 185.989 112.051H254.179C255.346 112.051 256.296 111.024 256.296 109.762V2.39064C256.296 1.12872 255.346 0.101958 254.179 0.101958H185.989Z" fill="#E0E0E0"/>
<path d="M175.546 112.153H107.356C106.136 112.153 105.144 111.081 105.144 109.762V2.39064C105.144 1.07236 106.136 0 107.356 0H175.546C176.765 0 177.757 1.07236 177.757 2.39064V109.762C177.757 111.081 176.765 112.153 175.546 112.153ZM107.356 0.101958C106.188 0.101958 105.238 1.12872 105.238 2.39064V109.762C105.238 111.024 106.188 112.051 107.356 112.051H175.546C176.713 112.051 177.663 111.024 177.663 109.762V2.39064C177.663 1.12872 176.713 0.101958 175.546 0.101958H107.356Z" fill="#E0E0E0"/>
<path d="M96.9627 112.153H28.7728C27.5533 112.153 26.5613 111.081 26.5613 109.762V2.39064C26.5613 1.07236 27.5533 0 28.7728 0H96.9627C98.1822 0 99.1744 1.07236 99.1744 2.39064V109.762C99.1744 111.081 98.1822 112.153 96.9627 112.153ZM28.7728 0.101958C27.6054 0.101958 26.6556 1.12872 26.6556 2.39064V109.762C26.6556 111.024 27.6054 112.051 28.7728 112.051H96.9627C98.1303 112.051 99.0801 111.024 99.0801 109.762V2.39064C99.0801 1.12872 98.1303 0.101958 96.9627 0.101958H28.7728Z" fill="#E0E0E0"/>
<path d="M282.952 137.06H0V137.109H282.952V137.06Z" fill="#E0E0E0"/>
<path d="M267.618 149.04H246.593V149.212H267.618V149.04Z" fill="#EBEBEB"/>
<path d="M192.283 150.901H186.764V151.073H192.283V150.901Z" fill="#EBEBEB"/>
<path d="M42.7517 143.82H15.3339V143.992H42.7517V143.82Z" fill="#EBEBEB"/>
<path d="M52.4232 143.82H48.4032V143.992H52.4232V143.82Z" fill="#EBEBEB"/>
<path d="M124.951 146.718H65.4884V146.889H124.951V146.718Z" fill="#EBEBEB"/>
<path d="M125.371 13.4069C124.563 12.7476 123.386 12.6729 122.513 13.2257C121.354 10.6944 118.125 9.57731 115.822 10.911C115.221 8.18338 112.735 6.08687 110.142 6.12052C107.548 6.15424 105.109 8.31482 104.57 11.0573C104.484 11.4931 104.427 11.9706 104.139 12.289C103.67 12.8062 102.888 12.6326 102.221 12.5763C100.12 12.3992 98.0066 13.9933 97.4354 16.1854L126.36 16.0716C126.614 15.0129 126.178 14.0661 125.371 13.4069Z" fill="#E6E6E6"/>
<path d="M155.188 27.4818C154.677 27.0637 153.93 27.0163 153.376 27.3668C152.641 25.7618 150.594 25.0535 149.134 25.8991C148.753 24.1696 147.176 22.8403 145.532 22.8616C143.887 22.883 142.341 24.253 141.999 25.9919C141.944 26.2683 141.908 26.571 141.726 26.7729C141.428 27.1009 140.933 26.9908 140.509 26.9551C139.177 26.8428 137.837 27.8536 137.475 29.2436L155.816 29.1714C155.977 28.5001 155.7 27.8998 155.188 27.4818Z" fill="#E6E6E6"/>
<path d="M208.868 9.39094C208.356 8.97287 207.609 8.92552 207.056 9.27601C206.321 7.67098 204.274 6.96266 202.813 7.8083C202.433 6.0788 200.856 4.74943 199.212 4.77076C197.567 4.79213 196.021 6.16212 195.678 7.90113C195.624 8.17743 195.588 8.48021 195.405 8.68208C195.108 9.01002 194.612 8.89999 194.189 8.86426C192.857 8.75199 191.517 9.76276 191.155 11.1528L209.496 11.0806C209.656 10.4093 209.38 9.80897 208.868 9.39094Z" fill="#F5F5F5"/>
<path d="M44.9607 20.4977C44.1534 19.8384 42.9757 19.7637 42.1027 20.3165C40.944 17.7852 37.715 16.6681 35.4121 18.0018C34.8113 15.2742 32.3253 13.1777 29.7318 13.2113C27.1382 13.2451 24.6996 15.4056 24.1597 18.1481C24.0739 18.5839 24.0171 19.0614 23.7287 19.3798C23.2603 19.897 22.4782 19.7235 21.8106 19.6671C19.7102 19.49 17.5968 21.0841 17.0255 23.2763L45.9505 23.1624C46.2038 22.1037 45.7678 21.1569 44.9607 20.4977Z" fill="#E6E6E6"/>
<path d="M81.2068 36.7299C80.659 36.2825 79.8598 36.2318 79.2674 36.6069C78.4811 34.8892 76.2899 34.1312 74.7271 35.0362C74.3194 33.1853 72.6324 31.7625 70.8725 31.7854C69.1126 31.8083 67.4577 33.2745 67.0913 35.1355C67.0331 35.4312 66.9946 35.7553 66.7989 35.9713C66.481 36.3223 65.9503 36.2045 65.4973 36.1663C64.0719 36.0461 62.6378 37.1278 62.2501 38.6154L81.8785 38.5382C82.0504 37.8197 81.7545 37.1773 81.2068 36.7299Z" fill="#F5F5F5"/>
<path d="M61.5412 72.5834C60.9935 72.136 60.1943 72.0853 59.6019 72.4604C58.8156 70.7428 56.6244 69.9847 55.0616 70.8897C54.6539 69.0387 52.9669 67.6161 51.207 67.6389C49.447 67.6618 47.7922 69.128 47.4258 70.989C47.3676 71.2847 47.329 71.6088 47.1334 71.8248C46.8155 72.1758 46.2847 72.058 45.8317 72.0198C44.4064 71.8996 42.9722 72.9813 42.5846 74.4689L62.213 74.3917C62.3849 73.6732 62.089 73.0307 61.5412 72.5834Z" fill="#F5F5F5"/>
<path d="M264.126 26.6195C263.579 26.1722 262.779 26.1214 262.187 26.4966C261.401 24.7789 259.209 24.0208 257.647 24.9258C257.239 23.0749 255.552 21.6522 253.792 21.6751C252.032 21.6979 250.377 23.1641 250.011 25.0251C249.953 25.3209 249.914 25.6449 249.718 25.861C249.401 26.2119 248.87 26.0942 248.417 26.0559C246.991 25.9357 245.557 27.0175 245.17 28.5051L264.798 28.4278C264.97 27.7094 264.674 27.0669 264.126 26.6195Z" fill="#F5F5F5"/>
<path d="M251.672 72.8368L251.354 54.8036H241.588V58.9161H234.397V13.8691H220.571V31.5993H216.423V22.7455H205.635V65.9239H190.423V50.6685H180.885V17.5926H169.114V39.6432H158.05V87.1466H149.479V64.0147H140.627V49.1303H131.225V37.7023L120.734 43.4299V74.004H109.67V67.6974H94.8916V112.011L266.914 112.097V72.8368H251.672Z" fill="#EBEBEB"/>
<path d="M141.348 112.035V46.1035H129.594V112.097C133.314 112.002 141.348 112.035 141.348 112.035Z" fill="#E6E6E6"/>
<path d="M130.643 112.098V75.8369H106.453V112.018L130.643 112.098Z" fill="#FAFAFA"/>
<path d="M160.035 112.043V58.8115H146.331V112.037L160.035 112.043Z" fill="#E0E0E0"/>
<path d="M149.033 60.8975H147.372V64.4444H149.033V60.8975Z" fill="#FAFAFA"/>
<path d="M152.355 60.8975H150.694V64.4444H152.355V60.8975Z" fill="#FAFAFA"/>
<path d="M155.677 60.8975H154.016V64.4444H155.677V60.8975Z" fill="#FAFAFA"/>
<path d="M158.999 60.8975H157.338V64.4444H158.999V60.8975Z" fill="#FAFAFA"/>
<path d="M149.033 66.8467H147.372V70.3936H149.033V66.8467Z" fill="#FAFAFA"/>
<path d="M152.355 66.8467H150.694V70.3936H152.355V66.8467Z" fill="#FAFAFA"/>
<path d="M155.677 66.8467H154.016V70.3936H155.677V66.8467Z" fill="#FAFAFA"/>
<path d="M158.999 66.8467H157.338V70.3936H158.999V66.8467Z" fill="#FAFAFA"/>
<path d="M149.033 72.792H147.372V76.3389H149.033V72.792Z" fill="#FAFAFA"/>
<path d="M152.355 72.792H150.694V76.3389H152.355V72.792Z" fill="#FAFAFA"/>
<path d="M155.677 72.792H154.016V76.3389H155.677V72.792Z" fill="#FAFAFA"/>
<path d="M158.999 72.792H157.338V76.3389H158.999V72.792Z" fill="#FAFAFA"/>
<path d="M149.033 78.7363H147.372V82.2833H149.033V78.7363Z" fill="#FAFAFA"/>
<path d="M152.355 78.7363H150.694V82.2833H152.355V78.7363Z" fill="#FAFAFA"/>
<path d="M155.677 78.7363H154.016V82.2833H155.677V78.7363Z" fill="#FAFAFA"/>
<path d="M158.999 78.7363H157.338V82.2833H158.999V78.7363Z" fill="#FAFAFA"/>
<path d="M149.033 84.6807H147.372V88.2276H149.033V84.6807Z" fill="#FAFAFA"/>
<path d="M152.355 84.6807H150.694V88.2276H152.355V84.6807Z" fill="#FAFAFA"/>
<path d="M155.677 84.6807H154.016V88.2276H155.677V84.6807Z" fill="#FAFAFA"/>
<path d="M158.999 84.6807H157.338V88.2276H158.999V84.6807Z" fill="#FAFAFA"/>
<path d="M149.033 90.626H147.372V94.1729H149.033V90.626Z" fill="#FAFAFA"/>
<path d="M152.355 90.626H150.694V94.1729H152.355V90.626Z" fill="#FAFAFA"/>
<path d="M155.677 90.626H154.016V94.1729H155.677V90.626Z" fill="#FAFAFA"/>
<path d="M158.999 90.626H157.338V94.1729H158.999V90.626Z" fill="#FAFAFA"/>
<path d="M149.033 96.5713H147.372V100.118H149.033V96.5713Z" fill="#FAFAFA"/>
<path d="M152.355 96.5713H150.694V100.118H152.355V96.5713Z" fill="#FAFAFA"/>
<path d="M155.677 96.5713H154.016V100.118H155.677V96.5713Z" fill="#FAFAFA"/>
<path d="M158.999 96.5713H157.338V100.118H158.999V96.5713Z" fill="#FAFAFA"/>
<path d="M149.033 102.52H147.372V106.067H149.033V102.52Z" fill="#FAFAFA"/>
<path d="M152.355 102.52H150.694V106.067H152.355V102.52Z" fill="#FAFAFA"/>
<path d="M155.677 102.52H154.016V106.067H155.677V102.52Z" fill="#FAFAFA"/>
<path d="M158.999 102.52H157.338V106.067H158.999V102.52Z" fill="#FAFAFA"/>
<path d="M207.654 112.068V51.2295H179.242V112.088C179.242 112.088 207.437 112.097 207.654 112.068Z" fill="#F5F5F5"/>
<path d="M184.819 53.6543H181.375V57.7396H184.819V53.6543Z" fill="#E6E6E6"/>
<path d="M191.713 53.6543H188.268V57.7396H191.713V53.6543Z" fill="#E6E6E6"/>
<path d="M198.602 53.6543H195.157V57.7396H198.602V53.6543Z" fill="#E6E6E6"/>
<path d="M205.495 53.6543H202.05V57.7396H205.495V53.6543Z" fill="#E6E6E6"/>
<path d="M184.819 60.5088H181.375V64.5941H184.819V60.5088Z" fill="#E6E6E6"/>
<path d="M191.713 60.5088H188.268V64.5941H191.713V60.5088Z" fill="#E6E6E6"/>
<path d="M198.602 60.5088H195.157V64.5941H198.602V60.5088Z" fill="#E6E6E6"/>
<path d="M205.495 60.5088H202.05V64.5941H205.495V60.5088Z" fill="#E6E6E6"/>
<path d="M184.819 67.3584H181.375V71.4437H184.819V67.3584Z" fill="#E6E6E6"/>
<path d="M191.713 67.3584H188.268V71.4437H191.713V67.3584Z" fill="#E6E6E6"/>
<path d="M198.602 67.3584H195.157V71.4437H198.602V67.3584Z" fill="#E6E6E6"/>
<path d="M205.495 67.3584H202.05V71.4437H205.495V67.3584Z" fill="#E6E6E6"/>
<path d="M184.819 74.208H181.375V78.2934H184.819V74.208Z" fill="#E6E6E6"/>
<path d="M191.713 74.208H188.268V78.2934H191.713V74.208Z" fill="#E6E6E6"/>
<path d="M198.602 74.208H195.157V78.2934H198.602V74.208Z" fill="#E6E6E6"/>
<path d="M205.495 74.208H202.05V78.2934H205.495V74.208Z" fill="#E6E6E6"/>
<path d="M184.819 81.0615H181.375V85.1468H184.819V81.0615Z" fill="#E6E6E6"/>
<path d="M191.713 81.0615H188.268V85.1468H191.713V81.0615Z" fill="#E6E6E6"/>
<path d="M198.602 81.0615H195.157V85.1468H198.602V81.0615Z" fill="#E6E6E6"/>
<path d="M205.495 81.0615H202.05V85.1468H205.495V81.0615Z" fill="#E6E6E6"/>
<path d="M184.819 87.9111H181.375V91.9964H184.819V87.9111Z" fill="#E6E6E6"/>
<path d="M191.713 87.9111H188.268V91.9964H191.713V87.9111Z" fill="#E6E6E6"/>
<path d="M198.602 87.9111H195.157V91.9964H198.602V87.9111Z" fill="#E6E6E6"/>
<path d="M205.495 87.9111H202.05V91.9964H205.495V87.9111Z" fill="#E6E6E6"/>
<path d="M184.819 94.7646H181.375V98.8499H184.819V94.7646Z" fill="#E6E6E6"/>
<path d="M191.713 94.7646H188.268V98.8499H191.713V94.7646Z" fill="#E6E6E6"/>
<path d="M198.602 94.7646H195.157V98.8499H198.602V94.7646Z" fill="#E6E6E6"/>
<path d="M205.495 94.7646H202.05V98.8499H205.495V94.7646Z" fill="#E6E6E6"/>
<path d="M184.819 101.614H181.375V105.7H184.819V101.614Z" fill="#E6E6E6"/>
<path d="M191.713 101.614H188.268V105.7H191.713V101.614Z" fill="#E6E6E6"/>
<path d="M198.602 101.614H195.157V105.7H198.602V101.614Z" fill="#E6E6E6"/>
<path d="M205.495 101.614H202.05V105.7H205.495V101.614Z" fill="#E6E6E6"/>
<path d="M134.935 50.585H131.761V54.3496H134.935V50.585Z" fill="#FAFAFA"/>
<path d="M134.935 56.8965H131.761V60.6611H134.935V56.8965Z" fill="#FAFAFA"/>
<path d="M134.935 63.2129H131.761V66.9775H134.935V63.2129Z" fill="#FAFAFA"/>
<path d="M134.935 69.5244H131.761V73.289H134.935V69.5244Z" fill="#FAFAFA"/>
<path d="M134.935 75.8369H131.761V79.6015H134.935V75.8369Z" fill="#FAFAFA"/>
<path d="M134.935 82.1523H131.761V85.917H134.935V82.1523Z" fill="#FAFAFA"/>
<path d="M134.935 88.4639H131.761V92.2285H134.935V88.4639Z" fill="#FAFAFA"/>
<path d="M134.935 94.7803H131.761V98.5449H134.935V94.7803Z" fill="#FAFAFA"/>
<path d="M139.181 50.585H136.007V54.3496H139.181V50.585Z" fill="#FAFAFA"/>
<path d="M139.181 56.8965H136.007V60.6611H139.181V56.8965Z" fill="#FAFAFA"/>
<path d="M139.181 63.2129H136.007V66.9775H139.181V63.2129Z" fill="#FAFAFA"/>
<path d="M139.181 69.5244H136.007V73.289H139.181V69.5244Z" fill="#FAFAFA"/>
<path d="M139.181 75.8369H136.007V79.6015H139.181V75.8369Z" fill="#FAFAFA"/>
<path d="M139.181 82.1523H136.007V85.917H139.181V82.1523Z" fill="#FAFAFA"/>
<path d="M139.181 88.4639H136.007V92.2285H139.181V88.4639Z" fill="#FAFAFA"/>
<path d="M139.181 94.7803H136.007V98.5449H139.181V94.7803Z" fill="#FAFAFA"/>
<path d="M175.251 21.9678H171.806V26.0531H175.251V21.9678Z" fill="#FAFAFA"/>
<path d="M175.251 28.8174H171.806V32.9026H175.251V28.8174Z" fill="#FAFAFA"/>
<path d="M175.251 35.2012H171.806V39.2865H175.251V35.2012Z" fill="#FAFAFA"/>
<path d="M175.251 42.0508H171.806V46.1361H175.251V42.0508Z" fill="#FAFAFA"/>
<path d="M175.251 48.9004H171.806V52.9857H175.251V48.9004Z" fill="#FAFAFA"/>
<path d="M175.251 55.7539H171.806V59.8393H175.251V55.7539Z" fill="#FAFAFA"/>
<path d="M175.251 62.6035H171.806V66.6888H175.251V62.6035Z" fill="#FAFAFA"/>
<path d="M175.251 69.457H171.806V73.5423H175.251V69.457Z" fill="#FAFAFA"/>
<path d="M226.992 16.0273H223.548V20.1126H226.992V16.0273Z" fill="#FAFAFA"/>
<path d="M226.992 22.877H223.548V26.9623H226.992V22.877Z" fill="#FAFAFA"/>
<path d="M226.992 29.7305H223.548V33.8158H226.992V29.7305Z" fill="#FAFAFA"/>
<path d="M226.992 36.5811H223.548V40.6664H226.992V36.5811Z" fill="#FAFAFA"/>
<path d="M226.992 43.4346H223.548V47.5199H226.992V43.4346Z" fill="#FAFAFA"/>
<path d="M226.992 50.2842H223.548V54.3694H226.992V50.2842Z" fill="#FAFAFA"/>
<path d="M226.992 57.1377H223.548V61.223H226.992V57.1377Z" fill="#FAFAFA"/>
<path d="M226.992 63.9873H223.548V68.0725H226.992V63.9873Z" fill="#FAFAFA"/>
<path d="M251.672 47.502H230.926V112.098H251.672V47.502Z" fill="#E6E6E6"/>
<path d="M240.075 50.6875H233.995V54.7728H240.075V50.6875Z" fill="#FAFAFA"/>
<path d="M240.075 57.541H233.995V61.6263H240.075V57.541Z" fill="#FAFAFA"/>
<path d="M240.075 64.3906H233.995V68.4759H240.075V64.3906Z" fill="#FAFAFA"/>
<path d="M240.075 71.2441H233.995V75.3294H240.075V71.2441Z" fill="#FAFAFA"/>
<path d="M240.075 78.0938H233.995V82.1791H240.075V78.0938Z" fill="#FAFAFA"/>
<path d="M240.075 84.9434H233.995V89.0287H240.075V84.9434Z" fill="#FAFAFA"/>
<path d="M240.075 91.7969H233.995V95.8822H240.075V91.7969Z" fill="#FAFAFA"/>
<path d="M240.075 98.6465H233.995V102.732H240.075V98.6465Z" fill="#FAFAFA"/>
<path d="M248.21 50.6875H242.13V54.7728H248.21V50.6875Z" fill="#FAFAFA"/>
<path d="M248.21 57.541H242.13V61.6263H248.21V57.541Z" fill="#FAFAFA"/>
<path d="M248.21 64.3906H242.13V68.4759H248.21V64.3906Z" fill="#FAFAFA"/>
<path d="M248.21 71.2441H242.13V75.3294H248.21V71.2441Z" fill="#FAFAFA"/>
<path d="M248.21 78.0938H242.13V82.1791H248.21V78.0938Z" fill="#FAFAFA"/>
<path d="M248.21 84.9434H242.13V89.0287H248.21V84.9434Z" fill="#FAFAFA"/>
<path d="M248.21 91.7969H242.13V95.8822H248.21V91.7969Z" fill="#FAFAFA"/>
<path d="M248.21 98.6465H242.13V102.732H248.21V98.6465Z" fill="#FAFAFA"/>
<path d="M219.614 112.074V67.3584H210.565V112.069L219.614 112.074Z" fill="#E0E0E0"/>
<path d="M212.349 69.1689H211.252V72.2137H212.349V69.1689Z" fill="#FAFAFA"/>
<path d="M214.543 69.1689H213.446V72.2137H214.543V69.1689Z" fill="#FAFAFA"/>
<path d="M216.733 69.1689H215.636V72.2137H216.733V69.1689Z" fill="#FAFAFA"/>
<path d="M218.927 69.1689H217.83V72.2137H218.927V69.1689Z" fill="#FAFAFA"/>
<path d="M212.349 74.2754H211.252V77.3201H212.349V74.2754Z" fill="#FAFAFA"/>
<path d="M214.543 74.2754H213.446V77.3201H214.543V74.2754Z" fill="#FAFAFA"/>
<path d="M216.733 74.2754H215.636V77.3201H216.733V74.2754Z" fill="#FAFAFA"/>
<path d="M218.927 74.2754H217.83V77.3201H218.927V74.2754Z" fill="#FAFAFA"/>
<path d="M212.349 79.3828H211.252V82.4276H212.349V79.3828Z" fill="#FAFAFA"/>
<path d="M214.543 79.3828H213.446V82.4276H214.543V79.3828Z" fill="#FAFAFA"/>
<path d="M216.733 79.3828H215.636V82.4276H216.733V79.3828Z" fill="#FAFAFA"/>
<path d="M218.927 79.3828H217.83V82.4276H218.927V79.3828Z" fill="#FAFAFA"/>
<path d="M212.349 84.4912H211.252V87.5359H212.349V84.4912Z" fill="#FAFAFA"/>
<path d="M214.543 84.4912H213.446V87.5359H214.543V84.4912Z" fill="#FAFAFA"/>
<path d="M216.733 84.4912H215.636V87.5359H216.733V84.4912Z" fill="#FAFAFA"/>
<path d="M218.927 84.4912H217.83V87.5359H218.927V84.4912Z" fill="#FAFAFA"/>
<path d="M212.349 89.6035H211.252V92.6483H212.349V89.6035Z" fill="#FAFAFA"/>
<path d="M214.543 89.6035H213.446V92.6483H214.543V89.6035Z" fill="#FAFAFA"/>
<path d="M216.733 89.6035H215.636V92.6483H216.733V89.6035Z" fill="#FAFAFA"/>
<path d="M218.927 89.6035H217.83V92.6483H218.927V89.6035Z" fill="#FAFAFA"/>
<path d="M212.349 94.7119H211.252V97.7567H212.349V94.7119Z" fill="#FAFAFA"/>
<path d="M214.543 94.7119H213.446V97.7567H214.543V94.7119Z" fill="#FAFAFA"/>
<path d="M216.733 94.7119H215.636V97.7567H216.733V94.7119Z" fill="#FAFAFA"/>
<path d="M218.927 94.7119H217.83V97.7567H218.927V94.7119Z" fill="#FAFAFA"/>
<path d="M212.349 99.8184H211.252V102.863H212.349V99.8184Z" fill="#FAFAFA"/>
<path d="M214.543 99.8184H213.446V102.863H214.543V99.8184Z" fill="#FAFAFA"/>
<path d="M216.733 99.8184H215.636V102.863H216.733V99.8184Z" fill="#FAFAFA"/>
<path d="M218.927 99.8184H217.83V102.863H218.927V99.8184Z" fill="#FAFAFA"/>
<path d="M212.349 104.927H211.252V107.972H212.349V104.927Z" fill="#FAFAFA"/>
<path d="M214.543 104.927H213.446V107.972H214.543V104.927Z" fill="#FAFAFA"/>
<path d="M216.733 104.927H215.636V107.972H216.733V104.927Z" fill="#FAFAFA"/>
<path d="M218.927 104.927H217.83V107.972H218.927V104.927Z" fill="#FAFAFA"/>
<path d="M111.218 77.3525H108.285V79.9087H111.218V77.3525Z" fill="#E6E6E6"/>
<path d="M117.084 77.3525H114.151V79.9087H117.084V77.3525Z" fill="#E6E6E6"/>
<path d="M122.946 77.3525H120.013V79.9087H122.946V77.3525Z" fill="#E6E6E6"/>
<path d="M128.812 77.3525H125.879V79.9087H128.812V77.3525Z" fill="#E6E6E6"/>
<path d="M111.218 81.6367H108.285V84.1928H111.218V81.6367Z" fill="#E6E6E6"/>
<path d="M117.084 81.6367H114.151V84.1928H117.084V81.6367Z" fill="#E6E6E6"/>
<path d="M122.946 81.6367H120.013V84.1928H122.946V81.6367Z" fill="#E6E6E6"/>
<path d="M128.812 81.6367H125.879V84.1928H128.812V81.6367Z" fill="#E6E6E6"/>
<path d="M111.218 85.9209H108.285V88.477H111.218V85.9209Z" fill="#E6E6E6"/>
<path d="M117.084 85.9209H114.151V88.477H117.084V85.9209Z" fill="#E6E6E6"/>
<path d="M122.946 85.9209H120.013V88.477H122.946V85.9209Z" fill="#E6E6E6"/>
<path d="M128.812 85.9209H125.879V88.477H128.812V85.9209Z" fill="#E6E6E6"/>
<path d="M111.218 90.2051H108.285V92.7612H111.218V90.2051Z" fill="#E6E6E6"/>
<path d="M117.084 90.2051H114.151V92.7612H117.084V90.2051Z" fill="#E6E6E6"/>
<path d="M122.946 90.2051H120.013V92.7612H122.946V90.2051Z" fill="#E6E6E6"/>
<path d="M128.812 90.2051H125.879V92.7612H128.812V90.2051Z" fill="#E6E6E6"/>
<path d="M111.218 94.4844H108.285V97.0405H111.218V94.4844Z" fill="#E6E6E6"/>
<path d="M117.084 94.4844H114.151V97.0405H117.084V94.4844Z" fill="#E6E6E6"/>
<path d="M122.946 94.4844H120.013V97.0405H122.946V94.4844Z" fill="#E6E6E6"/>
<path d="M128.812 94.4844H125.879V97.0405H128.812V94.4844Z" fill="#E6E6E6"/>
<path d="M111.218 98.7695H108.285V101.326H111.218V98.7695Z" fill="#E6E6E6"/>
<path d="M117.084 98.7695H114.151V101.326H117.084V98.7695Z" fill="#E6E6E6"/>
<path d="M122.946 98.7695H120.013V101.326H122.946V98.7695Z" fill="#E6E6E6"/>
<path d="M128.812 98.7695H125.879V101.326H128.812V98.7695Z" fill="#E6E6E6"/>
<path d="M111.218 103.053H108.285V105.609H111.218V103.053Z" fill="#E6E6E6"/>
<path d="M117.084 103.053H114.151V105.609H117.084V103.053Z" fill="#E6E6E6"/>
<path d="M122.946 103.053H120.013V105.609H122.946V103.053Z" fill="#E6E6E6"/>
<path d="M128.812 103.053H125.879V105.609H128.812V103.053Z" fill="#E6E6E6"/>
<path d="M97.6678 112.055V30.7578H118.596V112.044L97.6678 112.055Z" fill="#E0E0E0"/>
<path d="M117.007 33.9434H114.471V39.3603H117.007V33.9434Z" fill="#FAFAFA"/>
<path d="M111.934 33.9434H109.397V39.3603H111.934V33.9434Z" fill="#FAFAFA"/>
<path d="M106.86 33.9434H104.324V39.3603H106.86V33.9434Z" fill="#FAFAFA"/>
<path d="M101.787 33.9434H99.25V39.3603H101.787V33.9434Z" fill="#FAFAFA"/>
<path d="M117.007 43.0283H114.471V48.4452H117.007V43.0283Z" fill="#FAFAFA"/>
<path d="M111.934 43.0283H109.397V48.4452H111.934V43.0283Z" fill="#FAFAFA"/>
<path d="M106.86 43.0283H104.324V48.4452H106.86V43.0283Z" fill="#FAFAFA"/>
<path d="M101.787 43.0283H99.25V48.4452H101.787V43.0283Z" fill="#FAFAFA"/>
<path d="M117.007 52.1084H114.471V57.5253H117.007V52.1084Z" fill="#FAFAFA"/>
<path d="M111.934 52.1084H109.397V57.5253H111.934V52.1084Z" fill="#FAFAFA"/>
<path d="M106.86 52.1084H104.324V57.5253H106.86V52.1084Z" fill="#FAFAFA"/>
<path d="M101.787 52.1084H99.25V57.5253H101.787V52.1084Z" fill="#FAFAFA"/>
<path d="M117.007 61.1865H114.471V66.6035H117.007V61.1865Z" fill="#FAFAFA"/>
<path d="M111.934 61.1865H109.397V66.6035H111.934V61.1865Z" fill="#FAFAFA"/>
<path d="M106.86 61.1865H104.324V66.6035H106.86V61.1865Z" fill="#FAFAFA"/>
<path d="M101.787 61.1865H99.25V66.6035H101.787V61.1865Z" fill="#FAFAFA"/>
<path d="M117.007 70.2656H114.471V75.6825H117.007V70.2656Z" fill="#FAFAFA"/>
<path d="M111.934 70.2656H109.397V75.6825H111.934V70.2656Z" fill="#FAFAFA"/>
<path d="M106.86 70.2656H104.324V75.6825H106.86V70.2656Z" fill="#FAFAFA"/>
<path d="M101.787 70.2656H99.25V75.6825H101.787V70.2656Z" fill="#FAFAFA"/>
<path d="M117.007 79.3447H114.471V84.7616H117.007V79.3447Z" fill="#FAFAFA"/>
<path d="M111.934 79.3447H109.397V84.7616H111.934V79.3447Z" fill="#FAFAFA"/>
<path d="M106.86 79.3447H104.324V84.7616H106.86V79.3447Z" fill="#FAFAFA"/>
<path d="M101.787 79.3447H99.25V84.7616H101.787V79.3447Z" fill="#FAFAFA"/>
<path d="M117.007 88.4238H114.471V93.8407H117.007V88.4238Z" fill="#FAFAFA"/>
<path d="M111.934 88.4238H109.397V93.8407H111.934V88.4238Z" fill="#FAFAFA"/>
<path d="M106.86 88.4238H104.324V93.8407H106.86V88.4238Z" fill="#FAFAFA"/>
<path d="M101.787 88.4238H99.25V93.8407H101.787V88.4238Z" fill="#FAFAFA"/>
<path d="M117.007 97.5088H114.471V102.926H117.007V97.5088Z" fill="#FAFAFA"/>
<path d="M111.934 97.5088H109.397V102.926H111.934V97.5088Z" fill="#FAFAFA"/>
<path d="M106.86 97.5088H104.324V102.926H106.86V97.5088Z" fill="#FAFAFA"/>
<path d="M101.787 97.5088H99.25V102.926H101.787V97.5088Z" fill="#FAFAFA"/>
<path d="M68.0403 112.068V51.2295H96.4528V112.088C96.4528 112.088 68.258 112.097 68.0403 112.068Z" fill="#F5F5F5"/>
<path d="M94.3197 53.6543H90.8752V57.7396H94.3197V53.6543Z" fill="#E6E6E6"/>
<path d="M87.4264 53.6543H83.9819V57.7396H87.4264V53.6543Z" fill="#E6E6E6"/>
<path d="M80.5374 53.6543H77.0929V57.7396H80.5374V53.6543Z" fill="#E6E6E6"/>
<path d="M73.6441 53.6543H70.1996V57.7396H73.6441V53.6543Z" fill="#E6E6E6"/>
<path d="M94.3197 60.5088H90.8752V64.5941H94.3197V60.5088Z" fill="#E6E6E6"/>
<path d="M87.4264 60.5088H83.9819V64.5941H87.4264V60.5088Z" fill="#E6E6E6"/>
<path d="M80.5374 60.5088H77.0929V64.5941H80.5374V60.5088Z" fill="#E6E6E6"/>
<path d="M73.6441 60.5088H70.1996V64.5941H73.6441V60.5088Z" fill="#E6E6E6"/>
<path d="M94.3197 67.3584H90.8752V71.4437H94.3197V67.3584Z" fill="#E6E6E6"/>
<path d="M87.4264 67.3584H83.9819V71.4437H87.4264V67.3584Z" fill="#E6E6E6"/>
<path d="M80.5374 67.3584H77.0929V71.4437H80.5374V67.3584Z" fill="#E6E6E6"/>
<path d="M73.6441 67.3584H70.1996V71.4437H73.6441V67.3584Z" fill="#E6E6E6"/>
<path d="M94.3197 74.208H90.8752V78.2934H94.3197V74.208Z" fill="#E6E6E6"/>
<path d="M87.4264 74.208H83.9819V78.2934H87.4264V74.208Z" fill="#E6E6E6"/>
<path d="M80.5374 74.208H77.0929V78.2934H80.5374V74.208Z" fill="#E6E6E6"/>
<path d="M73.6441 74.208H70.1996V78.2934H73.6441V74.208Z" fill="#E6E6E6"/>
<path d="M94.3197 81.0625H90.8752V85.1478H94.3197V81.0625Z" fill="#E6E6E6"/>
<path d="M87.4264 81.0625H83.9819V85.1478H87.4264V81.0625Z" fill="#E6E6E6"/>
<path d="M80.5374 81.0625H77.0929V85.1478H80.5374V81.0625Z" fill="#E6E6E6"/>
<path d="M73.6441 81.0625H70.1996V85.1478H73.6441V81.0625Z" fill="#E6E6E6"/>
<path d="M94.3197 87.9111H90.8752V91.9964H94.3197V87.9111Z" fill="#E6E6E6"/>
<path d="M87.4264 87.9111H83.9819V91.9964H87.4264V87.9111Z" fill="#E6E6E6"/>
<path d="M80.5374 87.9111H77.0929V91.9964H80.5374V87.9111Z" fill="#E6E6E6"/>
<path d="M73.6441 87.9111H70.1996V91.9964H73.6441V87.9111Z" fill="#E6E6E6"/>
<path d="M94.3197 94.7656H90.8752V98.8509H94.3197V94.7656Z" fill="#E6E6E6"/>
<path d="M87.4264 94.7656H83.9819V98.8509H87.4264V94.7656Z" fill="#E6E6E6"/>
<path d="M80.5374 94.7656H77.0929V98.8509H80.5374V94.7656Z" fill="#E6E6E6"/>
<path d="M73.6441 94.7656H70.1996V98.8509H73.6441V94.7656Z" fill="#E6E6E6"/>
<path d="M94.3197 101.615H90.8752V105.701H94.3197V101.615Z" fill="#E6E6E6"/>
<path d="M87.4264 101.615H83.9819V105.701H87.4264V101.615Z" fill="#E6E6E6"/>
<path d="M80.5374 101.615H77.0929V105.701H80.5374V101.615Z" fill="#E6E6E6"/>
<path d="M73.6441 101.615H70.1996V105.701H73.6441V101.615Z" fill="#E6E6E6"/>
<path d="M44.7682 47.501H24.0227V112.097H44.7682V47.501Z" fill="#E6E6E6"/>
<path d="M41.6997 50.6865H35.6194V54.7718H41.6997V50.6865Z" fill="#FAFAFA"/>
<path d="M41.6997 57.54H35.6194V61.6253H41.6997V57.54Z" fill="#FAFAFA"/>
<path d="M41.6997 64.3896H35.6194V68.4749H41.6997V64.3896Z" fill="#FAFAFA"/>
<path d="M41.6997 71.2432H35.6194V75.3285H41.6997V71.2432Z" fill="#FAFAFA"/>
<path d="M41.6997 78.0928H35.6194V82.1781H41.6997V78.0928Z" fill="#FAFAFA"/>
<path d="M41.6997 84.9424H35.6194V89.0277H41.6997V84.9424Z" fill="#FAFAFA"/>
<path d="M41.6997 91.7959H35.6194V95.8812H41.6997V91.7959Z" fill="#FAFAFA"/>
<path d="M41.6997 98.6465H35.6194V102.732H41.6997V98.6465Z" fill="#FAFAFA"/>
<path d="M33.5649 50.6865H27.4846V54.7718H33.5649V50.6865Z" fill="#FAFAFA"/>
<path d="M33.5649 57.54H27.4846V61.6253H33.5649V57.54Z" fill="#FAFAFA"/>
<path d="M33.5649 64.3896H27.4846V68.4749H33.5649V64.3896Z" fill="#FAFAFA"/>
<path d="M33.5649 71.2432H27.4846V75.3285H33.5649V71.2432Z" fill="#FAFAFA"/>
<path d="M33.5649 78.0928H27.4846V82.1781H33.5649V78.0928Z" fill="#FAFAFA"/>
<path d="M33.5649 84.9424H27.4846V89.0277H33.5649V84.9424Z" fill="#FAFAFA"/>
<path d="M33.5649 91.7959H27.4846V95.8812H33.5649V91.7959Z" fill="#FAFAFA"/>
<path d="M33.5649 98.6465H27.4846V102.732H33.5649V98.6465Z" fill="#FAFAFA"/>
<path d="M47.6177 111.188V42.1797H61.5817V111.181L47.6177 111.188Z" fill="#E0E0E0"/>
<path d="M60.5226 44.9727H58.8293V49.6715H60.5226V44.9727Z" fill="#FAFAFA"/>
<path d="M57.1362 44.9727H55.443V49.6715H57.1362V44.9727Z" fill="#FAFAFA"/>
<path d="M53.7564 44.9727H52.0632V49.6715H53.7564V44.9727Z" fill="#FAFAFA"/>
<path d="M50.37 44.9727H48.6768V49.6715H50.37V44.9727Z" fill="#FAFAFA"/>
<path d="M60.5226 52.8545H58.8293V57.5534H60.5226V52.8545Z" fill="#FAFAFA"/>
<path d="M57.1362 52.8545H55.443V57.5534H57.1362V52.8545Z" fill="#FAFAFA"/>
<path d="M53.7564 52.8545H52.0632V57.5534H53.7564V52.8545Z" fill="#FAFAFA"/>
<path d="M50.37 52.8545H48.6768V57.5534H50.37V52.8545Z" fill="#FAFAFA"/>
<path d="M60.5226 60.7373H58.8293V65.4362H60.5226V60.7373Z" fill="#FAFAFA"/>
<path d="M57.1362 60.7373H55.443V65.4362H57.1362V60.7373Z" fill="#FAFAFA"/>
<path d="M53.7564 60.7373H52.0632V65.4362H53.7564V60.7373Z" fill="#FAFAFA"/>
<path d="M50.37 60.7373H48.6768V65.4362H50.37V60.7373Z" fill="#FAFAFA"/>
<path d="M60.5226 68.6201H58.8293V73.319H60.5226V68.6201Z" fill="#FAFAFA"/>
<path d="M57.1362 68.6201H55.443V73.319H57.1362V68.6201Z" fill="#FAFAFA"/>
<path d="M53.7564 68.6201H52.0632V73.319H53.7564V68.6201Z" fill="#FAFAFA"/>
<path d="M50.37 68.6201H48.6768V73.319H50.37V68.6201Z" fill="#FAFAFA"/>
<path d="M60.5226 76.5098H58.8293V81.2087H60.5226V76.5098Z" fill="#FAFAFA"/>
<path d="M57.1362 76.5098H55.443V81.2087H57.1362V76.5098Z" fill="#FAFAFA"/>
<path d="M53.7564 76.5098H52.0632V81.2087H53.7564V76.5098Z" fill="#FAFAFA"/>
<path d="M50.37 76.5098H48.6768V81.2087H50.37V76.5098Z" fill="#FAFAFA"/>
<path d="M60.5226 84.3926H58.8293V89.0914H60.5226V84.3926Z" fill="#FAFAFA"/>
<path d="M57.1362 84.3926H55.443V89.0914H57.1362V84.3926Z" fill="#FAFAFA"/>
<path d="M53.7564 84.3926H52.0632V89.0914H53.7564V84.3926Z" fill="#FAFAFA"/>
<path d="M50.37 84.3926H48.6768V89.0914H50.37V84.3926Z" fill="#FAFAFA"/>
<path d="M60.5226 92.2754H58.8293V96.9743H60.5226V92.2754Z" fill="#FAFAFA"/>
<path d="M57.1362 92.2754H55.443V96.9743H57.1362V92.2754Z" fill="#FAFAFA"/>
<path d="M53.7564 92.2754H52.0632V96.9743H53.7564V92.2754Z" fill="#FAFAFA"/>
<path d="M50.37 92.2754H48.6768V96.9743H50.37V92.2754Z" fill="#FAFAFA"/>
<path d="M60.5226 100.158H58.8293V104.857H60.5226V100.158Z" fill="#FAFAFA"/>
<path d="M57.1362 100.158H55.443V104.857H57.1362V100.158Z" fill="#FAFAFA"/>
<path d="M53.7564 100.158H52.0632V104.857H53.7564V100.158Z" fill="#FAFAFA"/>
<path d="M50.37 100.158H48.6768V104.857H50.37V100.158Z" fill="#FAFAFA"/>
<path d="M265.488 163.042C265.488 164.423 209.703 165.543 140.888 165.543C72.0736 165.543 16.2883 164.423 16.2883 163.042C16.2883 161.661 72.0736 160.541 140.888 160.541C209.703 160.541 265.488 161.661 265.488 163.042Z" fill="#F5F5F5"/>
<path d="M143.522 153.025H173.575V127.17H143.522V153.025Z" fill="#023448"/>
<path opacity="0.5" d="M143.522 153.025H173.575V127.17H143.522V153.025Z" fill="black"/>
<path d="M161.528 163.044C166.271 163.044 170.117 156.54 170.117 148.518C170.117 140.495 166.271 133.991 161.528 133.991C156.784 133.991 152.939 140.495 152.939 148.518C152.939 156.54 156.784 163.044 161.528 163.044Z" fill="#263238"/>
<path d="M160.382 148.518C160.382 153.532 159.243 160.434 161.528 163.044H168.971C173.714 163.044 177.56 156.54 177.56 148.518C177.56 140.495 173.714 133.991 168.971 133.991C166.931 133.991 161.769 133.728 161.528 133.991C159.318 136.407 160.382 143.946 160.382 148.518Z" fill="#263238"/>
<path opacity="0.3" d="M160.93 155.48C163.349 155.48 165.31 152.164 165.31 148.073C165.31 143.982 163.349 140.666 160.93 140.666C158.512 140.666 156.551 143.982 156.551 148.073C156.551 152.164 158.512 155.48 160.93 155.48Z" fill="white"/>
<path d="M44.8643 153.025H74.9177V127.17H44.8643V153.025Z" fill="#023448"/>
<path opacity="0.5" d="M44.8643 153.025H74.9177V127.17H44.8643V153.025Z" fill="black"/>
<path d="M62.8697 163.044C67.6132 163.044 71.4586 156.54 71.4586 148.518C71.4586 140.495 67.6132 133.991 62.8697 133.991C58.1261 133.991 54.2808 140.495 54.2808 148.518C54.2808 156.54 58.1261 163.044 62.8697 163.044Z" fill="#263238"/>
<path d="M61.7239 148.518C61.7239 153.532 60.5851 160.434 62.8697 163.044H70.3128C75.0564 163.044 78.9017 156.54 78.9017 148.518C78.9017 140.495 75.0564 133.991 70.3128 133.991C68.2725 133.991 63.1107 133.728 62.8697 133.991C60.6595 136.407 61.7239 143.946 61.7239 148.518Z" fill="#263238"/>
<path opacity="0.3" d="M62.2723 155.48C64.6911 155.48 66.6519 152.164 66.6519 148.073C66.6519 143.982 64.6911 140.666 62.2723 140.666C59.8536 140.666 57.8928 143.982 57.8928 148.073C57.8928 152.164 59.8536 155.48 62.2723 155.48Z" fill="white"/>
<path d="M102.154 163.044C106.897 163.044 110.743 156.54 110.743 148.518C110.743 140.495 106.897 133.991 102.154 133.991C97.4101 133.991 93.5647 140.495 93.5647 148.518C93.5647 156.54 97.4101 163.044 102.154 163.044Z" fill="#263238"/>
<path d="M101.008 148.518C101.008 153.532 99.869 160.434 102.154 163.044H109.597C114.34 163.044 118.186 156.54 118.186 148.518C118.186 140.495 114.34 133.991 109.597 133.991C107.556 133.991 102.395 133.728 102.154 133.991C99.9435 136.407 101.008 143.946 101.008 148.518Z" fill="#263238"/>
<path opacity="0.3" d="M101.556 155.48C103.975 155.48 105.936 152.164 105.936 148.073C105.936 143.982 103.975 140.666 101.556 140.666C99.1375 140.666 97.1768 143.982 97.1768 148.073C97.1768 152.164 99.1375 155.48 101.556 155.48Z" fill="white"/>
<path opacity="0.3" d="M109.597 133.991C107.556 133.991 102.395 133.728 102.154 133.991C97.4101 133.991 93.5647 140.495 93.5647 148.518C93.5647 156.54 97.4101 163.044 102.154 163.044H109.597C114.34 163.044 118.186 156.54 118.186 148.518C118.186 140.495 114.34 133.991 109.597 133.991Z" fill="black"/>
<path d="M214.283 163.044C219.027 163.044 222.872 156.54 222.872 148.518C222.872 140.495 219.027 133.991 214.283 133.991C209.54 133.991 205.695 140.495 205.695 148.518C205.695 156.54 209.54 163.044 214.283 163.044Z" fill="#263238"/>
<path d="M213.138 148.518C213.138 153.532 211.999 160.434 214.283 163.044H221.727C226.47 163.044 230.315 156.54 230.315 148.518C230.315 140.495 226.47 133.991 221.727 133.991C219.686 133.991 214.524 133.728 214.283 133.991C212.073 136.407 213.138 143.946 213.138 148.518Z" fill="#263238"/>
<path opacity="0.3" d="M213.686 155.48C216.105 155.48 218.066 152.164 218.066 148.073C218.066 143.982 216.105 140.666 213.686 140.666C211.267 140.666 209.307 143.982 209.307 148.073C209.307 152.164 211.267 155.48 213.686 155.48Z" fill="white"/>
<path opacity="0.3" d="M221.787 133.991C219.747 133.991 214.585 133.728 214.344 133.991C209.601 133.991 205.755 140.495 205.755 148.518C205.755 156.54 209.601 163.044 214.344 163.044H221.787C226.531 163.044 230.376 156.54 230.376 148.518C230.376 140.495 226.531 133.991 221.787 133.991Z" fill="black"/>
<path d="M24.285 69.2676L255.906 69.4831C260.113 69.487 262.834 70.014 263.663 74.4932C266.509 89.8733 273.564 126.144 271.561 141.372L271 144.338C270.568 149.264 266.758 153.025 262.202 153.025H170.872C171.421 151.055 171.728 148.88 171.728 146.591C171.728 137.727 167.161 130.541 161.528 130.541C155.894 130.541 151.327 137.727 151.327 146.591C151.327 148.88 151.634 151.055 152.183 153.025H71.1619C71.7107 151.055 72.0173 148.88 72.0173 146.591C72.0173 137.727 67.4505 130.541 61.8171 130.541C56.1838 130.541 51.617 137.727 51.617 146.591C51.617 148.88 51.9236 151.055 52.4724 153.025H24.2774C19.3961 153.025 15.439 148.728 15.439 143.428V74.9686C15.439 69.665 19.4007 69.263 24.285 69.2676Z" fill="#023448"/>
<path opacity="0.5" d="M15.439 135.548H19.7041V147.956H16.4829C16.4829 147.956 15.439 146.081 15.439 143.768V135.548Z" fill="white"/>
<path d="M221.32 69.4509L216.974 62.3746C216.55 61.6838 215.834 61.2686 215.067 61.2686H77.4112C76.4984 61.2686 75.6605 61.8144 75.234 62.6868L72.0172 69.2675L221.32 69.4509Z" fill="#023448"/>
<path d="M139.43 145.553H142.709C143.344 145.553 143.859 144.996 143.859 144.31V144.31C143.859 143.623 143.344 143.067 142.709 143.067H139.43C138.794 143.067 138.28 143.623 138.28 144.31V144.31C138.28 144.996 138.794 145.553 139.43 145.553Z" fill="white"/>
<path d="M81.3913 145.532H84.6705C85.3055 145.532 85.8204 144.975 85.8204 144.289C85.8204 143.602 85.3055 143.046 84.6705 143.046H81.3913C80.7563 143.046 80.2415 143.602 80.2415 144.289C80.2415 144.975 80.7563 145.532 81.3913 145.532Z" fill="white"/>
<path d="M25.1409 145.553H28.4201C29.0551 145.553 29.5699 144.996 29.5699 144.31V144.31C29.5699 143.623 29.0551 143.067 28.4201 143.067H25.1409C24.5059 143.067 23.9911 143.623 23.9911 144.31V144.31C23.9911 144.996 24.5059 145.553 25.1409 145.553Z" fill="white"/>
<path d="M151.367 147.752H71.4585V148.16H151.367V147.752Z" fill="#263238"/>
<path d="M51.8775 147.752H16.4829V148.16H51.8775V147.752Z" fill="#263238"/>
<path d="M45.6955 122.377H45.3182V148.072H45.6955V122.377Z" fill="#263238"/>
<path d="M22.4488 110.893H22.0715V147.955H22.4488V110.893Z" fill="#263238"/>
<path d="M76.6323 122.996H76.255V147.576H76.6323V122.996Z" fill="#263238"/>
<path d="M146.942 123.52H146.565V147.955H146.942V123.52Z" fill="#263238"/>
<path opacity="0.2" d="M78.9016 140.665H144.383V125.996L78.9016 125.996V140.665Z" fill="black"/>
<path opacity="0.3" d="M176.095 61.2686H215.136C215.903 61.2686 216.644 61.8366 217.068 62.5274L221.32 69.4509L171.537 69.2762L176.095 61.2686Z" fill="white"/>
<path d="M175.516 148.072H198.616V73.2898H175.516V148.072Z" fill="#263238"/>
<path opacity="0.3" d="M176.957 134.226H197.152V78.5215H176.957V134.226Z" fill="white"/>
<path opacity="0.3" d="M176.958 80.3672L197.153 90.1055V106.373C196.682 106.882 176.958 95.4656 176.958 95.4656V80.3672Z" fill="white"/>
<path opacity="0.3" d="M176.958 99.1211L197.154 109.606L197.164 113.341L176.969 102.433L176.958 99.1211Z" fill="white"/>
<path d="M190.307 145.533H193.586C194.221 145.533 194.736 144.976 194.736 144.29C194.736 143.603 194.221 143.047 193.586 143.047H190.307C189.672 143.047 189.157 143.603 189.157 144.29C189.157 144.976 189.672 145.533 190.307 145.533Z" fill="white"/>
<path d="M186.195 134.845H187.729V77.9055H186.195V134.845Z" fill="#263238"/>
<path opacity="0.2" d="M176.095 61.2684L171.537 69.276H72.0172L75.1378 62.8045C75.5931 61.8603 76.4959 61.2677 77.4809 61.2666" fill="black"/>
<path opacity="0.2" d="M221.32 69.4508L72.0886 69.4328L72.8994 67.6904H220.23L221.32 69.4508Z" fill="black"/>
<path d="M166.935 63.8162L165.116 66.8682L165.275 66.9785L167.094 63.9265L166.935 63.8162Z" fill="#263238"/>
<path d="M165.561 63.816L163.742 66.8682L163.9 66.9785L165.719 63.9263L165.561 63.816Z" fill="#263238"/>
<path d="M164.186 63.816L162.368 66.8682L162.526 66.9785L164.345 63.9263L164.186 63.816Z" fill="#263238"/>
<path d="M162.812 63.816L160.994 66.8682L161.152 66.9785L162.971 63.9263L162.812 63.816Z" fill="#263238"/>
<path d="M161.438 63.816L159.619 66.8682L159.778 66.9785L161.597 63.9263L161.438 63.816Z" fill="#263238"/>
<path d="M132.822 63.7759L131.006 66.8301L131.165 66.9404L132.981 63.8863L132.822 63.7759Z" fill="#263238"/>
<path d="M131.447 63.7759L129.632 66.8301L129.791 66.9404L131.606 63.8863L131.447 63.7759Z" fill="#263238"/>
<path d="M130.073 63.7759L128.257 66.8301L128.416 66.9404L130.232 63.8863L130.073 63.7759Z" fill="#263238"/>
<path d="M128.699 63.7759L126.883 66.8301L127.042 66.9404L128.858 63.8863L128.699 63.7759Z" fill="#263238"/>
<path d="M127.325 63.7759L125.509 66.8301L125.668 66.9404L127.484 63.8863L127.325 63.7759Z" fill="#263238"/>
<path d="M98.7099 63.8151L96.8942 66.8691L97.053 66.9795L98.8687 63.9254L98.7099 63.8151Z" fill="#263238"/>
<path d="M97.3357 63.815L95.5199 66.8691L95.6787 66.9795L97.4945 63.9253L97.3357 63.815Z" fill="#263238"/>
<path d="M95.9614 63.815L94.1456 66.8691L94.3044 66.9795L96.1202 63.9253L95.9614 63.815Z" fill="#263238"/>
<path d="M94.5873 63.815L92.7715 66.8691L92.9303 66.9795L94.746 63.9253L94.5873 63.815Z" fill="#263238"/>
<path d="M93.213 63.815L91.3972 66.8691L91.556 66.9795L93.3718 63.9253L93.213 63.815Z" fill="#263238"/>
<path d="M171.607 123.295H45.4747L37.3923 111.146L18.2495 110.825V73.29H171.607V123.295Z" fill="#263238"/>
<path opacity="0.3" d="M148.009 117.533H169.089V77.9678H148.009V117.533Z" fill="white"/>
<path opacity="0.3" d="M148.042 78.998L169.056 88.7363V105.004C168.566 105.512 148.042 94.0964 148.042 94.0964V78.998Z" fill="white"/>
<path opacity="0.3" d="M148.036 97.751L169.052 108.236L169.061 111.971L148.048 101.063L148.036 97.751Z" fill="white"/>
<path opacity="0.3" d="M47.768 117.469H74.9176V77.9033H40.9623L40.745 107.684L47.768 117.469Z" fill="white"/>
<path opacity="0.3" d="M79.7483 117.47L143.676 117.47V77.9043H79.7483V117.47Z" fill="white"/>
<path opacity="0.3" d="M20.5175 106.343H36.382V77.9053H20.5175L20.5175 106.343Z" fill="white"/>
<path opacity="0.3" d="M143.676 96.5044L101.418 77.9033H79.7483V85.3702L143.676 113.339V96.5044Z" fill="white"/>
<path opacity="0.3" d="M74.9177 101.471L40.8925 87.4797L40.9369 81.3877L74.9177 95.4657V99.9256" fill="white"/>
<path opacity="0.3" d="M40.9368 89.9365L74.9176 104.015V106.342L40.8923 92.1232L40.9368 89.9365Z" fill="white"/>
<path d="M19.461 85.1934L169.873 85.1934V83.6777L19.461 83.6777V85.1934Z" fill="#263238"/>
<path opacity="0.3" d="M263.663 74.4929C266.509 89.873 273.564 126.143 271.561 141.372L271 144.338C270.568 149.263 266.758 153.025 262.202 153.025H204.401L200.348 69.4326L255.906 69.4828C260.113 69.4867 262.834 70.0137 263.663 74.4929Z" fill="white"/>
<path opacity="0.4" d="M269.992 134.958C269.992 134.958 269.217 140.497 265.344 141.077C261.472 141.656 251.581 141.205 251.581 141.205L252.326 139.148C253.173 136.807 255.243 135.25 257.568 135.204L269.992 134.958Z" fill="white"/>
<path opacity="0.4" d="M212.317 134.958C212.317 134.958 213.092 140.497 216.964 141.077C220.837 141.656 230.727 141.205 230.727 141.205L229.891 138.896C229.099 136.708 227.165 135.252 224.991 135.209L212.317 134.958Z" fill="white"/>
<path d="M233.757 153.024H250.766V147.671H233.757V153.024Z" fill="#263238"/>
<path d="M263.509 149.895C263.509 150.688 263.952 151.331 264.499 151.331C265.045 151.331 265.488 150.688 265.488 149.895C265.488 149.102 265.045 148.459 264.499 148.459C263.952 148.459 263.509 149.102 263.509 149.895Z" fill="white"/>
<path d="M260.556 149.894C260.556 150.423 260.851 150.852 261.216 150.852C261.58 150.852 261.876 150.423 261.876 149.894C261.876 149.365 261.58 148.937 261.216 148.937C260.851 148.937 260.556 149.365 260.556 149.894Z" fill="white"/>
<path d="M254.799 153.025H254.422C254.422 149.703 256.922 147 259.995 147H270.326V147.408H259.995C257.13 147.408 254.799 149.928 254.799 153.025Z" fill="#263238"/>
<path d="M218.017 149.895C218.017 150.688 217.574 151.331 217.028 151.331C216.481 151.331 216.038 150.688 216.038 149.895C216.038 149.102 216.481 148.459 217.028 148.459C217.574 148.459 218.017 149.102 218.017 149.895Z" fill="white"/>
<path d="M220.311 150.852C220.675 150.852 220.971 150.423 220.971 149.894C220.971 149.365 220.675 148.937 220.311 148.937C219.946 148.937 219.651 149.365 219.651 149.894C219.651 150.423 219.946 150.852 220.311 150.852Z" fill="white"/>
<path d="M227.104 153.025H226.727C226.727 149.928 224.396 147.408 221.531 147.408H204.095V147H221.531C224.604 147 227.104 149.703 227.104 153.025Z" fill="#263238"/>
<path opacity="0.4" d="M262.185 138.137C262.185 139.604 263.285 140.794 264.643 140.794C266 140.794 267.101 139.604 267.101 138.137C267.101 136.669 266 135.479 264.643 135.479C263.285 135.479 262.185 136.669 262.185 138.137Z" fill="white"/>
<path opacity="0.4" d="M216.6 138.137C216.6 139.604 217.7 140.794 219.057 140.794C220.415 140.794 221.515 139.604 221.515 138.137C221.515 136.669 220.415 135.479 219.057 135.479C217.7 135.479 216.6 136.669 216.6 138.137Z" fill="white"/>
<path d="M260.899 73.29L268.493 121.921C268.872 124.348 267.141 126.562 264.864 126.562H215.882C212.995 126.562 210.556 124.247 210.182 121.152L204.401 73.29H260.899Z" fill="#263238"/>
<path opacity="0.3" d="M267.1 117.469L261.477 81.2227H205.958L210.643 117.65L267.1 117.469Z" fill="white"/>
<path opacity="0.3" d="M225.884 81.2227L264.125 98.292L265.896 109.708L205.958 81.2227H225.884Z" fill="white"/>
<path opacity="0.3" d="M206.504 85.4727L266.626 113.912L267.1 117.469L207.009 89.3925L206.504 85.4727Z" fill="white"/>
<path opacity="0.5" d="M206.451 79.8679H261.076L260.05 74.8467H205.958L206.451 79.8679Z" fill="black"/>
<path d="M225.174 78.3594H252.603V76.7783H225.174V78.3594Z" fill="white"/>
<path d="M221.856 79.1572H223.725V75.98H221.856V79.1572Z" fill="white"/>
<path d="M219.662 79.1572H221.452V75.98H219.662V79.1572Z" fill="white"/>
<path d="M253.638 131.667C233.497 131.667 203.804 131.661 203.355 131.661V131.253C204.031 131.253 270.88 131.267 271.84 131.253L271.845 131.661C271.522 131.666 263.793 131.667 253.638 131.667Z" fill="#263238"/>
<path d="M272.688 101.108C274.626 101.108 276.197 99.4094 276.197 97.3142V83.9617C276.197 81.8665 274.626 80.168 272.688 80.168C270.75 80.168 269.178 81.8665 269.178 83.9617V97.3142C269.178 99.4094 270.75 101.108 272.688 101.108Z" fill="#023448"/>
<path d="M273.526 81.4612C273.526 81.4612 272.614 77.8901 270.279 77.5206C267.944 77.1512 263.786 77.5206 263.786 77.5206V79.4089C263.786 79.4089 268.57 79.2036 269.368 79.4089C270.165 79.6141 271.076 82.2616 271.076 82.2616L273.526 81.4612Z" fill="#023448"/>
<g opacity="0.3">
<path d="M272.688 101.108C274.626 101.108 276.197 99.4094 276.197 97.3142V83.9617C276.197 81.8665 274.626 80.168 272.688 80.168C270.75 80.168 269.178 81.8665 269.178 83.9617V97.3142C269.178 99.4094 270.75 101.108 272.688 101.108Z" fill="white"/>
<path d="M273.526 81.4612C273.526 81.4612 272.614 77.8901 270.279 77.5206C267.944 77.1512 263.786 77.5206 263.786 77.5206V79.4089C263.786 79.4089 268.57 79.2036 269.368 79.4089C270.165 79.6141 271.076 82.2616 271.076 82.2616L273.526 81.4612Z" fill="white"/>
</g>
<path d="M213.303 102.27C215.241 102.27 216.812 100.572 216.812 98.4764V85.1238C216.812 83.0286 215.241 81.3301 213.303 81.3301C211.365 81.3301 209.793 83.0286 209.793 85.1238V98.4764C209.793 100.572 211.365 102.27 213.303 102.27Z" fill="#023448"/>
<path d="M214.141 82.6233C214.141 82.6233 213.229 79.0522 210.894 78.6827C208.559 78.3133 204.401 78.6827 204.401 78.6827V80.571C204.401 80.571 209.185 80.3657 209.983 80.571C210.78 80.7762 211.691 83.4238 211.691 83.4238L214.141 82.6233Z" fill="#023448"/>
<g opacity="0.3">
<path d="M213.303 102.27C215.241 102.27 216.812 100.572 216.812 98.4764V85.1238C216.812 83.0286 215.241 81.3301 213.303 81.3301C211.365 81.3301 209.793 83.0286 209.793 85.1238V98.4764C209.793 100.572 211.365 102.27 213.303 102.27Z" fill="white"/>
<path d="M214.141 82.6233C214.141 82.6233 213.229 79.0522 210.894 78.6827C208.559 78.3133 204.401 78.6827 204.401 78.6827V80.571C204.401 80.571 209.185 80.3657 209.983 80.571C210.78 80.7762 211.691 83.4238 211.691 83.4238L214.141 82.6233Z" fill="white"/>
</g>
</svg>
