<svg width="24" height="24" viewBox="0 0 24 24" fill="none" xmlns="http://www.w3.org/2000/svg">
<path d="M10.5 5.5C10.5 5.36739 10.5527 5.24021 10.6464 5.14645C10.7402 5.05268 10.8674 5 11 5H13C13.1326 5 13.2598 5.05268 13.3536 5.14645C13.4473 5.24021 13.5 5.36739 13.5 5.5C13.5 5.63261 13.4473 5.75979 13.3536 5.85355C13.2598 5.94732 13.1326 6 13 6H11C10.8674 6 10.7402 5.94732 10.6464 5.85355C10.5527 5.75979 10.5 5.63261 10.5 5.5Z" fill="#C8C7C7"/>
<path fill-rule="evenodd" clip-rule="evenodd" d="M16.6818 9.26C16.5003 9.4025 16.2648 9.5165 15.9808 9.609C15.9935 9.73767 15.9998 9.868 15.9998 10C15.9996 10.5416 15.8894 11.0776 15.6758 11.5753C15.4623 12.0731 15.1499 12.5223 14.7576 12.8958C14.3652 13.2692 13.9012 13.559 13.3935 13.7478C12.8858 13.9365 12.345 14.0201 11.8041 13.9936C11.2631 13.9671 10.7331 13.831 10.2463 13.5936C9.75947 13.3561 9.32595 13.0223 8.97201 12.6123C8.61806 12.2023 8.35107 11.7247 8.18721 11.2085C8.02336 10.6922 7.96606 10.1481 8.01879 9.609C7.73479 9.5165 7.49929 9.4025 7.31829 9.26C7.08329 9.075 6.92579 8.828 6.90729 8.531C6.88979 8.2555 6.99879 8.0215 7.10779 7.8565C7.21535 7.70018 7.34312 7.55878 7.48779 7.436C7.55846 7.37467 7.62612 7.32017 7.69079 7.2725C7.67146 7.1695 7.65112 7.04617 7.62979 6.9025C7.54167 6.27219 7.49822 5.63644 7.49979 5C7.49979 4.843 7.56679 4.726 7.59779 4.6765C7.63679 4.614 7.68279 4.5605 7.72479 4.5175C7.80829 4.43 7.91629 4.341 8.03479 4.2555C8.27479 4.0815 8.60479 3.886 8.99679 3.703C9.77829 3.338 10.8518 3 11.9998 3C13.1478 3 14.2213 3.3385 15.0028 3.703C15.3398 3.85706 15.6619 4.04202 15.9648 4.2555C16.0833 4.341 16.1913 4.4305 16.2748 4.5175C16.3168 4.5605 16.3628 4.614 16.4018 4.6765C16.4328 4.726 16.4998 4.843 16.4998 5C16.4998 5.801 16.4348 6.45 16.3698 6.9025C16.3485 7.0465 16.3281 7.16983 16.3088 7.2725C16.3728 7.32 16.4423 7.3745 16.5123 7.436C16.6373 7.5455 16.7803 7.688 16.8918 7.8565C17.0013 8.0215 17.1098 8.2555 17.0928 8.5315C17.0743 8.828 16.9168 9.075 16.6818 9.26ZM8.50079 5.159C8.50829 5.833 8.56429 6.378 8.61979 6.759C8.63312 6.849 8.64579 6.92933 8.65779 7H15.3418C15.3541 6.929 15.3668 6.84867 15.3798 6.759C15.4348 6.378 15.4913 5.833 15.4988 5.159C15.4598 5.12614 15.4196 5.09479 15.3783 5.065C15.1978 4.9345 14.9238 4.77 14.5798 4.6095C13.8883 4.2865 12.9618 4 11.9998 4C11.0378 4 10.1113 4.2865 9.41979 4.6095C9.07579 4.77 8.80179 4.9345 8.62179 5.0645C8.58025 5.0946 8.53989 5.12629 8.50079 5.1595M8.39379 8L8.39229 8.001C8.30597 8.05847 8.22331 8.12126 8.14479 8.189C8.05579 8.267 7.98479 8.343 7.94179 8.409C7.93179 8.42399 7.92261 8.43952 7.91429 8.4555L7.93629 8.474C8.01129 8.533 8.17229 8.6195 8.48629 8.705C8.54829 8.72167 8.61479 8.738 8.68579 8.754L8.69029 8.755C8.94129 8.8105 9.25029 8.86 9.62679 8.899C10.1603 8.9545 10.8318 8.991 11.6708 8.999L11.9998 9C13.6133 9 14.6568 8.8995 15.3098 8.755L15.3138 8.754C15.3851 8.73833 15.4518 8.722 15.5138 8.705C15.8273 8.62 15.9888 8.533 16.0633 8.474L16.0853 8.4555C16.0771 8.43953 16.0681 8.42401 16.0583 8.409C15.9999 8.32745 15.9316 8.25354 15.8548 8.189C15.7764 8.12128 15.6939 8.05849 15.6078 8.001L15.6058 8H8.39379ZM11.8638 10C13.1848 10 14.2088 9.93 14.9938 9.808C14.9978 9.87133 14.9998 9.93533 14.9998 10C14.9994 10.4004 14.9189 10.7966 14.7631 11.1654C14.6072 11.5342 14.379 11.868 14.0921 12.1473C13.8052 12.4265 13.4653 12.6455 13.0924 12.7913C12.7195 12.9371 12.3212 13.0068 11.921 12.9963C11.5208 12.9858 11.1267 12.8953 10.762 12.7301C10.3973 12.5649 10.0693 12.3284 9.79748 12.0345C9.52561 11.7405 9.31532 11.3952 9.17901 11.0187C9.0427 10.6423 8.98312 10.2423 9.00379 9.8425C9.73529 9.9435 10.6728 10 11.8638 10ZM8.03879 19.4385C8.01262 19.6245 7.99959 19.8121 7.99979 20V20.5C7.99985 20.6099 7.96368 20.7168 7.89689 20.8041C7.8301 20.8914 7.7364 20.9542 7.6303 20.9829C7.52419 21.0116 7.41159 21.0045 7.30991 20.9628C7.20823 20.9211 7.12313 20.847 7.06779 20.752C6.73065 20.9343 6.33652 20.9806 5.96629 20.8815L5.00029 20.6225C4.61617 20.5194 4.28872 20.268 4.08994 19.9235C3.89117 19.579 3.83734 19.1697 3.94029 18.7855L4.32829 17.3365C4.43129 16.9523 4.68268 16.6247 5.02718 16.4258C5.37168 16.227 5.78106 16.1731 6.16529 16.276L7.13129 16.5345C7.46729 16.6245 7.74629 16.822 7.94029 17.08C8.40324 16.4358 9.01295 15.9112 9.71897 15.5494C10.425 15.1877 11.207 14.9994 12.0003 15C12.7931 14.9996 13.5747 15.1879 14.2803 15.5495C14.986 15.911 15.5954 16.4353 16.0583 17.079C16.2596 16.8128 16.5439 16.6214 16.8663 16.535L17.8323 16.2765C18.2165 16.1735 18.6258 16.2274 18.9703 16.4262C19.3147 16.6249 19.5662 16.9524 19.6693 17.3365L20.0578 18.786C20.1087 18.9763 20.1217 19.1747 20.096 19.37C20.0702 19.5653 20.0063 19.7537 19.9078 19.9242C19.8092 20.0948 19.6781 20.2443 19.5218 20.3642C19.3655 20.4841 19.1871 20.5721 18.9968 20.623L18.0313 20.8815C17.6617 20.9807 17.2682 20.9349 16.9313 20.7535C16.8758 20.8483 16.7906 20.9222 16.6888 20.9638C16.5871 21.0053 16.4745 21.0122 16.3685 20.9834C16.2625 20.9545 16.1689 20.8915 16.1022 20.8041C16.0356 20.7168 15.9996 20.6099 15.9998 20.5V20C16 19.8121 15.987 19.6245 15.9608 19.4385L13.3588 20.136C13.238 20.3945 13.046 20.6132 12.8053 20.7665C12.5646 20.9197 12.2851 21.0011 11.9998 21.0011C11.7144 21.0011 11.435 20.9197 11.1943 20.7665C10.9536 20.6132 10.7616 20.3945 10.6408 20.136L8.03879 19.4385ZM10.5598 19.0785C10.6266 18.8504 10.7467 18.6415 10.9102 18.4689C11.0736 18.2964 11.2757 18.1651 11.4998 18.086V16.031C10.7985 16.1197 10.1331 16.3925 9.57137 16.8215C9.0096 17.2506 8.5714 17.8207 8.30129 18.474L10.5598 19.0785ZM15.6983 18.4735C15.4281 17.8203 14.9899 17.2503 14.4281 16.8213C13.8663 16.3923 13.201 16.1197 12.4998 16.031V18.0855C12.9518 18.2455 13.3048 18.6155 13.4398 19.079L15.6983 18.4735ZM16.7718 18.1135C16.7548 18.0501 16.7504 17.9839 16.759 17.9188C16.7675 17.8537 16.7888 17.7909 16.8217 17.734C16.8545 17.6771 16.8982 17.6273 16.9503 17.5873C17.0024 17.5473 17.0619 17.518 17.1253 17.501L18.0913 17.242C18.2193 17.2078 18.3557 17.2258 18.4705 17.2921C18.5852 17.3584 18.669 17.4675 18.7033 17.5955L19.0918 19.0445C19.1088 19.1079 19.1132 19.1741 19.1046 19.2392C19.096 19.3043 19.0747 19.3671 19.0419 19.424C19.0091 19.4809 18.9654 19.5307 18.9133 19.5707C18.8612 19.6107 18.8017 19.64 18.7383 19.657L17.7723 19.916C17.7088 19.933 17.6426 19.9373 17.5775 19.9287C17.5124 19.9202 17.4496 19.8988 17.3927 19.8659C17.3358 19.8331 17.2859 19.7893 17.246 19.7371C17.206 19.685 17.1767 19.6255 17.1598 19.562L16.7718 18.1135ZM5.90679 17.242C5.84333 17.2249 5.77712 17.2205 5.71195 17.229C5.64678 17.2375 5.58394 17.2588 5.527 17.2917C5.47007 17.3245 5.42017 17.3682 5.38015 17.4204C5.34013 17.4725 5.31079 17.532 5.29379 17.5955L4.90579 19.044C4.88878 19.1074 4.88442 19.1736 4.89298 19.2387C4.90154 19.3038 4.92284 19.3666 4.95567 19.4235C4.98849 19.4804 5.0322 19.5302 5.0843 19.5702C5.13639 19.6102 5.19586 19.6395 5.25929 19.6565L6.22529 19.9155C6.28872 19.9325 6.35488 19.9369 6.41999 19.9283C6.4851 19.9198 6.54789 19.8985 6.60476 19.8656C6.66164 19.8328 6.7115 19.7891 6.75148 19.737C6.79146 19.6849 6.82079 19.6254 6.83779 19.562L7.22579 18.113C7.24288 18.0495 7.24729 17.9833 7.23877 17.9182C7.23025 17.853 7.20896 17.7901 7.17613 17.7332C7.1433 17.6763 7.09956 17.6264 7.04743 17.5864C6.99529 17.5463 6.93578 17.517 6.87229 17.5L5.90679 17.242ZM12.4998 19.5C12.4998 19.6326 12.4471 19.7598 12.3533 19.8536C12.2596 19.9473 12.1324 20 11.9998 20C11.8672 20 11.74 19.9473 11.6462 19.8536C11.5525 19.7598 11.4998 19.6326 11.4998 19.5C11.4998 19.3674 11.5525 19.2402 11.6462 19.1464C11.74 19.0527 11.8672 19 11.9998 19C12.1324 19 12.2596 19.0527 12.3533 19.1464C12.4471 19.2402 12.4998 19.3674 12.4998 19.5Z" fill="#C8C7C7"/>
</svg>
