<svg width="245" height="245" viewBox="0 0 245 245" fill="none" xmlns="http://www.w3.org/2000/svg">
<path d="M127.277 71.8137C119.889 65.8357 88.7033 64.5164 71.2826 77.5822C59.5471 86.5884 51.3604 104.056 53.4074 118.656C54.908 129.983 65.688 138.443 76.332 140.761C98.0464 145.648 123.624 129.81 136.511 110.872C132.339 109.995 128.478 108.014 125.333 105.134C122.189 102.255 119.876 98.5829 118.636 94.5031C115.238 81.8195 123.436 71.7855 127.277 71.8137Z" fill="#4B1010"/>
<path d="M101.579 125.479C104.631 130.537 108.1 135.33 111.95 139.811C106.846 141.701 101.915 144.03 97.2119 146.77C92.4557 149.479 88.537 153.444 85.8855 158.233C85.8855 156.732 82.7471 153.455 81.7928 152.092C79.9329 149.381 78.2464 146.556 76.7434 143.632C75.5184 141.304 74.0177 141.182 75.9251 138.854C80.2934 133.524 90.1706 127.445 101.579 125.479Z" fill="#ADCD39"/>
<path d="M85.2732 158.228C85.2732 157.036 82.1556 153.675 81.2908 152.439C77.8314 147.496 76.6186 144.284 75.2552 142.484C74.3279 141.259 73.8415 140.416 75.4524 138.461C79.8783 133.05 89.9368 126.864 101.475 124.875C101.597 124.854 101.723 124.871 101.835 124.923C101.947 124.974 102.041 125.059 102.105 125.165C105.136 130.193 108.586 134.955 112.417 139.405C112.481 139.479 112.525 139.569 112.547 139.665C112.569 139.762 112.567 139.862 112.542 139.957C112.517 140.053 112.469 140.141 112.403 140.213C112.336 140.287 112.253 140.342 112.161 140.376C107.086 142.242 102.187 144.554 97.522 147.289C92.8508 149.926 89.0078 153.813 86.4247 158.515C86.3602 158.635 86.2576 158.729 86.1332 158.784C86.0088 158.839 85.8697 158.851 85.7378 158.818C85.6058 158.785 85.4886 158.709 85.4044 158.603C85.3204 158.496 85.2742 158.364 85.2732 158.228ZM101.263 126.155C90.2455 128.155 80.6011 134.094 76.3957 139.239C74.8142 141.159 75.9632 140.85 77.2813 143.341C82.4006 153.117 84.5088 153.869 86.0303 156.741C88.7042 152.372 92.4466 148.756 96.9046 146.234C101.378 143.61 106.066 141.369 110.917 139.537C107.356 135.335 104.124 130.861 101.263 126.155Z" fill="white"/>
<path d="M113.454 117.973C117.511 117.232 121.367 115.652 124.777 113.333C124.655 113.395 127.484 132.861 127.505 132.983C120.137 141.307 104.444 141.171 95.1651 136.536C94.884 136.434 94.6441 136.243 94.4828 135.99C94.4155 135.84 94.3809 135.678 94.3809 135.513C94.3809 135.349 94.4155 135.186 94.4828 135.035C94.8919 133.81 100.76 115.522 100.76 115.658C105.263 117.018 108.69 118.858 113.454 117.973Z" fill="#ADCD39"/>
<path d="M122.412 132.533C122.523 128.297 122.523 123.958 122.523 119.747C122.523 119.651 122.5 119.556 122.457 119.471C122.414 119.385 122.351 119.311 122.273 119.254C122.196 119.197 122.106 119.159 122.012 119.143C121.917 119.127 121.82 119.134 121.728 119.163C115.22 121.169 108.543 122.578 101.779 123.369C101.627 123.387 101.488 123.462 101.388 123.577C101.289 123.692 101.236 123.842 101.24 123.994C101.377 128.771 100.827 133.368 100.558 138.168C100.558 138.29 100.587 138.41 100.642 138.517C100.697 138.626 100.776 138.72 100.874 138.792C102.595 140.083 118.817 135.528 120.982 134.638C121.904 134.259 123.134 133.157 122.412 132.533ZM121.298 120.576C121.298 124.47 121.291 128.464 121.19 132.377C117.717 132.183 114.417 129.984 111.101 128.765C110.462 128.404 109.711 128.295 108.995 128.459C108.32 128.684 108.818 128.347 102.072 133.971C102.301 130.891 102.534 127.713 102.477 124.519C108.851 123.741 115.148 122.422 121.298 120.576ZM101.803 137.828C101.846 137.106 101.894 136.387 101.947 135.668L108.394 130.293C108.511 130.119 108.663 129.969 108.839 129.854C109.015 129.739 109.212 129.661 109.418 129.623C109.625 129.586 109.837 129.59 110.043 129.635C110.248 129.68 110.442 129.766 110.614 129.887C113.827 131.077 116.952 133.119 120.45 133.539C117.811 134.588 104.434 138.057 101.803 137.828Z" fill="white"/>
<path d="M115.326 126.218C115.191 125.857 115.156 125.468 115.224 125.089C115.292 124.711 115.461 124.358 115.714 124.068C115.967 123.779 116.293 123.562 116.659 123.443C117.024 123.323 117.415 123.305 117.79 123.389C118.165 123.475 118.511 123.66 118.789 123.924C119.068 124.19 119.269 124.526 119.372 124.896C119.475 125.266 119.476 125.658 119.375 126.029C119.274 126.4 119.074 126.736 118.797 127.003C118.538 127.238 118.227 127.407 117.89 127.496C117.552 127.585 117.198 127.592 116.857 127.515C116.516 127.438 116.199 127.28 115.933 127.053C115.666 126.828 115.458 126.541 115.326 126.218ZM116.455 125.751C116.883 126.992 119.005 126.096 117.971 124.946C117.847 124.779 117.668 124.663 117.465 124.618C117.263 124.572 117.051 124.601 116.868 124.697C116.684 124.795 116.542 124.955 116.466 125.148C116.39 125.341 116.386 125.555 116.455 125.751Z" fill="white"/>
<path d="M94.8921 137.077C94.4895 136.92 94.152 136.631 93.9354 136.258C93.8259 136.022 93.769 135.765 93.769 135.507C93.769 135.247 93.8259 134.99 93.9354 134.754C94.0493 134.387 94.9044 131.737 95.9395 128.528C100.349 114.865 100.171 114.94 100.855 115.044C105.382 116.392 108.695 118.163 113.339 117.372C117.335 116.624 121.135 115.064 124.503 112.787C124.611 112.732 124.732 112.712 124.852 112.726C124.972 112.741 125.085 112.791 125.175 112.869C125.267 112.948 125.333 113.051 125.367 113.167C125.4 113.284 125.397 113.407 125.36 113.522C125.36 113.644 128.085 132.754 128.107 132.886C128.123 132.977 128.118 133.07 128.092 133.158C128.068 133.246 128.024 133.329 127.962 133.397C120.528 141.791 104.848 142.058 94.8921 137.077ZM101.146 116.411C94.9215 135.663 94.9068 135.461 95.0305 135.71C95.1434 135.83 95.2827 135.923 95.4372 135.981C104.726 140.625 119.815 140.426 126.853 132.796C126.832 132.673 126.801 132.769 124.232 114.421C120.954 116.44 117.337 117.849 113.557 118.58C108.82 119.387 105.321 117.729 101.146 116.411Z" fill="#4B1010"/>
<path d="M80.4288 148.813C80.2916 148.54 70.3299 148.691 69.3756 148.677C65.9615 148.609 62.5523 147.995 59.1407 147.995C57.4253 139.388 58.2794 130.465 61.5968 122.34C61.87 121.522 64.4633 114.836 65.2816 114.972L88.0666 118.793C84.5336 122.851 82.0021 127.68 80.6756 132.895C79.349 138.108 79.2644 143.561 80.4288 148.813Z" fill="#ADCD39"/>
<path d="M80.1616 149.364C79.1289 149.186 70.7094 149.31 69.3742 149.29C65.9442 149.235 62.4995 148.606 59.1405 148.606C59.0011 148.606 58.8659 148.558 58.7572 148.471C58.6485 148.384 58.5729 148.262 58.5427 148.126C56.8045 139.399 57.6688 130.354 61.0283 122.113C61.043 122.067 63.7478 114.07 65.3819 114.367L88.1669 118.188C88.2749 118.205 88.3762 118.251 88.4604 118.32C88.5448 118.39 88.609 118.48 88.6465 118.583C88.684 118.686 88.6934 118.796 88.6737 118.904C88.654 119.011 88.6058 119.111 88.5344 119.194C85.0538 123.174 82.5605 127.917 81.2563 133.041C79.9523 138.164 79.8744 143.524 81.0289 148.682C81.0537 148.795 81.0464 148.912 81.0075 149.02C80.9687 149.129 80.9001 149.225 80.8095 149.296C80.7189 149.367 80.61 149.411 80.4955 149.423C80.3808 149.435 80.2651 149.415 80.1616 149.364ZM79.6556 148.098C78.6539 143.047 78.7849 137.837 80.0391 132.844C81.2933 127.85 83.6396 123.196 86.9088 119.218L65.3635 115.606C64.0675 117.8 63.0003 120.122 62.1786 122.534C58.964 130.403 58.0815 139.029 59.6367 147.385C62.9442 147.434 66.1512 148.013 69.3987 148.065C72.0226 148.103 77.7728 147.967 79.6556 148.098Z" fill="#4B1010"/>
<path d="M75.4025 125.661C74.9149 124.449 74.9149 123.097 75.4025 121.886C75.4592 121.745 75.4619 121.589 75.4101 121.447C75.3584 121.305 75.2557 121.187 75.1222 121.116C74.9886 121.045 74.8335 121.026 74.6866 121.062C74.5397 121.099 74.4117 121.188 74.3269 121.314C72.3129 124.204 71.0458 127.55 70.6385 131.05C69.921 130.772 69.122 130.789 68.4173 131.099C67.7127 131.409 67.1597 131.986 66.8802 132.702C66.6523 133.622 67.38 134.705 69.0288 134.705C70.7291 134.705 71.7618 133.574 71.7618 132.99C71.7881 130.038 72.5082 127.133 73.8639 124.511C73.936 125.095 74.0856 125.666 74.3086 126.21C74.709 126.874 75.0018 127.596 75.1759 128.351C75.1476 128.892 75.0063 129.423 74.7612 129.907C74.5161 130.391 74.1725 130.818 73.7524 131.161C73.6904 131.214 73.6393 131.278 73.6021 131.35C73.5649 131.421 73.5423 131.499 73.5357 131.58C73.5291 131.661 73.5385 131.743 73.5635 131.819C73.5885 131.896 73.6284 131.968 73.6812 132.03C73.7339 132.091 73.7984 132.141 73.8707 132.178C73.943 132.215 74.0219 132.236 74.1026 132.242C74.1835 132.248 74.2646 132.237 74.3414 132.211C74.4182 132.185 74.489 132.145 74.5499 132.091C75.116 131.622 75.5735 131.036 75.8908 130.374C76.2079 129.71 76.3775 128.986 76.3874 128.251C76.2121 127.337 75.8788 126.461 75.4025 125.661ZM70.2403 133.133C69.4894 133.746 67.9533 133.461 68.0696 133C68.2371 132.716 68.4745 132.479 68.7592 132.313C69.044 132.146 69.3667 132.055 69.6964 132.049C70.3824 132.063 70.6103 132.835 70.2403 133.133Z" fill="white"/>
<path d="M85.6138 126.162C87.6661 130.803 91.2899 134.571 95.8474 136.804C96.0646 136.961 96.3134 137.069 96.5766 137.12C96.8398 137.171 97.111 137.163 97.3711 137.098C97.6311 137.033 97.8738 136.912 98.0821 136.744C98.2903 136.575 98.4592 136.363 98.5767 136.122C102.807 132.165 105.804 126.433 110.721 123.159C105.536 116.609 102.671 108.694 105.944 100.374C100.076 101.599 94.2084 102.421 88.3406 103.103C83.9759 109.65 82.4275 118.813 85.6138 126.162Z" fill="white"/>
<path d="M95.5743 137.352C90.8818 135.065 87.1534 131.186 85.0528 126.408C82.1214 119.765 82.8159 110.285 87.8323 102.765C87.8816 102.691 87.9465 102.628 88.0224 102.582C88.0984 102.535 88.1835 102.506 88.2721 102.496C95.3563 101.672 100.767 100.833 105.82 99.7748C105.929 99.7521 106.041 99.759 106.145 99.7951C106.25 99.8311 106.343 99.8946 106.414 99.9792C106.486 100.064 106.533 100.166 106.551 100.275C106.569 100.384 106.557 100.496 106.516 100.599C102.983 109.579 107.114 117.62 111.202 122.783C111.254 122.849 111.292 122.926 111.313 123.008C111.334 123.09 111.338 123.176 111.324 123.259C111.182 124.167 110.311 122.945 103.806 131.099C102.347 133.018 100.755 134.832 99.0423 136.529C98.8774 136.82 98.6543 137.074 98.3868 137.275C98.1194 137.476 97.8133 137.619 97.4878 137.696C97.1623 137.773 96.8243 137.783 96.495 137.724C96.1659 137.664 95.8524 137.538 95.5743 137.352ZM96.1158 136.249C97.5723 136.984 97.7867 136.023 98.1579 135.671C102.269 131.826 105.097 126.442 109.841 123.021C104.294 115.77 102.63 108.257 104.996 101.187C100.28 102.135 95.186 102.911 88.7033 103.672C81.4415 114.828 83.4823 130.126 96.1158 136.249Z" fill="#4B1010"/>
<path d="M92.0268 116.13C91.8839 116.13 91.7456 116.08 91.6357 115.989C91.5259 115.897 91.4514 115.771 91.425 115.63C91.3987 115.49 91.4223 115.345 91.4917 115.22C91.5611 115.095 91.672 114.998 91.805 114.947C94.2379 113.998 96.7168 113.171 99.2322 112.471C99.3864 112.434 99.549 112.459 99.6856 112.539C99.822 112.62 99.922 112.75 99.9644 112.903C100.007 113.056 99.9883 113.219 99.9127 113.358C99.8371 113.498 99.7104 113.603 99.5593 113.65C94.5833 115.033 92.3857 116.13 92.0268 116.13Z" fill="#ADCD39"/>
<path d="M91.7525 120.224C91.6087 120.224 91.4694 120.173 91.3591 120.081C91.2487 119.989 91.1742 119.861 91.1488 119.719C91.1234 119.578 91.1486 119.432 91.22 119.307C91.2914 119.182 91.4045 119.087 91.5394 119.037C94.3017 118.013 97.9253 116.726 100.347 115.515C100.419 115.479 100.497 115.457 100.578 115.452C100.658 115.446 100.739 115.456 100.815 115.482C100.891 115.507 100.962 115.547 101.023 115.6C101.083 115.653 101.133 115.717 101.169 115.789C101.205 115.861 101.226 115.94 101.232 116.02C101.238 116.1 101.228 116.181 101.202 116.257C101.177 116.333 101.136 116.404 101.084 116.465C101.031 116.525 100.967 116.575 100.895 116.611C97.9143 117.979 94.8625 119.184 91.7525 120.224Z" fill="#ADCD39"/>
<path d="M94.0797 122.68C93.9357 122.68 93.7959 122.631 93.6852 122.539C93.5743 122.447 93.4995 122.319 93.4737 122.177C93.448 122.035 93.473 121.889 93.5444 121.764C93.6158 121.639 93.729 121.543 93.864 121.493L99.3226 119.447C99.3984 119.417 99.4797 119.401 99.5615 119.402C99.6433 119.404 99.724 119.421 99.7989 119.454C99.8739 119.487 99.9414 119.534 99.9976 119.594C100.054 119.653 100.098 119.723 100.126 119.8C100.155 119.876 100.168 119.958 100.165 120.04C100.161 120.121 100.142 120.202 100.107 120.276C100.072 120.35 100.023 120.416 99.9621 120.471C99.9012 120.525 99.83 120.567 99.7526 120.594C93.8934 122.793 94.2353 122.68 94.0797 122.68Z" fill="#ADCD39"/>
<path d="M137.058 110.059C124.358 129.353 98.3591 145.717 76.3348 140.761C65.6908 138.442 54.9108 129.981 53.4101 118.656C51.3632 104.055 59.5499 86.5879 71.2853 77.5817C89.1324 64.1961 121.427 65.9075 127.779 72.2603L120.938 50.0878L120.001 43.0588C119.772 39.3923 118.028 36.0763 114.407 34.8709C110.337 33.1445 106.077 31.9076 101.716 31.1861C88.3861 28.927 74.7237 29.6132 61.6876 33.1964C48.6514 36.7797 36.5577 43.1731 26.2556 51.9278C20.2963 56.9037 15.436 63.0635 11.9827 70.0167C8.52944 76.9698 6.55853 84.5647 6.19499 92.3197C5.99826 93.9656 6.43633 95.6246 7.41999 96.9588C9.37595 99.8999 11.6153 102.642 14.106 105.147C13.9609 103.467 13.9991 101.777 14.22 100.106C14.8974 101.272 22.523 108.019 27.205 113.744C42.0458 131.763 45.9242 155.743 45.3533 179.106C45.1992 180.228 45.3897 181.371 45.8997 182.382C46.3974 183.107 47.0496 183.713 47.8095 184.155C68.3895 198.407 100.024 201.327 134.188 183.2C135.109 182.767 135.94 182.166 136.638 181.426C137.346 180.277 137.724 178.955 137.729 177.605C139.378 155.085 141.152 132.3 137.058 110.059Z" fill="#005A86"/>
<path d="M137.661 109.948C137.639 109.827 137.581 109.716 137.495 109.629C137.409 109.541 137.299 109.482 137.179 109.458C137.059 109.433 136.935 109.446 136.821 109.493C136.709 109.54 136.613 109.62 136.546 109.722C136.458 109.857 136.368 109.99 136.279 110.124C132.247 109.344 128.515 107.453 125.502 104.664C122.489 101.875 120.315 98.2996 119.227 94.341C117.079 86.3222 119.412 78.0485 125.133 73.3053C125.685 72.8515 126.343 72.5439 127.045 72.4111C127.15 72.5042 127.251 72.5973 127.346 72.6941C127.443 72.7902 127.569 72.8515 127.704 72.8679C127.84 72.8843 127.977 72.855 128.093 72.7846C128.211 72.7143 128.3 72.607 128.349 72.4796C128.398 72.3522 128.403 72.212 128.364 72.0816L121.233 48.967C121.601 48.6326 121.46 48.6583 120.612 43.0197C120.447 40.6415 119.577 38.3664 118.114 36.4843C117.145 35.4989 115.958 34.7539 114.649 34.3087C102.594 29.0853 83.0146 27.1008 65.4775 31.403C64.4417 28.9372 63.2405 26.5442 61.8821 24.2404C61.4392 23.2658 60.6604 22.4832 59.6881 22.0354C58.871 21.7983 57.9992 21.8313 57.2026 22.1297C51.3281 23.7761 45.7057 26.2165 40.4911 29.383C39.7654 29.7255 39.1536 30.2693 38.7284 30.9497C37.6908 32.3328 38.9795 40.2695 39.3249 41.9833C34.577 44.7562 30.0724 47.9264 25.8597 51.4599C19.8504 56.4865 14.9472 62.703 11.4587 69.7179C7.97036 76.7329 5.97243 84.3942 5.59083 92.2193C5.3702 94.0147 5.84053 95.8268 6.90648 97.2884C8.61809 99.8759 10.551 102.31 12.6836 104.564C14.575 106.546 17.0606 106.927 19.7984 106.667C22.2092 109.074 24.6262 111.554 26.7368 114.133C41.4699 132.018 45.3103 155.955 44.7443 179.03C44.5748 180.272 44.7884 181.538 45.3568 182.655C45.3763 182.695 45.4006 182.733 45.4291 182.768C45.9594 183.542 46.6553 184.187 47.4663 184.659C67.8013 198.733 99.5802 202.263 134.433 183.763C135.467 183.276 136.395 182.592 137.168 181.751C138.353 179.857 138.298 178.384 138.447 176.333C140.043 154.455 141.688 131.833 137.661 109.948ZM124.385 72.34C111.339 83.1666 116.565 107.057 135.533 111.225C122.867 129.419 97.7893 144.962 76.4645 140.163C66.4415 137.978 55.517 129.862 54.0164 118.57C52.0698 104.692 59.6514 87.2801 71.6564 78.0718C81.5972 70.6165 96.013 67.8529 108.39 68.0966C116.546 68.3061 122.494 69.476 125.804 71.5009C125.303 71.7285 124.827 72.0131 124.385 72.34ZM44.824 33.913C44.9806 33.6543 45.2243 33.4599 45.5112 33.3642C49.1617 31.4042 53.0633 29.4552 57.1658 28.8489C57.9425 30.3017 58.6481 31.7252 59.2875 33.1364C54.6565 34.5999 50.1406 36.4053 45.777 38.5374C45.4475 37.1899 45.0714 36.0078 44.8485 34.5427C44.7628 34.343 44.7541 34.1187 44.824 33.913ZM7.92446 96.6085C7.02181 95.3825 6.62211 93.8578 6.80726 92.3467C7.17646 84.6782 9.13042 77.1694 12.5459 70.2936C15.9615 63.4178 20.7646 57.3242 26.6523 52.397C42.2441 39.3116 63.3423 30.2699 85.5491 30.2699C94.6692 30.2699 105.841 31.8305 114.214 35.4516C115.336 35.8276 116.356 36.4562 117.197 37.2891C118.495 38.9807 119.262 41.0192 119.402 43.1471L119.827 45.9817C117.84 44.3623 114.357 43.1642 111.22 42.2491C107.108 41.1145 102.89 40.4032 98.6333 40.1262C73.7156 38.1197 50.0106 49.4485 34.1775 64.2967C25.8672 71.7195 19.605 81.1543 15.9924 91.695C14.3246 95.4279 13.4488 99.4658 13.4199 103.554C11.395 101.398 9.55658 99.0749 7.92446 96.6085ZM137.226 176.243C137.315 177.91 136.948 179.569 136.165 181.043C135.521 181.719 134.754 182.268 133.905 182.66C99.7444 200.79 68.426 197.676 48.0886 183.608C47.4271 183.216 46.8591 182.684 46.4238 182.051C45.9839 181.142 45.8261 180.122 45.9706 179.122C47.3818 121.235 19.867 107.086 14.8641 99.9773C15.3109 97.2763 16.0758 94.6376 17.1426 92.1164C25.1272 67.7965 49.1225 50.5069 73.3518 43.6505C95.6468 37.8036 115.614 43.5525 119.425 47.2582L126.617 70.5724C117.967 65.1052 87.8656 64.3812 70.9128 77.0955C58.5856 86.5562 50.8007 104.46 52.7975 118.736C54.3667 130.583 65.758 139.084 76.195 141.359C98.1519 146.299 123.819 130.371 136.71 111.656C140.385 132.928 138.763 154.938 137.226 176.243Z" fill="#4B1010"/>
<path d="M65.8264 57.5928C64.1555 57.5928 62.895 59.7978 62.895 62.7084C62.895 65.619 64.1555 67.824 65.8264 67.824C67.4973 67.824 68.7591 65.619 68.7591 62.7084C68.7591 59.7978 67.4973 57.5928 65.8264 57.5928Z" fill="#4B1010"/>
<path d="M104.328 53.6171C103.161 51.8433 100.788 49.8196 99.0607 50.9539C97.6642 51.8714 97.8198 54.4023 99.4209 56.8339C100.636 58.6824 102.993 60.6057 104.688 59.4971C106.085 58.5832 105.931 56.0536 104.328 53.6171Z" fill="#4B1010"/>
<path d="M59.1405 57.1803C59.0508 57.1804 58.9621 57.1607 58.8807 57.1226C58.7994 57.0845 58.7275 57.029 58.6699 56.96C58.6124 56.8912 58.5708 56.8103 58.548 56.7235C58.5251 56.6366 58.5217 56.5458 58.5378 56.4575C58.8218 54.8036 59.4617 53.2312 60.4133 51.8491C61.7951 49.8756 64.3725 48.9789 67.2868 51.1655C69.3338 52.7537 71.6729 53.9241 74.1713 54.6102C74.2491 54.6308 74.3221 54.6664 74.386 54.7151C74.4501 54.7638 74.5039 54.8247 74.5443 54.8942C74.5849 54.9636 74.6113 55.0404 74.6221 55.1202C74.6329 55.1999 74.6279 55.2809 74.6074 55.3587C74.5869 55.4365 74.5513 55.5095 74.5025 55.5734C74.4538 55.6375 74.393 55.6913 74.3234 55.7318C74.254 55.7722 74.1772 55.7987 74.0974 55.8095C74.0178 55.8203 73.9367 55.8154 73.8589 55.7948C71.2073 55.0692 68.7243 53.8289 66.5518 52.1443C64.3064 50.4599 62.4125 51.13 61.4166 52.5522C60.5664 53.7896 59.9955 55.1969 59.7432 56.6768C59.7176 56.818 59.6434 56.9458 59.5332 57.0379C59.423 57.1299 59.2841 57.1803 59.1405 57.1803Z" fill="#4B1010"/>
<path d="M92.9774 52.5399C92.815 52.547 92.6564 52.4894 92.5364 52.3795C92.4165 52.2698 92.3452 52.1168 92.338 51.9543C92.3309 51.7919 92.3886 51.6333 92.4983 51.5133C92.6082 51.3934 92.7611 51.322 92.9235 51.3149C94.1669 51.2022 95.1567 49.9417 95.8807 48.8563L97.799 46.116C100.695 42.2621 104.615 43.7321 106.506 47.9939C106.572 48.1426 106.577 48.3114 106.518 48.4632C106.46 48.6151 106.344 48.7375 106.195 48.8036C106.047 48.8698 105.878 48.8741 105.726 48.8158C105.574 48.7575 105.452 48.6411 105.385 48.4925C104.893 47.3475 104.113 46.3491 103.122 45.5941C100.939 44.2381 99.6182 45.7387 98.7937 46.8363L96.8974 49.5497C96.0399 50.8371 94.6202 52.5399 92.9774 52.5399Z" fill="#4B1010"/>
<path d="M112.901 155.014L112.492 151.331C112.472 151.151 112.381 150.986 112.24 150.872C112.098 150.76 111.918 150.707 111.738 150.727C111.558 150.747 111.393 150.838 111.28 150.979C111.167 151.121 111.114 151.301 111.134 151.481L111.367 153.564C110.521 152.929 109.629 152.36 108.698 151.859C105.731 150.375 105.17 152.069 104.752 152.912C103.923 155.123 103.228 157.347 102.557 159.498C102.528 159.583 102.516 159.675 102.522 159.766C102.529 159.857 102.553 159.945 102.595 160.027C102.636 160.108 102.693 160.18 102.762 160.239C102.832 160.298 102.913 160.342 102.999 160.369C103.086 160.396 103.178 160.405 103.269 160.397C103.359 160.388 103.447 160.361 103.527 160.318C103.607 160.274 103.678 160.216 103.735 160.144C103.792 160.073 103.834 159.991 103.859 159.904C104.55 157.476 105.381 155.09 106.35 152.759C106.658 152.543 107.225 152.649 108.055 153.062C108.851 153.494 109.619 153.975 110.354 154.506C109.679 154.507 109.005 154.474 108.334 154.407C108.156 154.393 107.981 154.449 107.844 154.563C107.708 154.679 107.622 154.841 107.604 155.018C107.586 155.195 107.638 155.372 107.749 155.512C107.859 155.651 108.02 155.742 108.197 155.764C109.56 155.906 110.935 155.906 112.298 155.764C112.477 155.744 112.641 155.654 112.754 155.513C112.867 155.373 112.92 155.193 112.901 155.014Z" fill="white"/>
<path d="M109.45 169.588C109.386 169.419 109.258 169.282 109.093 169.207C108.929 169.133 108.741 169.126 108.572 169.189C106.462 170 104.243 170.491 101.988 170.647C101.801 170.663 101.613 170.636 101.438 170.566C100.855 170.298 100.961 169.281 101.028 168.82C101.169 167.849 101.396 166.845 101.641 165.872C101.872 166.504 102.079 167.154 102.382 168.077C102.439 168.248 102.562 168.39 102.724 168.471C102.886 168.552 103.073 168.565 103.245 168.509C103.416 168.451 103.558 168.328 103.639 168.166C103.72 168.004 103.734 167.817 103.676 167.645C103.295 166.357 102.827 165.096 102.275 163.871C102.194 163.709 102.052 163.587 101.881 163.529C101.709 163.472 101.522 163.485 101.36 163.566L98.0856 165.204C97.9231 165.285 97.7996 165.428 97.7422 165.6C97.6847 165.772 97.6981 165.96 97.7793 166.123C97.8605 166.286 98.003 166.409 98.1752 166.466C98.3476 166.523 98.5356 166.51 98.6981 166.429L100.299 165.628C99.5335 168.705 98.7961 172.02 102.037 172.02C104.442 171.859 106.809 171.339 109.059 170.476C109.143 170.445 109.22 170.396 109.286 170.333C109.351 170.271 109.404 170.197 109.44 170.114C109.476 170.032 109.496 169.942 109.498 169.852C109.499 169.762 109.483 169.673 109.45 169.588Z" fill="white"/>
<path d="M121.874 161.884L116.46 157.687C116.316 157.58 116.136 157.534 115.958 157.558C115.781 157.583 115.62 157.676 115.511 157.818C115.401 157.96 115.353 158.139 115.374 158.318C115.396 158.495 115.487 158.657 115.628 158.768L121.086 163C121.912 163.637 121.253 164.408 120.43 164.827C119.117 165.359 117.861 166.023 116.682 166.809C116.927 166.085 117.202 165.339 117.54 164.593C117.58 164.511 117.603 164.422 117.608 164.33C117.613 164.238 117.599 164.147 117.568 164.06C117.537 163.975 117.488 163.896 117.426 163.829C117.363 163.762 117.288 163.708 117.204 163.671C117.121 163.634 117.03 163.613 116.939 163.612C116.847 163.611 116.756 163.627 116.671 163.661C116.586 163.695 116.509 163.747 116.444 163.812C116.38 163.877 116.328 163.954 116.294 164.038C115.745 165.308 115.279 166.611 114.899 167.94C114.872 168.029 114.865 168.124 114.876 168.217C114.888 168.309 114.918 168.398 114.966 168.479C115.013 168.559 115.077 168.628 115.152 168.684C115.228 168.739 115.314 168.778 115.405 168.798C119.185 169.638 119.114 169.633 119.237 169.633C119.404 169.632 119.565 169.569 119.69 169.458C119.814 169.345 119.893 169.192 119.911 169.025C119.929 168.859 119.886 168.692 119.789 168.555C119.692 168.419 119.548 168.323 119.385 168.285L117.547 167.876C120.572 165.916 121.614 166.202 122.516 164.761C122.808 164.293 122.904 163.73 122.784 163.191C122.664 162.653 122.337 162.184 121.874 161.884Z" fill="white"/>
<path d="M17.6803 187.769C17.6178 187.719 17.5661 187.655 17.5277 187.586C17.4895 187.515 17.4656 187.437 17.4573 187.357C17.4491 187.277 17.4567 187.196 17.4797 187.119C17.5028 187.042 17.5407 186.97 17.5914 186.907C17.6422 186.846 17.7048 186.793 17.7756 186.755C17.8462 186.717 17.9239 186.693 18.0039 186.685C18.084 186.677 18.1649 186.684 18.2419 186.707C18.319 186.731 18.3908 186.769 18.4532 186.819C23.804 191.172 32.0287 192.154 39.4007 189.315C54.3188 183.579 61.1592 168.858 69.5517 157.055C69.6459 156.923 69.7888 156.833 69.949 156.806C70.1093 156.779 70.2737 156.817 70.4061 156.91C70.5385 157.005 70.6281 157.148 70.655 157.309C70.682 157.469 70.6442 157.633 70.55 157.766C61.9616 169.842 55.202 184.55 39.8405 190.458C32.3876 193.327 23.5995 192.587 17.6803 187.769Z" fill="#ADCD39"/>
<path d="M31.986 199.778C31.8236 199.778 31.6678 199.713 31.5529 199.599C31.438 199.484 31.3735 199.328 31.3735 199.165C31.3735 199.002 31.438 198.847 31.5529 198.733C31.6678 198.618 31.8236 198.553 31.986 198.553C40.3883 198.553 47.4774 194.466 51.945 191.037C57.825 186.528 62.5535 180.822 67.135 175.304C67.1858 175.24 67.2488 175.187 67.3203 175.148C67.3917 175.11 67.4702 175.086 67.5512 175.077C67.6321 175.07 67.7139 175.077 67.7917 175.1C67.8695 175.125 67.9417 175.164 68.0043 175.215C68.0669 175.268 68.1185 175.332 68.1561 175.404C68.1937 175.476 68.2165 175.555 68.2232 175.636C68.23 175.716 68.2206 175.798 68.1954 175.876C68.1703 175.953 68.13 176.025 68.077 176.086C63.4575 181.656 58.6825 187.415 52.6959 192.011C48.0727 195.554 40.7325 199.778 31.986 199.778Z" fill="#ADCD39"/>
<path d="M73.7446 129.709C73.6086 129.436 73.4727 129.3 73.4727 129.027C73.5796 128.783 73.7741 128.589 74.0178 128.481C74.0178 128.072 77.4355 126.031 77.9758 125.616C83.4883 121.342 88.1139 120.399 92.5765 121.113C93.1185 121.149 93.639 121.338 94.0772 121.659C94.2801 121.815 94.4197 122.039 94.4699 122.29C94.5201 122.541 94.4776 122.8 94.3503 123.022C94.237 123.174 94.0937 123.3 93.9293 123.395C93.7649 123.489 93.583 123.548 93.3948 123.569L89.4381 124.794C90.763 124.732 92.0908 124.823 93.3948 125.066C94.4973 125.311 96.2809 126.014 96.6693 127.112C97.2462 128.741 95.5839 128.998 94.4863 128.75C93.1452 128.44 91.7629 128.349 90.3924 128.477C92.1662 128.204 96.3948 130.797 95.0326 132.98C94.8037 133.255 94.5059 133.462 94.1699 133.582C93.834 133.702 93.4721 133.73 93.1217 133.663C91.5047 133.339 87.0591 130.795 79.7496 137.757C78.9404 136.498 78.0274 135.31 77.0203 134.204C75.7813 132.82 74.6839 131.313 73.7446 129.709Z" fill="#005A86"/>
<path d="M97.2403 126.901C96.7245 125.445 94.4228 124.592 92.9001 124.362L93.4954 124.177C94.0384 124.094 94.5269 123.801 94.8564 123.361C95.0753 123.005 95.1511 122.578 95.0689 122.168C94.9867 121.757 94.7524 121.393 94.413 121.148C93.9029 120.776 93.2992 120.554 92.6698 120.507C88.1544 119.784 83.2765 120.733 77.6023 125.125C76.1674 125.985 74.8063 126.963 73.5328 128.048C73.3611 128.137 73.2126 128.266 73.0992 128.423C72.9856 128.58 72.9103 128.761 72.879 128.952C72.8478 129.143 72.8614 129.339 72.919 129.523C72.9766 129.708 73.0764 129.877 73.2107 130.017C73.4459 130.433 73.7007 130.835 73.9604 131.234C64.9431 138.895 60.0615 148.35 50.3938 154.051C43.6134 158.051 33.8563 158.906 29.1719 152.847C27.8407 150.864 27.2843 148.461 27.6088 146.095C28.6035 138.4 33.9788 131.283 38.8604 127.209C39.0031 127.096 39.1217 126.955 39.2092 126.796C39.2968 126.637 39.3515 126.46 39.3702 126.28C39.3889 126.099 39.3711 125.915 39.3181 125.741C39.2649 125.567 39.1776 125.406 39.0611 125.266C38.9445 125.126 38.8011 125.011 38.6394 124.928C38.4777 124.843 38.301 124.793 38.1196 124.78C37.938 124.765 37.7556 124.787 37.5829 124.845C37.41 124.902 37.2505 124.993 37.1136 125.113C31.8167 129.523 25.9955 137.299 24.9028 145.744C23.9375 153.203 29.5076 159.968 39.3578 159.968C50.3571 159.968 58.6344 152.056 65.7676 143.695C68.766 140.033 72.0424 136.61 75.5676 133.451C76.6094 134.571 77.5764 135.758 78.4622 137.004C79.3001 138.206 79.3455 138.333 79.6872 138.365C79.7743 138.374 79.8622 138.362 79.9448 138.334C80.0274 138.305 80.1029 138.258 80.1662 138.198C82.8453 135.648 86.8951 132.802 90.9462 133.716C91.5587 133.839 92.2937 134.123 92.9932 134.261C95.4505 134.751 97.4375 131.855 94.2525 129.328C96.8139 129.808 97.7964 128.472 97.2403 126.901ZM90.2957 127.881C90.1356 127.903 89.9905 127.987 89.892 128.115C89.7935 128.244 89.7496 128.406 89.77 128.566C89.7904 128.727 89.8732 128.872 90.0006 128.972C90.128 129.071 90.2896 129.116 90.4501 129.097C92.1577 128.93 95.4052 131.189 94.5391 132.622C94.3795 132.803 94.1758 132.939 93.9478 133.018C93.7199 133.097 93.4755 133.116 93.2382 133.072C91.5612 132.736 87.0801 130.28 79.8379 136.843C79.1274 135.767 78.3327 134.749 77.4614 133.797C76.1619 132.388 75.0407 130.825 74.1233 129.142C75.1089 128.237 76.19 127.442 77.3475 126.769C79.0689 125.489 80.8768 124.33 82.7583 123.3C85.7776 121.741 89.2171 121.192 92.5718 121.732C92.9933 121.767 93.3962 121.92 93.7343 122.174C93.8413 122.29 93.9046 122.44 93.9132 122.597C93.5849 122.926 94.0357 122.733 89.252 124.219C89.1123 124.263 88.9927 124.355 88.9149 124.478C88.8371 124.602 88.8064 124.75 88.8282 124.895C88.9752 125.875 90.3215 125.017 93.2382 125.67C94.4632 125.947 95.8278 126.605 96.0802 127.318C96.7527 129.192 93.3276 127.42 90.2957 127.881Z" fill="#4B1010"/>
<path d="M210.745 162.049C210.593 160.887 210.026 159.817 209.148 159.041C208.27 158.263 207.14 157.829 205.968 157.819H157.036L151.932 149.222C151.61 148.677 151.15 148.227 150.6 147.915C150.049 147.604 149.426 147.443 148.793 147.448H130.372C129.887 147.5 129.416 147.646 128.989 147.88C128.561 148.114 128.184 148.431 127.879 148.812C127.574 149.193 127.349 149.63 127.214 150.098C127.079 150.567 127.04 151.058 127.096 151.542L138.287 222.5H220.706L210.745 162.049Z" fill="#ADCD39"/>
<path d="M220.707 223.113H138.285C138.14 223.113 137.999 223.06 137.888 222.966C137.778 222.872 137.705 222.741 137.681 222.597L127.311 157.917C127.297 157.83 127.302 157.742 127.327 157.658C127.35 157.573 127.393 157.495 127.449 157.427C127.741 157.084 127.493 157.212 205.971 157.212C207.295 157.224 208.569 157.715 209.557 158.592C210.547 159.471 211.186 160.677 211.355 161.989L221.313 222.411C221.327 222.498 221.321 222.587 221.295 222.672C221.271 222.756 221.229 222.835 221.171 222.901C221.114 222.967 221.043 223.021 220.962 223.058C220.882 223.095 220.795 223.113 220.707 223.113ZM138.808 221.888H219.984L210.141 162.148C210.013 161.129 209.519 160.192 208.752 159.509C207.984 158.825 206.996 158.443 205.969 158.432H128.634L138.808 221.888Z" fill="#4B1010"/>
<path d="M220.706 222.501H138.287L156.294 175.694C157.386 172.284 158.75 170.782 161.48 170.782H233.256C236.257 170.782 239.942 172.284 238.577 176.377L220.706 222.501Z" fill="white"/>
<path d="M220.707 223.113H138.285C138.186 223.113 138.088 223.089 138 223.042C137.912 222.996 137.837 222.929 137.781 222.847C137.724 222.765 137.689 222.671 137.678 222.572C137.666 222.473 137.679 222.373 137.715 222.28L155.722 175.475C156.924 171.717 158.595 170.17 161.48 170.17H233.257C237.454 170.17 240.501 172.55 239.159 176.571L221.274 222.721C221.23 222.836 221.152 222.934 221.051 223.004C220.95 223.074 220.83 223.112 220.707 223.113ZM139.177 221.888H220.287L238.018 176.155C238.227 175.67 238.314 175.14 238.272 174.613C238.229 174.086 238.058 173.578 237.773 173.132C237.194 172.531 236.49 172.063 235.712 171.762C234.933 171.462 234.098 171.336 233.265 171.394H161.483C159.146 171.394 157.942 172.568 156.882 175.881L139.177 221.888Z" fill="#4B1010"/>
<path d="M233.261 170.17H212.703L211.355 161.978C211.185 160.666 210.547 159.459 209.557 158.581C208.568 157.704 207.294 157.213 205.971 157.2H157.384L152.451 148.891C152.076 148.257 151.54 147.732 150.898 147.371C150.256 147.009 149.531 146.822 148.793 146.83H130.786C130.177 146.82 129.573 146.941 129.014 147.185C128.456 147.429 127.957 147.79 127.55 148.245C127.144 148.698 126.84 149.233 126.657 149.815C126.476 150.397 126.422 151.011 126.498 151.615C127.92 162.517 126.317 151.655 137.674 222.488C137.736 222.874 137.88 223.107 138.409 223.107H220.546C221.089 223.107 221.183 222.976 221.336 222.582L239.17 176.564C240.504 172.55 237.454 170.17 233.261 170.17ZM127.704 151.46C127.655 151.062 127.685 150.658 127.793 150.271C127.901 149.884 128.083 149.522 128.332 149.206C128.579 148.891 128.887 148.627 129.237 148.431C129.588 148.234 129.974 148.109 130.372 148.061H148.793C149.319 148.056 149.837 148.189 150.295 148.447C150.753 148.705 151.137 149.079 151.405 149.531L155.961 157.202H128.452L127.704 151.46ZM205.969 158.432C206.995 158.443 207.984 158.825 208.752 159.508C209.519 160.192 210.013 161.129 210.141 162.148L211.463 170.17H161.483C158.599 170.17 156.928 171.716 155.725 175.475L138.53 220.157L128.633 158.432H205.969ZM238.017 176.155L220.293 221.887H139.177L156.882 175.881C157.942 172.573 159.146 171.393 161.483 171.393H233.261C236.493 171.395 239.082 172.941 238.017 176.155Z" fill="#4B1010"/>
<path d="M198.463 150.996C192.778 146.935 183.442 139.623 181.406 138.169C184.378 135.595 187.163 132.811 189.736 129.839C190.436 129.034 197.515 120.424 197.242 120.284C202.387 123.747 207.767 126.847 213.343 129.562C209.208 137.245 204.216 144.436 198.463 150.996Z" fill="#ADCD39"/>
<path d="M212.537 120.351C200.734 112.599 197.968 110.375 197.264 111.509C193.469 117.577 188.912 123.135 183.705 128.046C179.493 132.237 175.045 136.185 170.384 139.871C170.313 139.928 170.256 139.999 170.216 140.08C170.175 140.16 170.155 140.249 170.152 140.338C170.15 140.429 170.168 140.518 170.205 140.6C170.242 140.682 170.295 140.756 170.364 140.815C179.439 148.57 189.197 155.489 199.519 161.484C199.651 161.561 199.807 161.587 199.956 161.555C200.107 161.523 200.239 161.436 200.328 161.311C208.143 150.37 215.352 139.008 221.924 127.277C222.276 126.642 222.017 126.578 212.537 120.351ZM198.37 150.174C192.54 145.966 183.614 139.008 182.392 138.122C183.668 136.994 184.877 135.835 186.016 134.686C186.138 134.692 185.792 134.726 193.537 133.721C197.528 132.922 196.321 136.367 199.662 143.002C200.056 144.203 200.802 145.258 201.802 146.029C200.691 147.432 199.548 148.814 198.37 150.174ZM202.555 145.063C201.728 144.415 201.113 143.534 200.788 142.534C197.613 136.185 198.641 133.714 195.584 132.519C194.44 132.291 194.561 132.353 187.377 133.284C190.969 129.45 194.323 125.4 197.422 121.157C202.253 124.377 207.289 127.278 212.498 129.843C209.595 135.175 206.271 140.263 202.555 145.063Z" fill="#4B1010"/>
<path d="M205.286 136.464C204.783 136.443 204.294 136.291 203.867 136.023C203.44 135.756 203.09 135.383 202.851 134.939C201.838 132.367 205.159 130.767 206.812 132.417C207.244 132.866 207.5 133.456 207.537 134.078C207.56 134.385 207.52 134.695 207.417 134.987C207.313 135.277 207.151 135.544 206.939 135.768C206.727 135.993 206.471 136.171 206.186 136.29C205.901 136.41 205.595 136.47 205.286 136.464ZM203.948 134.405C204.43 135.182 205.56 135.492 206.1 134.869C206.263 134.627 206.336 134.336 206.308 134.046C206.28 133.756 206.151 133.484 205.946 133.277C205.174 132.51 203.509 133.263 203.948 134.405Z" fill="#4B1010"/>
<path d="M192.868 112.515L185.909 106.92C185.487 107.448 180.834 113.167 180.179 113.334C181.411 114.952 182.831 116.417 184.409 117.7C184.545 117.836 184.818 117.973 184.818 118.246C184.853 118.483 184.806 118.724 184.682 118.929C184.262 120.344 184.167 121.837 184.409 123.294C184.763 125.475 186.571 126.282 187.547 123.841C187.692 123.09 188.02 122.387 188.503 121.794C188.568 121.711 188.65 121.643 188.744 121.596C188.838 121.548 188.942 121.523 189.048 121.521C189.205 121.531 189.358 121.572 189.499 121.643C189.638 121.713 189.764 121.811 189.866 121.93C190.728 122.632 191.349 123.586 191.641 124.659C191.808 125.272 192.037 125.866 192.323 126.433C192.485 126.71 192.733 126.925 193.028 127.049C193.323 127.172 193.65 127.195 193.96 127.115C194.187 126.994 194.38 126.819 194.522 126.604C194.666 126.391 194.754 126.146 194.779 125.89C195.171 124.674 195.073 123.351 194.506 122.205C194.642 122.205 194.779 122.343 194.915 122.479C195.282 123.007 195.516 123.615 195.598 124.252C195.598 124.662 195.734 125.071 195.734 125.477C196.007 126.432 196.689 126.702 197.372 125.887C197.887 124.935 198.134 123.86 198.086 122.779C198.037 121.697 197.696 120.648 197.098 119.746C198.178 120.465 198.085 121.308 198.323 121.793C198.485 122.045 198.724 122.237 199.006 122.339C200.644 122.611 199.279 118.927 198.869 118.381C197.645 115.79 194.915 114.292 192.868 112.515Z" fill="#005A86"/>
<path d="M199.408 118.081C198.094 115.348 195.317 113.828 193.27 112.052L186.288 106.442C186.162 106.342 186 106.295 185.84 106.313C185.679 106.331 185.532 106.411 185.43 106.537C185.051 107.014 184.671 107.481 184.292 107.938C179.08 103.732 171.34 102.344 163.486 104.229C155.063 106.25 147.778 111.006 138.098 116.619C138.229 117.59 138.351 118.563 138.465 119.535C138.547 119.507 138.627 119.47 138.703 119.426C148.678 113.661 155.975 108.839 164.128 106.882C171.136 105.2 177.978 106.375 182.531 110.021C180.925 111.858 180.311 112.444 180.136 112.716L180.036 112.741C179.938 112.766 179.847 112.814 179.772 112.882C179.696 112.95 179.64 113.036 179.606 113.131C179.572 113.226 179.563 113.329 179.577 113.429C179.593 113.529 179.633 113.623 179.694 113.704C181.077 115.427 182.602 117.031 184.253 118.498C183.662 120.055 183.507 121.745 183.807 123.384C184.269 126.23 186.957 127.114 188.152 123.964C188.258 123.276 188.573 122.638 189.053 122.136C190.046 122.728 190.765 123.689 191.052 124.81C191.23 125.467 191.473 126.104 191.78 126.71C192.022 127.139 192.41 127.466 192.874 127.634C193.335 127.803 193.844 127.8 194.304 127.628C194.571 127.476 194.804 127.27 194.988 127.022C195.172 126.776 195.3 126.493 195.369 126.193C195.881 127.123 196.947 127.368 197.908 126.193C198.507 125.19 198.779 124.026 198.685 122.861C198.946 122.982 199.242 123.004 199.519 122.924C199.795 122.841 200.032 122.661 200.184 122.416C200.874 121.275 199.778 118.668 199.408 118.081ZM199.126 121.712C198.869 121.575 198.861 121.542 198.785 121.237C198.709 120.829 198.551 120.441 198.32 120.097C198.088 119.753 197.788 119.461 197.438 119.238C197.32 119.159 197.178 119.124 197.037 119.138C196.896 119.152 196.765 119.214 196.665 119.314C196.564 119.415 196.502 119.547 196.489 119.688C196.475 119.829 196.511 119.97 196.589 120.088C198.265 122.604 197.154 125.742 196.571 125.761C196.546 125.752 196.436 125.658 196.344 125.38C196.327 124.974 196.221 124.602 196.197 124.13C195.475 120.513 193.495 121.558 193.958 122.477C194.457 123.546 194.532 124.766 194.166 125.888C194.144 126.022 194.094 126.148 194.016 126.259C193.941 126.371 193.84 126.464 193.724 126.532C193.561 126.563 193.392 126.543 193.24 126.478C193.087 126.414 192.957 126.305 192.866 126.165C192.599 125.638 192.386 125.086 192.229 124.516C191.917 123.334 191.241 122.279 190.295 121.503C190.137 121.325 189.945 121.181 189.729 121.08C189.513 120.979 189.281 120.922 189.043 120.913C188.846 120.917 188.652 120.964 188.475 121.051C188.298 121.138 188.141 121.263 188.019 121.417C187.495 122.055 187.134 122.812 186.973 123.622C186.728 124.248 186.314 124.738 186.042 124.738C185.513 124.738 185.129 123.953 185.007 123.194C184.789 121.869 184.866 120.512 185.232 119.219C186.005 118.032 184.83 117.27 184.572 117.053C183.293 115.989 182.123 114.802 181.077 113.508C181.55 112.861 182.946 111.563 185.998 107.79L192.472 112.994C194.517 114.764 197.167 116.231 198.315 118.653C198.332 118.691 198.353 118.726 198.377 118.759C198.892 119.656 199.152 120.678 199.126 121.712Z" fill="#4B1010"/>
<path d="M183.317 101.938C183.211 101.939 183.105 101.911 183.012 101.858C182.919 101.805 182.842 101.728 182.788 101.636C178.23 93.9197 171.943 87.3668 164.422 82.4934C156.901 77.62 148.351 74.5591 139.446 73.5515C139.285 73.5335 139.138 73.452 139.036 73.3251C138.934 73.1982 138.888 73.0362 138.905 72.8747C138.923 72.7132 139.005 72.5655 139.131 72.4641C139.259 72.3626 139.421 72.3159 139.582 72.3339C148.677 73.3632 157.408 76.4895 165.089 81.4666C172.77 86.4438 179.19 93.1358 183.845 101.016C183.9 101.109 183.928 101.215 183.93 101.323C183.93 101.431 183.902 101.537 183.849 101.63C183.795 101.724 183.718 101.802 183.625 101.856C183.532 101.91 183.425 101.938 183.317 101.938Z" fill="#ADCD39"/>
<path d="M192.459 107.807C192.332 107.807 192.207 107.767 192.103 107.692C191.999 107.618 191.922 107.512 191.88 107.391C187.412 94.2962 178.409 83.2309 166.494 76.1956C166.426 76.1547 166.365 76.1005 166.317 76.0362C166.268 75.9719 166.233 75.8987 166.213 75.8207C166.193 75.7428 166.188 75.6617 166.199 75.5821C166.211 75.5024 166.238 75.4258 166.279 75.3565C166.319 75.2873 166.374 75.2267 166.438 75.1785C166.503 75.1301 166.576 75.0949 166.654 75.075C166.732 75.0549 166.813 75.0505 166.892 75.0617C166.972 75.0731 167.049 75.1 167.118 75.1409C179.283 82.3234 188.477 93.6207 193.039 106.991C193.072 107.083 193.082 107.182 193.068 107.279C193.054 107.377 193.017 107.469 192.96 107.549C192.904 107.629 192.828 107.694 192.741 107.739C192.654 107.784 192.557 107.807 192.459 107.807Z" fill="#ADCD39"/>
</svg>
