<svg width="375" height="365" viewBox="0 0 375 365" fill="none" xmlns="http://www.w3.org/2000/svg">
<path d="M319.636 179.17C246.175 136.758 127.465 136.758 54.4803 179.17C-18.5042 221.582 -18.1009 290.34 55.3432 332.752C128.787 375.164 247.514 375.172 320.499 332.752C393.483 290.332 393.136 221.574 319.636 179.17Z" fill="#F5F5F5"/>
<path d="M170.788 338.325L186.231 353.051L229.345 337.93L213.901 323.204L170.788 338.325Z" fill="#E0E0E0"/>
<path d="M93.6337 286.283L99.9241 289.912L120.852 277.751L85.0449 257.073L64.1093 269.243L73.2948 274.541L58.7463 276.67L71.2706 305.017L100.045 300.807L93.6337 286.283Z" fill="#E0E0E0"/>
<path d="M282.506 259.477L323.442 242.445L306.039 228.461L273.409 242.074L272.764 234.55L273.95 234.824L285.071 218.848L243.707 209.17L273.675 191.864L252.707 179.694L216.901 200.372L235.796 211.348L227.119 223.824L243.191 227.558L222.328 228.114L231.562 209.719L203.046 204.88L194.005 222.88L145.029 224.187L146.255 238.55L133.457 235.525L122.295 251.453L157.828 259.864L118.311 261.961L121.11 279.09L167.666 276.671L168.142 277.848L141.529 280.615L144.674 290.582L119.424 298.865L121.142 300.615L114.102 298.203L88.9642 323.526L114.771 332.131L133.561 313.179L144.457 324.276L168.449 316.405L166.449 318.421L192.255 327.026L209.852 309.284L212.272 310.679L245.336 291.574L270.046 282.848L252.506 266.268L252.925 266.429L269.506 252.187L250.151 244.59L268.425 244.098L265.151 245.461L282.506 259.477ZM217.489 237.784L221.788 229.227L222.707 240.034L218.804 243.388L208.796 236.308L217.489 237.784ZM196.909 240.025L196.417 234.195L205.981 235.808L178.788 248.711L180.255 246.614L156.981 241.106L196.909 240.025ZM197.288 295.018L191.522 293.098L179.505 305.195L174.473 289.26L217.094 283.55L197.288 295.018ZM162.691 308.099L178.288 306.486L169.65 315.195L162.691 308.099ZM221.32 281.147L215.256 266.155L170.683 272.114L169.118 262.526L172.973 257.026L187.086 267.074L217.57 252.638L236.925 260.235L218.239 266.832L234.417 282.155L227.014 277.856L221.32 281.147Z" fill="#E0E0E0"/>
<path d="M225.78 331.922L254.909 335.334L264.764 306.68L235.635 303.261L225.78 331.922Z" fill="#E0E0E0"/>
<path d="M262.611 272.783C277.127 264.404 300.563 264.404 314.974 272.783C329.386 281.162 329.305 294.735 314.805 303.106C300.305 311.477 276.853 311.485 262.441 303.106C248.03 294.727 248.111 281.154 262.611 272.783Z" fill="#E0E0E0"/>
<path d="M199.094 200.945L113.295 250.848C112.283 251.435 111.134 251.743 109.964 251.743C108.795 251.743 107.646 251.435 106.634 250.848L62.843 225.558C62.5901 225.412 62.38 225.202 62.234 224.95C62.0879 224.697 62.011 224.41 62.011 224.118C62.011 223.826 62.0879 223.54 62.234 223.287C62.38 223.034 62.5901 222.824 62.843 222.679L148.642 172.799C149.654 172.213 150.803 171.904 151.973 171.904C153.142 171.904 154.291 172.213 155.303 172.799L199.094 198.09C199.341 198.237 199.546 198.446 199.689 198.696C199.831 198.946 199.906 199.229 199.906 199.517C199.906 199.805 199.831 200.088 199.689 200.338C199.546 200.588 199.341 200.797 199.094 200.945Z" fill="#E0E0E0"/>
<path d="M110.005 231.43L109.948 249.688L196.522 199.373L196.578 181.115L110.005 231.43Z" fill="#0282AD"/>
<path d="M95.1016 205.615L64.9078 188.195L64.811 223.631L109.924 249.688L109.981 231.43L95.1016 205.615Z" fill="#0282AD"/>
<path opacity="0.3" d="M95.1016 205.615L64.9078 188.195L64.811 223.631L109.924 249.688L109.981 231.43L95.1016 205.615Z" fill="black"/>
<path d="M110.005 231.429L196.578 181.114L181.683 155.308L95.1016 205.614L110.005 231.429Z" fill="#0282AD"/>
<path opacity="0.1" d="M110.005 231.429L196.578 181.114L181.683 155.308L95.1016 205.614L110.005 231.429Z" fill="black"/>
<g opacity="0.5">
<path d="M181.32 167.235L186.393 177.912C186.474 178.055 186.5 178.222 186.466 178.383C186.431 178.544 186.339 178.686 186.207 178.783L171.917 187.033C171.846 187.066 171.77 187.083 171.692 187.084C171.615 187.085 171.538 187.07 171.466 187.04C171.395 187.009 171.331 186.964 171.278 186.908C171.225 186.851 171.184 186.784 171.159 186.711L166.11 176.073C166.11 175.993 166.062 175.936 166.046 175.888C166.039 175.816 166.039 175.743 166.046 175.67C166.055 175.608 166.068 175.546 166.086 175.485C166.11 175.431 166.14 175.379 166.175 175.332C166.212 175.28 166.258 175.236 166.312 175.203L180.61 166.952C180.653 166.928 180.699 166.912 180.747 166.904C180.805 166.887 180.867 166.887 180.925 166.904C180.977 166.911 181.027 166.931 181.07 166.96C181.131 166.991 181.185 167.032 181.231 167.081C181.265 167.13 181.295 167.181 181.32 167.235ZM185.175 177.864L181.038 169.081L177.965 179.025C177.927 179.153 177.844 179.262 177.731 179.332C177.679 179.362 177.622 179.382 177.562 179.389C177.502 179.396 177.442 179.39 177.384 179.372L167.626 176.751L171.82 185.622L185.175 177.912M179.852 168.944L168.247 175.646L177.046 178.065L179.852 168.977" fill="white"/>
</g>
<path d="M181.675 155.307L151.505 137.888L64.9319 188.195L95.1015 205.614L181.675 155.307Z" fill="#0282AD"/>
<path opacity="0.2" d="M181.675 155.307L151.505 137.888L64.9319 188.195L95.1015 205.614L181.675 155.307Z" fill="black"/>
<path opacity="0.2" d="M151.505 137.888L64.9319 188.195L83.3917 198.856L169.965 148.541L151.505 137.888Z" fill="black"/>
<path d="M130.973 190.534L101.908 207.429L111.819 224.607L140.892 207.712L130.973 190.534Z" fill="#455A64"/>
<g opacity="0.5">
<path d="M124.44 207.67L123.247 208.355L120.828 204.057L122.618 203.017L124.44 207.67Z" fill="white"/>
<path d="M124.118 208.574C124.24 208.503 124.377 208.461 124.518 208.449C124.659 208.437 124.8 208.456 124.933 208.506C125.065 208.555 125.185 208.633 125.284 208.734C125.383 208.835 125.459 208.957 125.505 209.09C125.659 209.358 125.704 209.676 125.631 209.976C125.557 210.277 125.371 210.537 125.11 210.703C124.984 210.772 124.845 210.813 124.702 210.824C124.559 210.834 124.416 210.813 124.281 210.762C124.147 210.712 124.026 210.633 123.925 210.531C123.824 210.429 123.747 210.306 123.698 210.171C123.545 209.903 123.503 209.586 123.581 209.287C123.66 208.988 123.852 208.732 124.118 208.574Z" fill="white"/>
<path d="M129.852 206.389C130.19 206.665 130.463 207.013 130.651 207.408C130.84 207.802 130.938 208.234 130.941 208.671C130.967 209.072 130.886 209.474 130.706 209.834C130.526 210.194 130.254 210.5 129.916 210.719L122.4 215.058C122.066 215.242 121.684 215.317 121.305 215.273C120.927 215.23 120.571 215.07 120.287 214.816C119.95 214.539 119.679 214.19 119.492 213.796C119.305 213.401 119.208 212.97 119.207 212.534L119.053 202.13C119.024 201.729 119.104 201.326 119.284 200.966C119.464 200.605 119.738 200.3 120.078 200.082C120.409 199.898 120.79 199.822 121.167 199.864C121.544 199.906 121.899 200.064 122.182 200.316L129.852 206.389ZM130.094 208.574C130.093 208.312 130.033 208.053 129.92 207.816C129.808 207.579 129.644 207.369 129.441 207.203L121.779 201.139C121.608 200.988 121.395 200.893 121.169 200.867C120.943 200.841 120.714 200.885 120.513 200.993C120.308 201.124 120.142 201.307 120.032 201.525C119.923 201.742 119.875 201.985 119.892 202.227L120.045 212.631C120.048 212.893 120.108 213.151 120.221 213.388C120.334 213.625 120.497 213.834 120.699 214.002C120.869 214.152 121.082 214.247 121.309 214.273C121.535 214.299 121.764 214.255 121.965 214.147L129.481 209.808C129.683 209.675 129.846 209.49 129.954 209.274C130.061 209.057 130.11 208.816 130.094 208.574Z" fill="white"/>
</g>
<path d="M143.142 206.397L133.231 189.228L130.973 190.534L140.892 207.712L143.142 206.397Z" fill="#0282AD"/>
<path opacity="0.3" d="M143.142 206.397L133.231 189.228L130.973 190.534L140.892 207.712L143.142 206.397Z" fill="black"/>
<path opacity="0.1" d="M111.819 224.607L140.892 207.712L139.973 206.18L113.36 221.648L104.223 206.083L101.908 207.43L111.819 224.607Z" fill="black"/>
<path d="M192.61 192.662L189.57 194.412L192.627 196.178L192.61 192.662Z" fill="#455A64"/>
<path d="M189.57 194.413L114.287 237.857L114.295 241.373L192.627 196.179L189.57 194.413Z" fill="#37474F"/>
<path d="M82.1336 62.0007C82.1336 62.0894 82.1336 62.1781 82.19 62.2588C82.19 62.3556 82.2465 62.4604 82.2787 62.5572C82.3088 62.6425 82.3438 62.726 82.3836 62.8072L82.5368 63.1298L82.6739 63.3556C82.7492 63.4739 82.8298 63.5948 82.9158 63.7185L83.061 63.904L83.1981 64.0733L83.2626 64.1459C83.3594 64.2507 83.4642 64.3475 83.5691 64.4524L83.7142 64.5894C83.811 64.6782 83.9239 64.7669 84.0368 64.8556L84.2223 65.0007L84.3352 65.0975L84.7142 65.3475C84.8433 65.4362 84.9723 65.5249 85.1175 65.6056L94.8675 71.2508L130.586 50.6297L120.836 44.9845C116.715 42.5651 110.021 42.5651 105.868 44.9845L85.19 57.0087C82.9723 58.291 81.9642 60.0007 82.0932 61.6781C82.0983 61.7865 82.1118 61.8944 82.1336 62.0007Z" fill="#455A64"/>
<path opacity="0.5" d="M82.1336 62.0007C82.1336 62.0894 82.1336 62.1781 82.19 62.2588C82.19 62.3556 82.2465 62.4604 82.2787 62.5572C82.3088 62.6425 82.3438 62.726 82.3836 62.8072L82.5368 63.1298L82.6739 63.3556C82.7492 63.4739 82.8298 63.5948 82.9158 63.7185L83.061 63.904L83.1981 64.0733L83.2626 64.1459C83.3594 64.2507 83.4642 64.3475 83.5691 64.4524L83.7142 64.5894C83.811 64.6782 83.9239 64.7669 84.0368 64.8556L84.2223 65.0007L84.3352 65.0975L84.7142 65.3475C84.8433 65.4362 84.9723 65.5249 85.1175 65.6056L94.8675 71.2508L130.586 50.6297L120.836 44.9845C116.715 42.5651 110.021 42.5651 105.868 44.9845L85.19 57.0087C82.9723 58.291 81.9642 60.0007 82.0932 61.6781C82.0983 61.7865 82.1118 61.8944 82.1336 62.0007Z" fill="white"/>
<path d="M85.1419 65.6779C85.0048 65.5973 84.8757 65.5086 84.7467 65.4199L84.3677 65.1699L84.2548 65.0731L84.0773 64.936C83.9644 64.8473 83.8515 64.7586 83.7548 64.6698L83.6096 64.5328C83.5042 64.4394 83.4045 64.3398 83.3112 64.2344L83.2467 64.1618L83.1096 63.9924L82.9725 63.815C82.8811 63.6913 82.8005 63.5704 82.7306 63.4521C82.6822 63.3795 82.6338 63.3069 82.5935 63.2344L82.4402 62.9118C82.4402 62.8311 82.3677 62.7585 82.3354 62.6779C82.3354 62.5811 82.2789 62.4763 82.2467 62.3795C82.2467 62.2989 82.2064 62.2182 82.1902 62.1376C82.1824 62.0329 82.1824 61.9277 82.1902 61.8231C82.1902 61.7182 82.1902 61.6214 82.1902 61.5166L82.287 94.8717V94.9685C82.2831 95.0383 82.2831 95.1083 82.287 95.1782C82.2791 95.2909 82.2791 95.4041 82.287 95.5169V95.5733C82.287 95.6459 82.3354 95.7104 82.3515 95.783C82.3677 95.8556 82.408 96.0008 82.4402 96.1056V96.1701C82.4665 96.2335 82.4961 96.2954 82.5289 96.3556C82.5773 96.4685 82.6257 96.5814 82.6822 96.6862V96.7669C82.6822 96.8233 82.7548 96.8717 82.787 96.9201C82.8193 96.9685 82.9483 97.1701 83.037 97.2911C83.064 97.3268 83.0883 97.3646 83.1096 97.404L83.3193 97.6459L83.3919 97.7266C83.51 97.8609 83.6366 97.9875 83.7709 98.1056L83.8354 98.1621C83.9322 98.2508 84.0532 98.3395 84.158 98.4282C84.2628 98.5169 84.3515 98.5895 84.4564 98.6621L84.8354 98.9201L85.1096 99.0976L85.2386 99.1782L94.9887 104.823L94.8919 71.4764L85.1419 65.6779Z" fill="#37474F"/>
<path opacity="0.3" d="M85.1419 65.6779C85.0048 65.5973 84.8757 65.5086 84.7467 65.4199L84.3677 65.1699L84.2548 65.0731L84.0773 64.936C83.9644 64.8473 83.8515 64.7586 83.7548 64.6698L83.6096 64.5328C83.5042 64.4394 83.4045 64.3398 83.3112 64.2344L83.2467 64.1618L83.1096 63.9924L82.9725 63.815C82.8811 63.6913 82.8005 63.5704 82.7306 63.4521C82.6822 63.3795 82.6338 63.3069 82.5935 63.2344L82.4402 62.9118C82.4402 62.8311 82.3677 62.7585 82.3354 62.6779C82.3354 62.5811 82.2789 62.4763 82.2467 62.3795C82.2467 62.2989 82.2064 62.2182 82.1902 62.1376C82.1824 62.0329 82.1824 61.9277 82.1902 61.8231C82.1902 61.7182 82.1902 61.6214 82.1902 61.5166L82.287 94.8717V94.9685C82.2831 95.0383 82.2831 95.1083 82.287 95.1782C82.2791 95.2909 82.2791 95.4041 82.287 95.5169V95.5733C82.287 95.6459 82.3354 95.7104 82.3515 95.783C82.3677 95.8556 82.408 96.0008 82.4402 96.1056V96.1701C82.4665 96.2335 82.4961 96.2954 82.5289 96.3556C82.5773 96.4685 82.6257 96.5814 82.6822 96.6862V96.7669C82.6822 96.8233 82.7548 96.8717 82.787 96.9201C82.8193 96.9685 82.9483 97.1701 83.037 97.2911C83.064 97.3268 83.0883 97.3646 83.1096 97.404L83.3193 97.6459L83.3919 97.7266C83.51 97.8609 83.6366 97.9875 83.7709 98.1056L83.8354 98.1621C83.9322 98.2508 84.0532 98.3395 84.158 98.4282C84.2628 98.5169 84.3515 98.5895 84.4564 98.6621L84.8354 98.9201L85.1096 99.0976L85.2386 99.1782L94.9887 104.823L94.8919 71.4764L85.1419 65.6779Z" fill="white"/>
<path d="M130.61 50.7266L94.8917 71.3477L94.9885 104.695L130.707 84.0817L130.61 50.7266Z" fill="#263238"/>
<path d="M56.3351 201.259L56.1174 103.597C56.1974 102.085 56.6335 100.613 57.3903 99.3013C58.1471 97.9896 59.2031 96.8752 60.4723 96.0489L181.844 26.1451C182.285 25.8264 182.801 25.6289 183.341 25.5723C183.882 25.5156 184.428 25.602 184.925 25.8226L180.352 23.1774C179.546 22.6693 178.425 22.7096 177.183 23.4354L55.8029 93.3473C54.5348 94.1728 53.4794 95.2859 52.7227 96.5961C51.966 97.9064 51.5292 99.3768 51.448 100.888L51.6657 198.526C51.6123 199.043 51.6891 199.566 51.8891 200.046C52.0891 200.526 52.4059 200.949 52.8109 201.276L53.0529 201.413L57.561 204.042C57.1334 203.724 56.7958 203.3 56.5809 202.812C56.3661 202.325 56.2814 201.79 56.3351 201.259Z" fill="#0282AD"/>
<path opacity="0.3" d="M180.376 23.1774C179.57 22.6693 178.449 22.7096 177.207 23.4354L55.8028 93.3473C54.3694 94.2538 53.2162 95.541 52.4722 97.0651L57.1416 99.7667C57.8856 98.2426 59.0387 96.9554 60.4722 96.0489L181.844 26.1451C182.285 25.8264 182.801 25.6289 183.341 25.5723C183.882 25.5156 184.428 25.602 184.925 25.8226L180.376 23.1774Z" fill="white"/>
<path opacity="0.2" d="M51.448 100.887L51.6657 198.525C51.6123 199.043 51.6891 199.565 51.8891 200.046C52.0891 200.526 52.4059 200.949 52.8109 201.275L53.0529 201.412L57.561 204.041C57.1278 203.725 56.7846 203.302 56.5653 202.812C56.3461 202.323 56.2584 201.785 56.3109 201.251L56.0932 103.589C56.1257 102.249 56.4768 100.936 57.1174 99.7583L52.448 97.0566C51.8192 98.2376 51.4767 99.5497 51.448 100.887Z" fill="black"/>
<path d="M186.255 28.6374C186.309 28.1039 186.221 27.5658 186 27.0774C185.779 26.5889 185.433 26.1673 184.997 25.8551C184.501 25.6345 183.955 25.5482 183.414 25.6048C182.873 25.6614 182.357 25.8589 181.917 26.1777L60.4722 96.0492C59.203 96.8754 58.147 97.9898 57.3902 99.3016C56.6335 100.613 56.1973 102.085 56.1173 103.598L56.3351 201.26C56.2825 201.793 56.3702 202.332 56.5895 202.821C56.8087 203.31 57.1519 203.734 57.5851 204.05H57.6576C58.151 204.254 58.6882 204.33 59.2187 204.269C59.7492 204.208 60.2555 204.014 60.6899 203.703L182.118 133.848C183.387 133.023 184.443 131.911 185.2 130.6C185.957 129.29 186.393 127.819 186.473 126.308L186.255 28.6374ZM179.957 130.114L60.6415 198.824L60.4319 103.59C60.5101 102.838 60.7459 102.111 61.1239 101.457C61.5018 100.802 62.0135 100.235 62.6254 99.7912L181.981 31.0809L182.191 126.316C182.107 127.07 181.864 127.799 181.479 128.453C181.094 129.108 180.576 129.674 179.957 130.114Z" fill="#0282AD"/>
<path d="M181.949 31.0811L178.86 32.8553L179.062 124.791C178.982 125.543 178.745 126.269 178.367 126.923C177.99 127.577 177.479 128.145 176.868 128.59L60.6337 195.526V198.816L179.989 130.106C180.602 129.663 181.115 129.095 181.494 128.441C181.873 127.787 182.111 127.06 182.191 126.308L181.949 31.0811Z" fill="#0282AD"/>
<path opacity="0.3" d="M181.949 31.0811L178.86 32.8553L179.062 124.791C178.982 125.543 178.745 126.269 178.367 126.923C177.99 127.577 177.479 128.145 176.868 128.59L60.6337 195.526V198.816L179.989 130.106C180.602 129.663 181.115 129.095 181.494 128.441C181.873 127.787 182.111 127.06 182.191 126.308L181.949 31.0811Z" fill="black"/>
<path d="M179.062 124.807L178.86 32.8711L62.6255 99.8071C62.0135 100.251 61.5019 100.818 61.1239 101.473C60.746 102.127 60.5102 102.854 60.4319 103.606L60.6335 195.542L176.868 128.606C177.479 128.161 177.989 127.593 178.367 126.939C178.745 126.285 178.982 125.559 179.062 124.807Z" fill="#455A64"/>
<g opacity="0.5">
<path d="M143.408 130.332L143.416 133.792L108.013 154.227L108.005 150.768L143.408 130.332Z" fill="white"/>
<path d="M111.408 119.913L113.545 121.131L108.594 129.703L113.569 132.542L111.456 136.204L106.473 133.373L101.529 141.937L99.3919 140.728L104.344 132.155L99.3596 129.316L101.481 125.647L106.465 128.478L111.408 119.913Z" fill="white"/>
<path d="M149.763 97.7676L151.892 98.9853L146.949 107.558L151.925 110.397L149.804 114.066L144.828 111.227L139.884 119.792L137.747 118.582L142.691 110.018L137.715 107.179L139.836 103.501L144.812 106.34L149.763 97.7676Z" fill="white"/>
</g>
<path d="M98.4705 97.3643L98.4785 99.0498L91.8494 102.88L91.8575 107.026L97.7688 103.614L97.7769 105.259L91.8656 108.671L91.8736 113.05L98.7447 109.082L98.7527 110.751L90.2043 115.687L90.1639 102.163L98.4705 97.3643Z" fill="white"/>
<path d="M108.382 100.639L111.188 103.574L109.358 104.631L106.793 101.953C106.567 102.098 106.317 102.276 106.059 102.421L103.132 104.098V108.211L101.454 109.179V95.6548L106.051 93.0016C109.108 91.2354 110.971 91.937 110.979 94.8806C110.953 95.9654 110.71 97.034 110.264 98.0231C109.818 99.0122 109.178 99.9016 108.382 100.639ZM106.011 100.792C108.156 99.55 109.285 97.7839 109.285 95.8484C109.285 93.9129 108.14 93.4774 105.987 94.7113L103.132 96.3645V102.445L106.003 100.792" fill="white"/>
<path d="M120.624 93.5742L123.422 96.5097L121.592 97.5581L119.043 94.8726C118.801 95.0258 118.551 95.2032 118.301 95.3484L115.398 97.0258V101.131L113.704 102.107L113.664 88.5822L118.261 85.929C121.333 84.1548 123.18 84.8644 123.188 87.808C123.17 88.8922 122.934 89.9616 122.494 90.9524C122.053 91.9431 121.417 92.8348 120.624 93.5742ZM118.245 93.7274C120.406 92.4855 121.527 90.7193 121.519 88.7838C121.511 86.8483 120.382 86.3645 118.229 87.6467L115.374 89.2596V95.3323L118.229 93.7194" fill="white"/>
<path d="M131.237 78.2923C134.826 76.2197 137.487 77.631 137.495 81.6068C137.404 83.737 136.789 85.8118 135.704 87.6476C134.62 89.4833 133.099 91.0232 131.277 92.1311C127.656 94.2279 124.995 92.7924 124.987 88.8327C124.979 84.873 127.616 80.381 131.237 78.2923ZM131.277 90.3892C132.614 89.5536 133.726 88.4042 134.518 87.0409C135.309 85.6776 135.755 84.1416 135.818 82.5665C135.818 79.5584 133.85 78.5342 131.245 80.002C129.898 80.8351 128.775 81.9862 127.977 83.3544C127.178 84.7226 126.727 86.2659 126.664 87.8488C126.664 90.8489 128.632 91.8811 131.277 90.3892Z" fill="white"/>
<path d="M147.003 78.3492L149.818 81.2685L147.971 82.3331L145.422 79.6476C145.197 79.7927 144.931 79.9782 144.689 80.1153L141.777 81.8008V85.9057L140.1 86.8734V73.3572L144.697 70.6959C147.753 68.9378 149.616 69.6313 149.624 72.583C149.594 73.6704 149.347 74.7409 148.897 75.7313C148.447 76.7216 147.803 77.6118 147.003 78.3492ZM144.632 78.4943C146.785 77.2524 147.906 75.4862 147.858 73.5588C147.81 71.6314 146.729 71.1394 144.576 72.4136L141.713 74.0669V80.1476L144.576 78.5346" fill="white"/>
<path d="M103.344 42.8787L99.8919 36.2739V36.1771L101.021 28.7173C101.119 28.0852 101.023 27.4381 100.745 26.862C100.467 26.2858 100.02 25.8078 99.4644 25.4915L83.9079 16.5882C83.5624 16.3893 83.1521 16.3357 82.7672 16.4393C82.3823 16.5429 82.0543 16.7952 81.8554 17.1406C81.6565 17.4861 81.603 17.8964 81.7066 18.2813C81.8102 18.6662 82.0624 18.9942 82.4078 19.1931L97.9725 28.1286L98.0451 28.2899L96.9241 35.7577C96.8236 36.4208 96.9366 37.0986 97.2467 37.6932L100.698 44.2981V44.4271L95.7467 56.2821C95.5861 56.668 95.5039 57.0819 95.5047 57.4998V59.766C95.4995 59.9088 95.5375 60.0499 95.6137 60.1708C95.69 60.2916 95.801 60.3867 95.9322 60.4434C96.2635 60.6107 96.6295 60.6978 97.0007 60.6978C97.3719 60.6978 97.7379 60.6107 98.0693 60.4434C98.192 60.3891 98.2979 60.3028 98.3759 60.1936C98.4539 60.0843 98.5012 59.9562 98.5128 59.8224V57.4031L103.456 45.5481C103.634 45.1219 103.715 44.6621 103.696 44.2009C103.676 43.7398 103.556 43.2885 103.344 42.8787Z" fill="#0282AD"/>
<path d="M107.65 35.2901V35.1852L109.569 29.6126C109.753 29.0783 109.789 28.5044 109.674 27.9513L106.9 14.2415C106.821 13.849 106.589 13.5041 106.256 13.2825C105.922 13.0609 105.514 12.9809 105.122 13.0601C104.729 13.1392 104.384 13.371 104.163 13.7045C103.941 14.038 103.861 14.4458 103.94 14.8383L106.723 28.6449L104.803 34.2256C104.564 34.9123 104.564 35.6598 104.803 36.3465L106.747 41.6208V41.7176L103.731 51.4918C103.641 51.7956 103.595 52.1106 103.594 52.4273V54.5564C103.606 54.6878 103.652 54.8137 103.729 54.9213C103.805 55.029 103.909 55.1145 104.029 55.1693C104.359 55.3404 104.726 55.4297 105.098 55.4297C105.469 55.4297 105.836 55.3404 106.166 55.1693C106.299 55.1138 106.411 55.0193 106.489 54.8983C106.567 54.7773 106.606 54.6356 106.602 54.4919V52.3628L109.618 42.5885C109.821 41.9259 109.802 41.2146 109.561 40.5643L107.65 35.2901Z" fill="#455A64"/>
<path d="M134.715 21.9756H129.497C128.977 21.9739 128.465 22.1012 128.006 22.3461C127.547 22.591 127.156 22.9458 126.868 23.3788L123.949 27.7418L123.852 27.8063L120.029 28.7095C119.55 28.8231 119.103 29.0469 118.725 29.3633C118.347 29.6797 118.048 30.0799 117.852 30.5321C117.556 31.2266 117.513 32.0029 117.731 32.7257L118.158 34.3386C118.174 34.3774 118.174 34.4208 118.158 34.4596C118.133 34.4924 118.1 34.5176 118.061 34.5322L116.884 34.8225C116.351 34.9549 115.862 35.2238 115.464 35.6028C115.067 35.9818 114.775 36.4577 114.618 36.9838L110.981 49.1371C110.9 49.4366 110.865 49.7465 110.876 50.0565V51.9275C110.885 52.0608 110.93 52.1891 111.007 52.2986C111.084 52.408 111.189 52.4944 111.311 52.5484C111.643 52.7157 112.009 52.8029 112.38 52.8029C112.751 52.8029 113.117 52.7157 113.448 52.5484C113.587 52.4919 113.703 52.3923 113.78 52.2644C113.857 52.1366 113.891 51.9873 113.876 51.8387V50.0081L117.513 37.8548L117.618 37.7499L118.795 37.4596C119.268 37.3371 119.705 37.1076 120.074 36.7887C120.444 36.4698 120.734 36.0702 120.924 35.6209C121.203 34.9279 121.243 34.1616 121.037 33.4434L120.602 31.8305C120.594 31.8114 120.589 31.7908 120.589 31.77C120.589 31.7492 120.594 31.7287 120.602 31.7096C120.609 31.6895 120.622 31.6721 120.64 31.6592C120.657 31.6464 120.677 31.6386 120.699 31.637L124.586 30.7821C125.365 30.5941 126.046 30.1226 126.497 29.4595L129.408 25.0966L129.537 25.024H134.755C134.962 25.0392 135.17 25.0115 135.365 24.9428C135.561 24.8741 135.74 24.7658 135.892 24.6246C136.044 24.4835 136.165 24.3125 136.248 24.1225C136.331 23.9324 136.373 23.7273 136.373 23.52C136.373 23.3126 136.331 23.1075 136.248 22.9175C136.165 22.7274 136.044 22.5565 135.892 22.4153C135.74 22.2742 135.561 22.1659 135.365 22.0971C135.17 22.0284 134.962 22.0008 134.755 22.0159L134.715 21.9756Z" fill="#0282AD"/>
<g opacity="0.1">
<path d="M103.343 42.8797L99.8917 36.2748V36.1781L101.021 28.7183C101.119 28.0862 101.023 27.4391 100.745 26.863C100.467 26.2868 100.02 25.8088 99.4643 25.4925L83.9077 16.5892C83.5623 16.3903 83.152 16.3367 82.7671 16.4403C82.3822 16.5439 82.0542 16.7962 81.8553 17.1416C81.6564 17.487 81.6028 17.8973 81.7064 18.2822C81.81 18.6671 82.0623 18.9951 82.4077 19.194L97.9724 28.1296L98.0449 28.2909L96.924 35.7587C96.8235 36.4217 96.9365 37.0996 97.2466 37.6942L100.698 44.2991V44.4281L95.7465 56.2831C95.586 56.6689 95.5038 57.0829 95.5046 57.5008V59.767C95.4994 59.9098 95.5373 60.0509 95.6136 60.1717C95.6899 60.2926 95.8009 60.3876 95.932 60.4444C96.2634 60.6117 96.6294 60.6988 97.0006 60.6988C97.3718 60.6988 97.7378 60.6117 98.0691 60.4444C98.1919 60.39 98.2978 60.3038 98.3758 60.1945C98.4538 60.0853 98.5011 59.9571 98.5127 59.8234V57.404L103.456 45.5491C103.633 45.1229 103.715 44.6631 103.696 44.2019C103.676 43.7407 103.556 43.2894 103.343 42.8797Z" fill="white"/>
<path d="M107.65 35.2911V35.1862L109.569 29.6136C109.753 29.0793 109.789 28.5054 109.674 27.9523L106.9 14.2425C106.821 13.85 106.589 13.5051 106.255 13.2835C105.922 13.0619 105.514 12.9819 105.122 13.061C104.729 13.1402 104.384 13.372 104.163 13.7055C103.941 14.039 103.861 14.4468 103.94 14.8393L106.722 28.6458L104.803 34.2265C104.564 34.9133 104.564 35.6607 104.803 36.3475L106.747 41.6218V41.7185L103.73 51.4928C103.641 51.7966 103.595 52.1116 103.593 52.4283V54.5573C103.606 54.6888 103.652 54.8147 103.729 54.9223C103.805 55.0299 103.909 55.1155 104.029 55.1702C104.359 55.3413 104.726 55.4307 105.097 55.4307C105.469 55.4307 105.836 55.3413 106.166 55.1702C106.299 55.1148 106.411 55.0203 106.489 54.8993C106.567 54.7783 106.606 54.6366 106.601 54.4928V52.3638L109.618 42.5895C109.821 41.9268 109.801 41.2156 109.561 40.5653L107.65 35.2911Z" fill="white"/>
<path d="M134.715 21.9766H129.497C128.977 21.9749 128.464 22.1022 128.006 22.3471C127.547 22.5919 127.156 22.9468 126.868 23.3798L123.948 27.7428L123.852 27.8073L120.029 28.7105C119.549 28.824 119.103 29.0479 118.725 29.3643C118.347 29.6807 118.048 30.0809 117.852 30.5331C117.556 31.2276 117.513 32.0038 117.731 32.7267L118.158 34.3396C118.174 34.3784 118.174 34.4218 118.158 34.4605C118.133 34.4934 118.1 34.5186 118.061 34.5331L116.884 34.8235C116.351 34.9559 115.862 35.2248 115.464 35.6038C115.067 35.9828 114.775 36.4587 114.618 36.9848L110.981 49.1381C110.9 49.4376 110.865 49.7475 110.876 50.0575V51.9284C110.885 52.0618 110.93 52.1901 111.007 52.2995C111.084 52.409 111.189 52.4954 111.311 52.5494C111.643 52.7167 112.009 52.8038 112.38 52.8038C112.751 52.8038 113.117 52.7167 113.448 52.5494C113.586 52.4928 113.703 52.3933 113.78 52.2654C113.857 52.1375 113.89 51.9883 113.876 51.8397V50.0091L117.513 37.8557L117.618 37.7509L118.795 37.4606C119.267 37.3381 119.705 37.1085 120.074 36.7897C120.443 36.4708 120.734 36.0712 120.924 35.6219C121.203 34.9289 121.243 34.1626 121.037 33.4444L120.602 31.8315C120.593 31.8124 120.589 31.7918 120.589 31.771C120.589 31.7502 120.593 31.7296 120.602 31.7105C120.609 31.6905 120.622 31.673 120.639 31.6602C120.657 31.6473 120.677 31.6396 120.698 31.6379L124.586 30.7831C125.365 30.5951 126.046 30.1236 126.497 29.4605L129.408 25.0976L129.537 25.025H134.755C134.962 25.0401 135.169 25.0125 135.365 24.9438C135.561 24.8751 135.74 24.7667 135.892 24.6256C136.044 24.4844 136.165 24.3135 136.248 24.1234C136.331 23.9334 136.373 23.7283 136.373 23.5209C136.373 23.3136 136.331 23.1085 136.248 22.9185C136.165 22.7284 136.044 22.5574 135.892 22.4163C135.74 22.2752 135.561 22.1668 135.365 22.0981C135.169 22.0294 134.962 22.0018 134.755 22.0169L134.715 21.9766Z" fill="white"/>
</g>
<path d="M56.3513 3.31445L65.0691 13.3307L71.1256 9.76612L78.2305 26.6937L69.9885 14.6936L63.5449 19.0162L56.3513 3.31445Z" fill="#0282AD"/>
<path d="M97.7548 0L93.7064 8.10491L97.7548 8.72588L94.4322 16.9276L101.392 7.47587L95.8839 6.54037L97.7548 0Z" fill="#0282AD"/>
<path d="M133.271 2.72559L131.61 12.3628L128.287 11.1128L126.553 20.879L129.255 13.395L132.997 14.9918L133.271 2.72559Z" fill="#0282AD"/>
<path d="M138.602 19.8395L145.287 13.9846V16.912L150.102 13.541L143.626 20.5008L143.796 16.3878L138.602 19.8395Z" fill="#0282AD"/>
<path d="M136.223 28.6369L142.07 34.2176L143.175 31.0805L149.473 35.9677L142.852 27.6611L141.65 31.8144L136.223 28.6369Z" fill="#0282AD"/>
<path d="M89.8111 40.54L80.924 43.8626L84.0611 46.2578L77.1901 50.2175L88.4079 47.1853L85.045 44.4836L89.8111 40.54Z" fill="#0282AD"/>
<g opacity="0.5">
<path d="M56.3513 3.31445L65.0691 13.3307L71.1256 9.76612L78.2305 26.6937L69.9885 14.6936L63.5449 19.0162L56.3513 3.31445Z" fill="white"/>
<path d="M97.7548 0L93.7064 8.10491L97.7548 8.72588L94.4322 16.9276L101.392 7.47587L95.8839 6.54037L97.7548 0Z" fill="white"/>
<path d="M133.271 2.72559L131.61 12.3628L128.287 11.1128L126.553 20.879L129.255 13.395L132.997 14.9918L133.271 2.72559Z" fill="white"/>
<path d="M138.602 19.8395L145.287 13.9846V16.912L150.102 13.541L143.626 20.5008L143.796 16.3878L138.602 19.8395Z" fill="white"/>
<path d="M136.223 28.6369L142.07 34.2176L143.174 31.0805L149.473 35.9677L142.852 27.6611L141.65 31.8144L136.223 28.6369Z" fill="white"/>
<path d="M89.8111 40.54L80.924 43.8626L84.0611 46.2578L77.1901 50.2175L88.4079 47.1853L85.045 44.4836L89.8111 40.54Z" fill="white"/>
</g>
<path d="M215.223 263.479L166.086 270.051L172.86 286.817L222.006 280.237L215.223 263.479Z" fill="#0282AD"/>
<path opacity="0.2" d="M215.223 263.479L196.159 278.011L166.086 270.051L215.223 263.479Z" fill="white"/>
<path opacity="0.1" d="M215.223 263.479L222.006 280.237L172.86 286.817L166.086 270.051L196.159 278.011L215.223 263.479Z" fill="white"/>
<path d="M238.2 205.179L227.119 221.122L273.95 232.114L285.039 216.171L238.2 205.179Z" fill="#0282AD"/>
<path opacity="0.3" d="M285.039 216.171L254.966 221.695L238.199 205.179L285.039 216.171Z" fill="white"/>
<path opacity="0.1" d="M285.039 216.171L273.95 232.114L227.119 221.122L238.2 205.179L254.966 221.695L285.039 216.171Z" fill="white"/>
<path d="M131.94 233.122L120.852 249.066L167.683 260.058L178.772 244.114L131.94 233.122Z" fill="#0282AD"/>
<path opacity="0.3" d="M178.772 244.114L148.699 249.638L131.941 233.122L178.772 244.114Z" fill="white"/>
<path opacity="0.1" d="M178.772 244.114L167.683 260.058L120.852 249.066L131.94 233.122L148.699 249.638L178.772 244.114Z" fill="white"/>
<path d="M306.071 225.784L265.127 242.809L282.507 256.793L323.442 239.768L306.071 225.784Z" fill="#0282AD"/>
<path opacity="0.5" d="M306.071 225.784L298.144 243.462L265.127 242.809L306.071 225.784Z" fill="white"/>
<path opacity="0.3" d="M306.071 225.784L323.442 239.768L282.507 256.793L265.127 242.809L298.144 243.462L306.071 225.784Z" fill="white"/>
<path d="M227.643 233.122L211.054 247.364L252.925 263.767L269.506 249.533L227.643 233.122Z" fill="#0282AD"/>
<path opacity="0.2" d="M269.506 249.533L238.103 251.292L227.643 233.122L269.506 249.533Z" fill="white"/>
<path opacity="0.1" d="M269.506 249.533L252.925 263.767L211.054 247.364L227.643 233.122L238.103 251.292L269.506 249.533Z" fill="white"/>
<path d="M264.764 303.993L235.635 300.582L225.78 329.235L254.91 332.655L264.764 303.993Z" fill="#0282AD"/>
<path opacity="0.5" d="M235.635 300.582L250.651 316.695L225.78 329.235L235.635 300.582Z" fill="white"/>
<path opacity="0.3" d="M254.91 332.655L225.78 329.235L250.651 316.695L235.635 300.582L264.764 303.993L254.91 332.655Z" fill="white"/>
<path d="M213.901 320.518L170.788 335.639L186.231 350.373L229.345 335.252L213.901 320.518Z" fill="#0282AD"/>
<path opacity="0.5" d="M213.901 320.518L203.619 337.792L170.788 335.639L213.901 320.518Z" fill="white"/>
<path opacity="0.3" d="M213.901 320.518L229.345 335.252L186.231 350.373L170.788 335.639L203.619 337.792L213.901 320.518Z" fill="white"/>
<path d="M252.708 176.993L216.901 197.671L237.837 209.832L273.644 189.163L252.708 176.993Z" fill="#0282AD"/>
<path opacity="0.5" d="M216.901 197.671L248.337 195.969L252.708 176.993L216.901 197.671Z" fill="white"/>
<path opacity="0.3" d="M216.901 197.671L237.837 209.832L273.644 189.163L252.708 176.993L248.337 195.969L216.901 197.671Z" fill="white"/>
<path d="M205.441 232.752L167.941 250.163L187.715 264.139L225.216 246.728L205.441 232.752Z" fill="#0282AD"/>
<path opacity="0.6" d="M167.941 250.163L199.409 251.26L205.441 232.752L167.941 250.163Z" fill="white"/>
<path opacity="0.4" d="M167.941 250.163L187.715 264.139L225.216 246.728L205.441 232.752L199.409 251.26L167.941 250.163Z" fill="white"/>
<path d="M272.111 224.123L221.691 225.47L223.159 242.655L273.579 241.309L272.111 224.123Z" fill="#0282AD"/>
<path opacity="0.5" d="M272.111 224.123L248.828 236.43L221.691 225.47L272.111 224.123Z" fill="white"/>
<path opacity="0.3" d="M272.111 224.123L273.579 241.309L223.159 242.655L221.691 225.47L248.828 236.43L272.111 224.123Z" fill="white"/>
<path d="M195.449 220.163L145.03 221.51L146.497 238.696L196.909 237.349L195.449 220.163Z" fill="#0282AD"/>
<path opacity="0.5" d="M195.449 220.163L172.167 232.47L145.03 221.51L195.449 220.163Z" fill="white"/>
<path opacity="0.3" d="M195.449 220.163L196.909 237.349L146.497 238.696L145.03 221.51L172.167 232.47L195.449 220.163Z" fill="white"/>
<path d="M217.28 299.026L191.522 290.462L166.417 315.777L192.223 324.39L217.28 299.026Z" fill="#0282AD"/>
<path opacity="0.2" d="M191.514 290.422L196.909 308.454L166.409 315.737L191.514 290.422Z" fill="white"/>
<path opacity="0.1" d="M192.175 324.342L166.409 315.737L196.909 308.454L191.514 290.422L217.28 299.027L192.175 324.342Z" fill="white"/>
<path d="M203.046 202.203L188.957 230.252L217.49 235.107L231.562 207.05L203.046 202.203Z" fill="#0282AD"/>
<path opacity="0.5" d="M203.046 202.203L215.611 219.002L188.957 230.252L203.046 202.203Z" fill="white"/>
<path opacity="0.3" d="M217.49 235.107L188.957 230.252L215.611 219.002L203.046 202.203L231.562 207.05L217.49 235.107Z" fill="white"/>
<path d="M243.603 255.171L218.272 264.115L244.643 289.099L269.966 280.155L243.603 255.171Z" fill="#0282AD"/>
<path opacity="0.5" d="M243.603 255.171L269.966 280.155L240.095 274.195L243.603 255.171Z" fill="white"/>
<path opacity="0.3" d="M243.603 255.171L240.095 274.195L269.966 280.155L244.643 289.099L218.272 264.115L243.603 255.171Z" fill="white"/>
<path d="M227.046 275.14L191.239 295.817L212.175 307.987L247.982 287.309L227.046 275.14Z" fill="#0282AD"/>
<path opacity="0.6" d="M191.239 295.817L222.675 294.116L227.046 275.14L191.239 295.817Z" fill="white"/>
<path opacity="0.4" d="M191.239 295.817L212.175 307.987L247.982 287.309L227.046 275.14L222.675 294.116L191.239 295.817Z" fill="white"/>
<path d="M145.239 287.679L119.432 296.147L144.416 321.598L170.231 313.131L145.239 287.679Z" fill="#0282AD"/>
<path opacity="0.5" d="M148.973 302.656L144.416 321.599L119.432 296.147L148.973 302.656Z" fill="white"/>
<path opacity="0.3" d="M145.239 287.679L170.231 313.131L144.416 321.598L119.432 296.147L144.416 321.598L148.973 302.655L119.432 296.147L145.239 287.679Z" fill="white"/>
<path d="M170.756 274.849L141.538 277.897L150.618 306.671L179.836 303.631L170.756 274.849Z" fill="#0282AD"/>
<path opacity="0.6" d="M170.756 274.849L179.836 303.631L155.651 291.833L170.756 274.849Z" fill="white"/>
<path opacity="0.4" d="M170.756 274.849L155.651 291.833L179.836 303.631L150.618 306.671L141.538 277.897L170.756 274.849Z" fill="white"/>
<path d="M139.836 304.131L114.061 295.526L119.457 313.559L114.061 295.526L88.9645 320.841L114.731 329.454L139.836 304.131Z" fill="#0282AD"/>
<path opacity="0.6" d="M114.061 295.526L119.457 313.559L88.9645 320.841L114.061 295.526Z" fill="white"/>
<path opacity="0.4" d="M114.731 329.454L88.9645 320.841L119.457 313.559L114.061 295.526L139.836 304.131L114.731 329.454Z" fill="white"/>
<path d="M85.0453 254.396L64.1096 266.558L99.9244 287.235L120.852 275.066L85.0453 254.396Z" fill="#0282AD"/>
<path opacity="0.2" d="M120.852 275.066L89.4162 273.364L85.0452 254.396L120.852 275.066Z" fill="white"/>
<path opacity="0.1" d="M120.852 275.066L99.9244 287.235L64.1096 266.558L85.0453 254.396L89.4163 273.364L120.852 275.066Z" fill="white"/>
<path d="M87.5209 269.785L58.7465 273.995L71.2708 302.342L100.045 298.132L87.5209 269.785Z" fill="#0282AD"/>
<path opacity="0.5" d="M87.521 269.785L100.045 298.132L74.4967 287.342L87.521 269.785Z" fill="white"/>
<path opacity="0.3" d="M87.5209 269.785L74.4966 287.342L100.045 298.132L71.2708 302.342L58.7465 273.995L87.5209 269.785Z" fill="white"/>
<path d="M168.562 256.623L118.312 259.276L121.102 276.414L171.352 273.76L168.562 256.623Z" fill="#0282AD"/>
<path opacity="0.6" d="M168.562 256.623L146.255 269.526L118.312 259.276L168.562 256.623Z" fill="white"/>
<path opacity="0.3" d="M168.562 256.623L171.352 273.76L121.102 276.414L118.312 259.276L146.255 269.526L168.562 256.623Z" fill="white"/>
<path opacity="0.1" d="M166.175 207.896L158.764 212.179L144.771 220.251L181.207 234.518L197.788 220.276L166.175 207.896Z" fill="black"/>
<path d="M168.683 206.47L161.264 210.744L147.271 218.817L181.207 232.115L197.788 217.873L168.683 206.47Z" fill="#0282AD"/>
<path opacity="0.6" d="M166.384 219.631L197.788 217.873L168.683 206.47L161.263 210.744L166.384 219.631Z" fill="white"/>
<path opacity="0.4" d="M197.788 217.873L166.385 219.631L161.264 210.744L147.271 218.817L181.207 232.115L197.788 217.873Z" fill="white"/>
<path d="M321.563 156.815L322.636 138.646C322.786 136.17 322.32 133.696 321.28 131.444C320.24 129.192 318.658 127.233 316.676 125.742L310.152 120.831L311.103 159.815L321.563 156.815Z" fill="#0282AD"/>
<path opacity="0.1" d="M321.563 156.815L322.636 138.646C322.786 136.17 322.32 133.696 321.28 131.444C320.24 129.192 318.658 127.233 316.676 125.742L310.152 120.831L311.103 159.815L321.563 156.815Z" fill="black"/>
<path opacity="0.1" d="M311.418 136.936C314.554 138.007 317.8 138.721 321.095 139.065C320.333 139.646 319.459 140.064 318.528 140.294C317.598 140.525 316.63 140.562 315.684 140.403C314.772 140.151 313.922 139.713 313.188 139.116C312.453 138.52 311.851 137.777 311.418 136.936Z" fill="black"/>
<path d="M299.345 297.259C298.813 298.928 296.974 299.888 295.224 300.025C293.469 300.026 291.722 299.803 290.023 299.364C286.152 298.662 282.418 299.364 278.563 299.267C277.296 299.276 276.032 299.138 274.797 298.856C273.551 298.569 272.424 297.904 271.571 296.953C271.09 296.374 270.77 295.678 270.643 294.937C270.568 295.498 270.611 296.069 270.771 296.612C270.931 297.155 271.204 297.659 271.571 298.09C272.427 299.036 273.553 299.698 274.797 299.985C276.032 300.267 277.296 300.405 278.563 300.396C282.418 300.485 286.152 299.791 290.023 300.493C291.721 300.939 293.469 301.164 295.224 301.162C296.974 301.017 298.813 300.066 299.345 298.388C299.512 297.81 299.559 297.203 299.482 296.606C299.452 296.827 299.406 297.045 299.345 297.259Z" fill="#263238"/>
<path d="M299.249 294.051L298.531 290.535C298.444 289.909 298.241 289.305 297.934 288.752C297.78 288.474 297.553 288.243 297.277 288.085C297.001 287.928 296.687 287.849 296.37 287.857C294.257 287.575 291.273 286.809 289.515 288.018C286.731 289.924 283.41 290.888 280.039 290.768C278.289 290.704 276.539 290.341 274.797 290.559C273.055 290.777 271.256 291.736 270.764 293.414C270.622 293.909 270.592 294.43 270.676 294.938C270.802 295.68 271.122 296.375 271.603 296.954C272.457 297.906 273.583 298.57 274.829 298.857C276.064 299.14 277.328 299.278 278.595 299.269C282.45 299.357 286.184 298.664 290.055 299.365C291.754 299.805 293.502 300.027 295.257 300.027C297.007 299.89 298.845 298.93 299.378 297.26C299.439 297.046 299.485 296.828 299.515 296.607C299.559 295.746 299.469 294.884 299.249 294.051Z" fill="#37474F"/>
<path d="M288.998 284.332L288.853 288.913C288.835 289.381 289 289.839 289.313 290.188C289.626 290.537 290.063 290.751 290.531 290.784C292.066 290.905 293.608 290.905 295.144 290.784C295.76 290.726 296.336 290.451 296.769 290.008C297.202 289.565 297.463 288.982 297.507 288.364L297.692 284.977L288.998 284.332Z" fill="#FFA8A7"/>
<path d="M318.942 281.898C318.921 282.574 318.708 283.231 318.33 283.793C317.783 284.45 317.014 284.883 316.168 285.01C315.157 285.182 314.118 285.066 313.17 284.675C312.221 284.285 311.402 283.635 310.805 282.801C310.225 281.994 309.894 280.986 309.354 280.131C308.527 278.989 307.51 277.999 306.346 277.204C305.18 276.412 304.155 275.43 303.313 274.301C302.917 273.747 302.659 273.108 302.559 272.434C302.459 271.761 302.522 271.074 302.741 270.43C302.627 270.583 302.53 270.748 302.45 270.922C302.196 271.601 302.113 272.332 302.209 273.051C302.304 273.77 302.576 274.454 302.999 275.043C303.855 276.205 304.899 277.216 306.088 278.035C307.28 278.853 308.319 279.874 309.16 281.051C309.717 281.93 310.047 282.938 310.636 283.801C311.238 284.659 312.072 285.328 313.04 285.731C314.008 286.134 315.071 286.253 316.104 286.075C316.97 285.947 317.758 285.502 318.313 284.825C318.808 284.039 319.032 283.113 318.951 282.188C318.942 282.091 318.942 281.994 318.942 281.898Z" fill="#263238"/>
<path d="M317.507 276.155C316.12 273.736 313.249 271.937 311.055 270.211C309.845 269.158 308.354 268.48 306.765 268.26C305.966 268.158 305.155 268.298 304.436 268.662C303.717 269.026 303.124 269.596 302.732 270.3C302.732 270.34 302.732 270.389 302.692 270.429C302.473 271.073 302.411 271.761 302.51 272.434C302.61 273.107 302.868 273.747 303.265 274.3C304.107 275.43 305.132 276.411 306.297 277.203C307.461 277.998 308.479 278.989 309.305 280.131C309.845 280.986 310.176 281.969 310.757 282.8C311.353 283.634 312.173 284.284 313.121 284.675C314.069 285.065 315.108 285.182 316.12 285.01C316.965 284.883 317.734 284.449 318.281 283.792C318.66 283.231 318.872 282.574 318.894 281.897C318.894 281.679 318.894 281.461 318.894 281.236C318.866 279.452 318.389 277.705 317.507 276.155Z" fill="#37474F"/>
<path d="M311.475 274.033V278.195C312.493 278.671 313.612 278.894 314.735 278.845C315.858 278.796 316.953 278.476 317.926 277.912L318.313 274.162L311.475 274.033Z" fill="#FFA8A7"/>
<path d="M319.434 198.525C320.676 202.275 319.144 220.058 318.418 237.122C321.12 243.574 321.2 262.05 319.636 275.026C319.636 275.026 314.346 276.639 309.458 274.953L305.104 238.969L304.249 218.687C304.249 218.687 302.708 236.679 300.942 248.227C302.603 257.098 302.781 258.929 298.676 286.131C298.676 286.131 292.015 288.139 287.023 285.687C284.7 247.477 287.402 212.896 287.829 200.372L319.434 198.525Z" fill="#455A64"/>
<path opacity="0.3" d="M304.765 231.073L304.071 214.525C308.345 214.525 312.321 211.299 315.361 208.299C312.458 213.46 306.845 215.75 306.845 215.75L304.765 231.073Z" fill="black"/>
<path d="M287.321 165.243L287.192 201.421C306.265 209.413 318.644 202.227 320.313 198.437C319.434 185.251 322.547 169.824 322.305 163.267C322.063 156.711 321.265 149.324 311.103 150.807L300.297 151.864L294.813 153.195L287.321 165.243Z" fill="#0282AD"/>
<path d="M311.104 145.629C311.875 145.679 312.635 145.421 313.217 144.912C313.436 144.669 313.595 144.379 313.682 144.064C313.768 143.749 313.78 143.418 313.717 143.097C314.037 143.036 314.337 142.896 314.59 142.691C314.844 142.485 315.042 142.221 315.168 141.92C315.267 141.586 315.288 141.235 315.229 140.892C315.17 140.55 315.034 140.225 314.829 139.944C315.292 139.824 315.723 139.606 316.094 139.304C316.464 139.002 316.764 138.623 316.975 138.194C317.191 137.753 317.311 137.272 317.328 136.781C317.345 136.29 317.257 135.802 317.071 135.347C317.581 135.212 318.047 134.948 318.426 134.581C318.804 134.214 319.082 133.756 319.233 133.25C319.391 132.726 319.418 132.171 319.311 131.633C319.204 131.096 318.967 130.593 318.62 130.17C319.058 129.582 319.333 128.89 319.418 128.162C319.503 127.434 319.394 126.697 319.104 126.024C318.77 125.349 318.267 124.771 317.644 124.347C317.02 123.923 316.298 123.667 315.547 123.605C315.653 122.901 315.581 122.181 315.337 121.512C315.093 120.843 314.686 120.246 314.152 119.774C313.617 119.323 312.975 119.016 312.288 118.881C311.6 118.747 310.89 118.791 310.225 119.008C309.981 118.42 309.591 117.902 309.094 117.505C308.596 117.107 308.005 116.842 307.377 116.734C306.749 116.626 306.104 116.679 305.502 116.888C304.9 117.097 304.361 117.454 303.934 117.928C303.619 117.574 303.222 117.303 302.778 117.138C302.333 116.974 301.855 116.921 301.386 116.984C300.908 117.034 300.45 117.199 300.05 117.465C299.65 117.73 299.32 118.088 299.087 118.508C298.485 118.234 297.823 118.119 297.163 118.174C296.504 118.23 295.87 118.454 295.322 118.824C294.774 119.195 294.33 119.7 294.034 120.292C293.737 120.883 293.597 121.541 293.628 122.202C293.149 122.347 292.731 122.646 292.439 123.053C292.148 123.46 291.999 123.952 292.015 124.452C292.055 124.967 292.26 125.455 292.598 125.845C292.936 126.236 293.39 126.507 293.894 126.621C294.85 131.79 296.556 136.792 298.958 141.468C300.031 143.557 301.378 145.67 303.426 146.75C305.652 147.944 309.176 147.275 311.104 145.629Z" fill="#455A64"/>
<path d="M293.103 133.42L290.869 137.315L293.321 138.218L293.103 133.42Z" fill="#F28F8F"/>
<path d="M293.878 126.645C292.393 132.032 292.172 137.69 293.232 143.177C293.35 144.124 293.705 145.026 294.265 145.798C295.004 146.588 296.023 147.057 297.103 147.104C298.188 147.146 299.272 147.043 300.329 146.798V151.862C304.168 152.766 308.12 153.121 311.136 150.806V145.629C308.968 146.32 306.662 146.462 304.426 146.04C301.773 144.612 301.241 139.766 301.612 138.483C301.848 138.794 302.17 139.029 302.539 139.158C302.907 139.287 303.306 139.305 303.684 139.209C304.05 139.113 304.392 138.942 304.689 138.708C304.986 138.473 305.232 138.18 305.41 137.846C305.765 137.178 305.984 136.446 306.055 135.693C306.242 134.784 306.102 133.839 305.66 133.024C305.321 132.569 304.851 132.229 304.314 132.048C303.777 131.866 303.197 131.852 302.652 132.007C301.561 132.349 300.651 133.109 300.12 134.12C299.949 134.432 299.801 134.755 299.676 135.088C299.632 135.219 299.545 135.331 299.428 135.404C299.311 135.478 299.173 135.509 299.036 135.492C298.899 135.474 298.772 135.41 298.677 135.31C298.582 135.21 298.525 135.081 298.515 134.943C298.376 133.489 298.638 132.025 299.273 130.709C298.835 130.663 298.413 130.52 298.037 130.29C297.662 130.059 297.343 129.748 297.103 129.378C296.854 129.034 296.686 128.637 296.613 128.217C296.541 127.798 296.565 127.368 296.684 126.959C295.737 127.021 294.787 126.915 293.878 126.645Z" fill="#FFA8A7"/>
<path d="M296.942 133.879C298.705 133.935 300.46 133.616 302.091 132.943C303.722 132.27 305.191 131.259 306.402 129.976C306.574 129.796 306.683 129.565 306.712 129.317C306.741 129.07 306.689 128.82 306.563 128.605C306.483 128.472 306.377 128.358 306.25 128.269C306.123 128.18 305.98 128.118 305.828 128.087C305.676 128.057 305.52 128.059 305.368 128.092C305.217 128.126 305.075 128.191 304.95 128.282C303.916 129.092 302.686 129.615 301.386 129.798C301.474 127.919 304.079 124.258 305.418 122.935C305.843 122.624 306.154 122.182 306.305 121.677C306.326 121.511 306.307 121.343 306.249 121.186C306.192 121.028 306.098 120.887 305.974 120.774C305.858 120.658 305.715 120.572 305.557 120.524C305.4 120.476 305.233 120.468 305.071 120.5C305.229 120.436 305.362 120.323 305.452 120.178C305.542 120.033 305.584 119.864 305.571 119.693C305.541 119.519 305.464 119.356 305.349 119.221C305.234 119.087 305.085 118.985 304.918 118.927C304.756 118.857 304.582 118.821 304.406 118.821C304.23 118.821 304.055 118.857 303.894 118.927C303.868 118.779 303.802 118.641 303.702 118.528C303.603 118.416 303.473 118.333 303.329 118.29C303.041 118.194 302.73 118.194 302.442 118.29C302.147 118.392 301.863 118.525 301.595 118.685C301.433 118.456 301.198 118.29 300.928 118.213C300.657 118.137 300.369 118.156 300.111 118.266C296.716 119.992 292.644 125.524 292.611 129.331C292.653 130.487 293.116 131.588 293.914 132.426C294.712 133.264 295.789 133.781 296.942 133.879Z" fill="#FFA8A7"/>
<path d="M305.031 120.436C303.125 121.355 301.595 122.905 300.7 124.823C301.015 121.911 303.878 120.565 305.031 120.436Z" fill="#F28F8F"/>
<path d="M303.854 118.839C300.983 120.202 299.716 121.629 298.934 122.871C299.35 121.841 300.019 120.931 300.879 120.226C301.738 119.522 302.761 119.045 303.854 118.839Z" fill="#F28F8F"/>
<path d="M301.555 118.629C299.91 119.324 298.497 120.474 297.482 121.943C297.797 121.074 298.343 120.306 299.06 119.722C299.777 119.139 300.64 118.761 301.555 118.629Z" fill="#F28F8F"/>
<path d="M302.644 131.977C300.769 132.876 298.667 133.191 296.611 132.88C296.308 131.705 295.642 130.655 294.708 129.88C294.092 129.369 293.375 128.995 292.603 128.783C292.603 128.944 292.603 129.114 292.603 129.275C292.632 130.448 293.095 131.568 293.902 132.419C294.71 133.27 295.805 133.79 296.974 133.88C298.732 133.931 300.481 133.61 302.106 132.937C303.73 132.264 305.195 131.255 306.402 129.977C306.567 129.805 306.674 129.585 306.706 129.348C306.738 129.112 306.693 128.872 306.579 128.662C305.565 130.078 304.212 131.218 302.644 131.977Z" fill="#F28F8F"/>
<path opacity="0.2" d="M297.733 163.848C294.507 163.904 291.281 164.065 287.999 164.186L287.321 165.283V172.057C289.567 171.571 291.672 170.579 293.476 169.156C295.28 167.733 296.736 165.918 297.733 163.848Z" fill="black"/>
<path d="M298.047 152.403L276.498 146.299L295.474 137.234C298.232 132.186 293.176 127.887 288.886 128.508L266.942 139.347C265.331 140.087 263.966 141.273 263.01 142.766C262.053 144.258 261.546 145.994 261.547 147.766C261.546 149.562 262.067 151.318 263.047 152.823C264.026 154.328 265.421 155.516 267.063 156.242L292.063 167.323C299.587 169.847 304.845 154.331 298.047 152.403Z" fill="#0282AD"/>
<path opacity="0.2" d="M276.498 146.299L270.345 144.549C273.528 143.902 276.792 143.747 280.023 144.089L280.926 144.186L276.498 146.299Z" fill="black"/>
</svg>
