<svg width="211" height="76" viewBox="0 0 211 76" fill="none" xmlns="http://www.w3.org/2000/svg">
<path d="M65.8442 17.7602C66.9126 16.4041 67.9811 15.1508 69.0495 14.0001C70.159 12.8084 71.0631 12.0687 71.7617 11.7811C72.4603 11.4934 73.878 11.3496 76.0149 11.3496C78.1518 11.3496 79.2202 11.6167 79.2202 12.1509C79.2202 12.3564 78.9942 12.5824 78.5422 12.829C78.0902 13.0755 77.4737 13.4659 76.693 14.0001C75.9122 14.5343 74.2684 15.9932 71.7617 18.3766C69.2961 20.7601 66.8099 23.5545 64.3032 26.7598C64.221 26.842 64.1799 26.9652 64.1799 27.1296C64.1799 27.2529 64.2826 27.3351 64.4881 27.3762C64.7347 27.4173 65.0634 27.4789 65.4743 27.5611C65.8853 27.6433 66.625 27.972 67.6934 28.5474C68.8029 29.0816 69.7892 29.7802 70.6522 30.6431C71.5151 31.465 72.337 32.7595 73.1178 34.5265C73.9397 36.2525 74.4123 37.8962 74.5355 39.4578C74.6588 40.9782 74.7821 42.3549 74.9054 43.5877C75.0287 44.8205 75.3369 46.5876 75.83 48.8888C76.3642 51.1901 76.9806 52.5667 77.6792 53.0187C77.8847 53.1831 77.9874 53.3886 77.9874 53.6352C77.9874 54.2927 77.0834 54.9091 75.2752 55.4844C73.4671 56.0186 71.8439 56.2857 70.4056 56.2857C69.0084 56.2857 68.2071 55.7104 68.0016 54.5598C67.7961 53.3269 67.6523 50.3887 67.5701 45.7451V43.2795C67.5701 38.9646 66.9537 35.8415 65.7209 33.9101C64.6525 32.2253 63.6868 31.2801 62.8238 31.0746C62.1663 30.8692 61.817 30.7664 61.7759 30.7664L61.0978 31.0746C60.1116 32.2253 59.3308 33.3348 58.7555 34.4032C58.1802 35.4717 57.872 36.2525 57.8309 36.7456L57.7076 37.5469C57.7076 43.3411 57.9542 48.293 58.4473 52.4023C58.5295 52.8955 58.5706 53.1831 58.5706 53.2653C58.5706 54.1694 57.6049 54.9502 55.6735 55.6077C53.7831 56.2652 52.2216 56.5939 50.9888 56.5939C49.797 56.5939 49.2012 56.409 49.2012 56.0391C49.2012 55.7926 49.2628 55.4844 49.3861 55.1145C49.797 54.2105 50.0847 51.2312 50.2491 46.1766C50.4545 41.081 50.5573 36.4579 50.5573 32.3074C50.5573 28.1159 50.4751 24.7256 50.3107 22.1367C50.0641 18.2328 49.6532 15.8904 49.0779 15.1097C48.6259 14.5343 48.3998 14.1645 48.3998 14.0001C48.3998 13.4248 49.4477 12.87 51.5435 12.3358C53.6804 11.8016 55.3858 11.5345 56.6597 11.5345C57.9747 11.5345 58.6322 11.8222 58.6322 12.3975L58.5706 13.1988C58.0364 17.6369 57.7692 22.3833 57.7692 27.4378C57.7692 27.8488 57.8514 28.0542 58.0158 28.0542C58.2213 28.0542 58.4473 27.8693 58.6939 27.4995C58.9404 27.1296 59.2897 26.6159 59.7417 25.9584C60.2349 25.3009 61.0978 24.1092 62.3307 22.3833C63.6046 20.6573 64.7757 19.1163 65.8442 17.7602ZM85.6997 22.5066L84.2204 22.4449C83.1108 22.4449 82.3917 22.712 82.0629 23.2462C81.9807 23.3695 81.878 23.4312 81.7547 23.4312C81.2205 23.4312 80.9534 22.5271 80.9534 20.719C80.9534 18.8698 81.2205 17.6986 81.7547 17.2054C82.33 16.7123 83.2957 16.4658 84.6518 16.4658C86.049 16.4658 86.9942 16.7123 87.4873 17.2054C87.9804 17.6575 88.227 18.4383 88.227 19.5478C88.227 20.6573 88.0421 21.4381 87.6722 21.8902C87.3024 22.3011 86.6449 22.5066 85.6997 22.5066ZM80.7685 53.6352L81.4465 39.2728C81.4465 35.8621 81.0561 33.5403 80.2753 32.3074C80.0288 31.8965 79.7411 31.5883 79.4124 31.3828C79.1658 31.3006 79.0425 31.1363 79.0425 30.8897C79.0425 30.15 80.0904 29.4309 82.1862 28.7323C84.282 28.0337 85.8025 27.6844 86.7476 27.6844C87.7339 27.6844 88.2476 27.9309 88.2887 28.4241C88.2887 29.2459 88.1654 31.5883 87.9188 35.4511C87.7133 39.2728 87.6106 43.3 87.6106 47.5327C87.6106 51.7654 87.8572 54.3954 88.3503 55.4227C88.4736 55.6282 88.5352 55.8337 88.5352 56.0391C88.5352 56.5734 87.7544 56.8405 86.1929 56.8405C84.6313 56.8405 83.0286 56.4295 81.3849 55.6077C80.9739 55.4022 80.7685 54.7447 80.7685 53.6352ZM91.3683 31.4445L91.5532 28.9788C91.5943 28.609 91.882 28.4241 92.4162 28.4241H94.5736L94.327 23.4928V23.2462C94.327 22.3011 95.0462 21.397 96.4845 20.5341C97.9227 19.6711 99.2378 19.2396 100.429 19.2396C100.799 19.2396 100.984 19.404 100.984 19.7327V19.7944C100.82 20.9039 100.655 23.7599 100.491 28.3624C102.299 28.3624 103.45 28.3213 103.943 28.2391C104.436 28.157 104.703 28.1159 104.744 28.1159C105.032 28.1159 105.176 28.3624 105.176 28.8556C105.176 29.3487 104.95 29.9856 104.498 30.7664C104.046 31.5061 103.553 31.8965 103.018 31.9376H100.429C100.388 33.3348 100.368 35.6977 100.368 39.0263C100.368 42.3138 100.388 45.026 100.429 47.1629C100.512 49.2998 100.594 50.923 100.676 52.0325C100.758 53.1009 100.84 53.9639 100.923 54.6214C101.046 55.2789 101.128 55.7515 101.169 56.0391C101.251 56.3268 101.292 56.5117 101.292 56.5939C101.292 57.0048 101.025 57.2309 100.491 57.272C98.8885 57.272 97.2858 57.0459 95.6831 56.5939C94.1216 56.1419 93.3408 55.3611 93.3408 54.2516C94.2038 47.3478 94.6352 39.9304 94.6352 31.9992C93.5257 31.9992 92.6833 32.0403 92.108 32.1225H92.0463C91.6765 32.1225 91.4505 31.8965 91.3683 31.4445ZM112.427 22.5066L110.947 22.4449C109.838 22.4449 109.119 22.712 108.79 23.2462C108.708 23.3695 108.605 23.4312 108.482 23.4312C107.948 23.4312 107.68 22.5271 107.68 20.719C107.68 18.8698 107.948 17.6986 108.482 17.2054C109.057 16.7123 110.023 16.4658 111.379 16.4658C112.776 16.4658 113.721 16.7123 114.214 17.2054C114.708 17.6575 114.954 18.4383 114.954 19.5478C114.954 20.6573 114.769 21.4381 114.399 21.8902C114.029 22.3011 113.372 22.5066 112.427 22.5066ZM107.496 53.6352L108.174 39.2728C108.174 35.8621 107.783 33.5403 107.002 32.3074C106.756 31.8965 106.468 31.5883 106.139 31.3828C105.893 31.3006 105.77 31.1363 105.77 30.8897C105.77 30.15 106.817 29.4309 108.913 28.7323C111.009 28.0337 112.53 27.6844 113.475 27.6844C114.461 27.6844 114.975 27.9309 115.016 28.4241C115.016 29.2459 114.892 31.5883 114.646 35.4511C114.44 39.2728 114.338 43.3 114.338 47.5327C114.338 51.7654 114.584 54.3954 115.077 55.4227C115.201 55.6282 115.262 55.8337 115.262 56.0391C115.262 56.5734 114.481 56.8405 112.92 56.8405C111.358 56.8405 109.756 56.4295 108.112 55.6077C107.701 55.4022 107.496 54.7447 107.496 53.6352Z" fill="white"/>
</svg>
