<svg width="19" height="22" viewBox="0 0 19 22" fill="none" xmlns="http://www.w3.org/2000/svg">
<path d="M17 10.5V6L12.5 1H2C1.73478 1 1.48043 1.10536 1.29289 1.29289C1.10536 1.48043 1 1.73478 1 2V20C1 20.2652 1.10536 20.5196 1.29289 20.7071C1.48043 20.8946 1.73478 21 2 21H7" stroke="#C8C7C7" stroke-width="1.5" stroke-linecap="round" stroke-linejoin="round"/>
<path d="M14 17C15.1046 17 16 16.1046 16 15C16 13.8954 15.1046 13 14 13C12.8954 13 12 13.8954 12 15C12 16.1046 12.8954 17 14 17Z" stroke="#C8C7C7" stroke-width="1.5" stroke-linecap="round" stroke-linejoin="round"/>
<path d="M18 21C18 19.9391 17.5786 18.9217 16.8284 18.1716C16.0783 17.4214 15.0609 17 14 17C12.9391 17 11.9217 17.4214 11.1716 18.1716C10.4214 18.9217 10 19.9391 10 21M12 1V6H17" stroke="#C8C7C7" stroke-width="1.5" stroke-linecap="round" stroke-linejoin="round"/>
</svg>
